<svg width="32" height="28" viewBox="0 0 32 28" fill="none" xmlns="http://www.w3.org/2000/svg">
<path d="M5.55664 1.40625C8.29849 0.152961 11.9224 0.526885 15.293 4.0293L15.833 4.59082L16.374 4.0293C19.7445 0.527005 23.3685 0.153389 26.1104 1.40723C28.8994 2.68282 30.917 5.69925 30.917 9.26758C30.917 12.8826 29.4315 15.6637 27.3418 18.0166C25.2266 20.3982 22.5537 22.2806 20.1797 24.1504L20.1787 24.1514C19.3506 24.8056 18.5842 25.4016 17.8379 25.8379C17.0911 26.2743 16.4344 26.5078 15.833 26.5078C15.2319 26.5077 14.576 26.2744 13.8291 25.8379C13.0824 25.4015 12.316 24.8054 11.4873 24.1523C9.11368 22.2806 6.44082 20.3977 4.3252 18.0156C2.23532 15.6625 0.75 12.8813 0.75 9.26562C0.75015 5.69654 2.76765 2.68114 5.55664 1.40625Z" fill="#FFFAF4" stroke="#5C694D" stroke-width="1.5"/>
</svg>
