<svg width="393" height="852" viewBox="0 0 393 852" fill="none" xmlns="http://www.w3.org/2000/svg">
<g clip-path="url(#clip0_118_183)">
<rect width="393" height="852" fill="#667555"/>
<path d="M345.495 764.006C318.802 774.351 301.72 763.947 293.995 757.08C284.995 749.08 271.995 711.08 294.495 683.08C330.995 647.58 360.828 670.08 369.495 683.08C380.662 699.08 394.295 736.28 359.495 757.08C354.566 760.027 349.899 762.299 345.495 764.006ZM345.495 764.006C344.328 765.197 343.395 768.38 348.995 771.58C355.995 775.58 359.995 784.08 357.495 810.58C354.995 837.08 359.495 848.58 340.495 846.08M340.495 846.08C339.828 847.58 336.995 850.28 330.995 849.08C323.495 847.58 323.995 849.08 323.995 832.08C323.995 815.08 328.495 812.58 337.495 812.58C340.552 812.58 342.052 814.946 342.64 818.58M340.495 846.08C341.485 837.497 343.784 825.643 342.64 818.58M342.995 786.08L342.64 818.58M302.995 764.006C298.495 768.364 289.495 778.68 289.495 785.08C284.995 792.58 283.995 794.08 283.495 799.58C282.995 805.08 282.84 840.58 290.995 842.08C299.149 843.58 298.776 825.914 299.916 819.58M299.916 819.58C299.502 822.63 299.234 826.411 298.995 831.08C297.995 850.58 300.495 847.58 308.495 847.58C315.695 847.58 313.995 847.58 317.495 847.58C320.995 847.58 322.495 807.58 311.995 807.58C305.25 807.58 302.219 809.231 300.648 815.58M299.916 819.58C300.12 818.075 300.359 816.748 300.648 815.58M300.648 815.58V795.08M334.995 689.58C334.328 693.913 334.495 702.48 340.495 702.08" stroke="#435234" stroke-width="2"/>
<ellipse cx="314.823" cy="692.718" rx="10.5" ry="9" transform="rotate(-39.8537 314.823 692.718)" fill="#435234"/>
<ellipse cx="313.219" cy="741.371" rx="4.63289" ry="5.64155" transform="rotate(42.3314 313.219 741.371)" fill="#435234"/>
<ellipse cx="360.872" cy="726.483" rx="13.4913" ry="11.8249" transform="rotate(-85.3616 360.872 726.483)" fill="#435234"/>
<path d="M267.397 399.54C288.299 407.542 301.675 399.495 307.725 394.184C314.772 387.997 324.952 358.606 307.333 336.95C278.751 309.493 255.39 326.895 248.604 336.95C239.859 349.325 229.184 378.097 256.434 394.184C260.294 396.463 263.948 398.22 267.397 399.54ZM267.397 399.54C268.311 400.462 269.041 402.924 264.656 405.399C259.175 408.493 256.043 415.067 258 435.563C259.958 456.059 256.434 464.954 271.312 463.02M271.312 463.02C271.834 464.18 274.053 466.268 278.751 465.34C284.624 464.18 284.233 465.34 284.233 452.192C284.233 439.043 280.709 437.11 273.661 437.11C271.267 437.11 270.093 438.94 269.632 441.75M271.312 463.02C270.537 456.381 268.737 447.213 269.632 441.75M269.355 416.614L269.632 441.75M300.677 399.54C304.201 402.911 311.248 410.89 311.248 415.84C314.772 421.641 315.555 422.801 315.947 427.055C316.283 430.708 316.42 451.472 312.408 458M303.088 442.524C303.412 444.883 303.622 447.807 303.809 451.418C304.592 466.5 302.635 464.18 296.37 464.18C290.732 464.18 292.063 464.18 289.323 464.18C286.582 464.18 285.407 433.243 293.63 433.243C298.911 433.243 301.285 434.519 302.514 439.43M303.088 442.524C303.981 447.422 303.688 461.086 310.074 459.926C310.976 459.762 311.748 459.074 312.408 458M303.088 442.524C302.928 441.36 302.741 440.334 302.514 439.43M302.514 439.43V423.575M275.619 341.977C276.141 345.329 276.011 351.954 271.312 351.645M312.408 458H332.5L330.5 448C330.333 445.5 334.5 456 335.5 453.5C336.5 451 335 438.657 337 437.11C339 435.563 341.5 443.1 339.5 453.5C342.7 450.3 345 447 346 448C347 449 341.5 459 341.5 459H378" stroke="#435234" stroke-width="2"/>
<ellipse cx="8.18079" cy="6.99663" rx="8.18079" ry="6.99663" transform="matrix(-0.771563 -0.636153 -0.645492 0.763767 302.243 344.264)" fill="#435234"/>
<ellipse cx="3.60768" cy="4.38808" rx="3.60768" ry="4.38808" transform="matrix(-0.743391 0.668858 0.677958 0.735101 292.378 376.395)" fill="#435234"/>
<ellipse cx="10.4356" cy="9.25884" rx="10.4356" ry="9.25884" transform="matrix(-0.0818654 -0.996643 -0.996805 0.0798788 265.439 380.18)" fill="#435234"/>
<path d="M166.409 762.499C170.738 751.492 171.832 721.494 171.989 705.052C172.145 688.61 161.768 690.05 161.721 681.947C161.675 673.844 162.342 669.953 161.898 664.448C160.913 662.938 159.953 658.928 155.418 662.383C150.883 665.837 155.01 679.472 146.278 676.291C137.545 673.111 143.085 645.758 144.626 641.773C146.166 637.788 147.297 624.799 146.827 621.794C146.357 618.789 141.883 616.244 140.368 617.729C138.853 619.214 136.757 625.628 135.757 628.683C134.757 631.738 130.6 651.707 121.066 647.536C111.532 643.364 115.455 608.977 114.546 599.967C113.636 590.958 109.142 590.412 107.127 591.892C105.112 593.372 108.066 597.902 102.066 597.841C96.0667 597.781 99.7431 580.317 95.2886 575.772C90.8341 571.227 90.3241 572.222 89.299 574.712C88.2739 577.201 96.0515 599.281 89.0671 597.71C82.0826 596.14 82.7993 574.646 82.7993 574.646C82.7993 574.646 81.9657 558.137 83.0413 550.647C84.117 543.158 83.122 542.648 81.6271 542.133C80.1322 541.617 78.087 546.097 76.0517 549.577C74.0164 553.056 70.8856 566.026 71.325 572.03C71.7645 578.035 79.6229 592.115 70.0882 595.519C60.5535 598.923 64.7548 578.964 63.8003 574.454C62.8458 569.945 61.3458 569.93 59.3459 569.909C57.346 569.889 57.3257 571.889 57.2548 574.768C57.184 577.647 61.4623 603.812 60.9017 609.807C57.9022 613.897 55.4326 610.872 52.8874 615.346C50.837 620.326 53.7915 624.856 52.726 631.346C51.1807 635.83 51.1504 638.83 48.1708 636.8C45.1912 634.77 45.8524 618.776 45.8524 618.776C45.8524 618.776 45.9281 611.276 43.4282 611.251C40.9283 611.226 40.3627 617.72 40.3325 620.72C40.3022 623.72 41.2013 633.73 41.2013 633.73C41.2013 633.73 45.4843 655.274 36.3991 663.683C26.8996 663.587 34.0152 652.158 27.0105 652.587C23.9652 657.057 26.9652 657.087 26.8895 664.587C26.8139 672.086 22.1831 685.04 22.1831 685.04C20.502 687.026 10.2751 725.422 25.9669 756.082C27.1714 759.45 28.4794 762.535 29.8734 765.357M166.409 762.499C163.707 769.371 157.433 779.873 146.154 787.696M166.409 762.499C182.562 762.662 184.579 770.351 189.033 780.228M29.8734 765.357C35.8334 777.424 43.3682 784.708 51.1364 788.972M29.8734 765.357C24.1104 766.284 14.0462 770.525 10.6678 780.429M51.1364 788.972C64.2915 796.192 78.116 794.747 86.0958 793.19C93.0752 795.261 91.5149 801.245 120.054 797.533C130.773 796.139 139.369 792.402 146.154 787.696M51.1364 788.972C50.6033 792.255 49.035 799.017 47.027 799.797C45.0191 800.577 41.0626 796.236 38.0577 796.706C35.0528 797.176 38.4418 808.211 32.4421 808.15C24.9424 808.075 25.5988 792.58 23.5988 792.56C21.9988 792.544 23.0383 798.555 21.0132 801.035C18.9881 803.514 11.0552 806.734 9.62472 789.919C9.31651 786.296 9.74007 783.149 10.6678 780.429M146.154 787.696C146.757 794.069 151.522 800.851 155.027 800.386C158.531 799.921 161.122 790.947 164.617 791.482C168.112 792.017 168.558 797.322 172.566 796.563C176.574 795.803 178.303 789.62 178.667 786.624C178.667 786.624 180.717 781.644 181.666 786.654C182.616 791.664 180.761 797.145 183.55 798.173C186.34 799.202 194.517 791.584 190.206 782.74C189.792 781.889 189.404 781.051 189.033 780.228M32.1581 737.144C33.2944 740.155 38.577 745.209 50.6168 741.33M128.088 744.611C131.074 745.975 138.96 747.421 146.612 742.298M10.6678 780.429C2.35415 780.179 -14.8833 780.672 -17.3235 784.647C-20.3737 789.617 -29.8985 792.021 -29.6254 814.525C-29.3523 837.029 -17.3832 840.149 -12.4036 842.2C-8.41991 843.84 -6.39884 841.76 -3.90401 842.285C-1.40918 842.811 5.40481 849.38 69.0217 850.021C99.0202 850.324 114.996 852.754 157.527 849.914C203.06 846.873 205.964 856.402 213.231 829.974C222.232 810.064 209.539 799.436 208.589 794.426C207.64 789.416 210.46 781.644 189.033 780.228M34.4288 708.642C36.2647 706.308 41.3857 701.642 47.1826 701.642M50.9288 702.142C52.789 701.975 56.8932 702.242 58.4288 704.642M136.929 707.642C139.262 706.975 144.829 706.342 148.429 709.142M149.929 711.142C150.762 711.975 152.529 714.042 152.929 715.642M91.4937 753.743C83.8308 753.332 68.4868 754.311 68.4142 761.51C68.3416 768.71 81.6729 768.978 88.3476 768.212C91.0057 769.072 97.323 770.702 101.327 770.343C106.332 769.893 117.331 770.004 116.912 762C116.576 755.596 99.8266 753.827 91.4937 753.743ZM141.43 710.744C134.935 710.179 125.307 712.882 126.794 724.097C128.281 735.313 135.673 736.187 140.178 735.733C144.683 735.278 154.218 731.774 152.303 723.354C150.388 714.935 147.924 711.31 141.43 710.744ZM48.9698 706.312C43.6334 706.591 34.3111 712.064 35.8142 721.68C37.3173 731.295 39.1829 734.714 47.1826 734.795C56.182 734.886 61.8392 729.243 60.3482 718.427C58.8572 707.611 54.4594 707.367 48.9698 706.312Z" stroke="#435234" stroke-width="2"/>
<ellipse cx="137.794" cy="724.208" rx="3.5" ry="4.5" transform="rotate(0.577765 137.794 724.208)" fill="#435234"/>
<ellipse cx="49.7121" cy="719.794" rx="3.80262" ry="4.5" transform="rotate(8.37894 49.7121 719.794)" fill="#435234"/>
<path d="M-17.8386 786.142C-10.3591 788.218 -7.38448 790.748 -4.9804 800.272C-4.47043 802.293 -4.03384 804.898 -3.67239 807.786M-13.3934 841.19C-5.38577 840.47 -4.40397 842.28 -2.84354 836.296C-2.02394 833.152 -2.32994 818.514 -3.67239 807.786M-13.5455 806.686C-12.0691 809.035 -9.73748 815.825 -12.2221 824.201C-15.3278 834.67 -18.9948 801.631 -14.9799 800.172C-10.965 798.712 -9.51547 803.727 -8.61131 813.237C-7.70716 822.746 -9.8079 832.725 -13.3077 832.69C-16.8075 832.655 -25.8572 795.062 -16.4244 794.657C-8.8781 794.333 -5.73817 806.932 -5.11149 813.272C-4.70731 822.776 -5.78979 840.866 -13.3531 837.19C-22.8072 832.594 -24.9995 802.071 -22.4392 796.096C-20.3909 791.317 -18.2055 789.472 -17.3689 789.147C-14.7731 788.506 -8.3998 791.338 -3.67239 807.786M-2.53095 805.297L15.9681 805.484M19.4831 804.019L25.4676 805.58M35.952 807.186L57.4156 810.902M4.7922 822.872C9.4435 824.419 19.2461 827.518 21.246 827.538C23.2459 827.558 39.735 828.725 47.7295 829.305M5.58039 843.881L25.0945 842.578M46.6035 841.795L65.6025 841.986M100.413 811.336C104.396 813.043 123.266 816.166 166.88 815.006M212.923 810.97L183.894 813.678M199.156 837.333L180.172 835.641M115.716 830.991L130.215 831.137M118.549 847.521L140.058 846.737M80.3237 820.134C80.6389 828.537 75.2079 831.583 70.7082 831.537C66.2084 831.492 60.5702 825.335 59.8348 818.927C58.3423 805.923 79.7583 805.064 80.3237 820.134ZM80.3237 820.134C79.6167 824.127 76.7079 831.598 70.7283 829.537C63.2539 826.962 62.3094 821.452 62.3347 818.952C62.8649 815.957 61.9431 812.948 70.8897 813.538C79.8363 814.128 77.7683 825.608 72.2686 825.553C66.7689 825.497 62.3145 820.952 65.8496 817.488C69.3847 814.023 72.824 820.058 71.309 821.543C70.0969 822.731 67.8142 821.008 66.8243 819.998M160.219 830.94C160.534 839.343 155.593 843.394 151.093 843.348C141.099 842.748 138.45 837.621 137.715 831.213C136.222 818.209 159.653 815.87 160.219 830.94ZM160.219 830.94C159.512 834.933 154.598 842.884 148.618 840.823C141.144 838.248 141.195 833.248 141.22 830.748C141.75 827.753 141.838 823.754 150.785 824.344C159.731 824.935 157.663 836.414 152.164 836.359C146.664 836.303 141.72 830.753 145.255 827.289C148.79 823.824 153.724 830.374 152.209 831.859C150.997 833.047 147.709 831.814 146.719 830.804M3.06373 746.351C0.178441 751.489 -3.9013 762.681 2.86205 766.35C9.62541 770.018 5.81457 754.546 3.06373 746.351Z" stroke="#435234"/>
<path d="M181.226 731.147C179.491 737.963 177.313 752.308 182.484 755.16C187.656 758.013 190.1 743.737 188.13 740.717C186.16 737.697 183.202 733.567 181.226 731.147ZM125.995 605.083C125.296 608.243 124.288 615.667 125.843 620.082C127.399 624.498 124.742 630.072 124.722 632.072C125.702 634.082 132.416 632.749 131.353 619.138C130.29 605.527 127.338 604.097 125.995 605.083ZM29.2624 627.609C27.7037 633.427 25.6882 644.874 30.096 644.118C34.5038 643.363 30.1867 635.119 29.2171 632.109C28.2474 629.099 29.2624 627.609 29.2624 627.609Z" stroke="#435234"/>
<path d="M101.002 40.4451C99.5016 40.6117 96.1015 41.7451 94.5016 44.9451C92.9016 48.1451 94.5016 52.1166 95.5016 53.7024C96.5016 54.9499 99.7016 57.1451 104.502 55.9451M94.5016 20.4447C91.0016 21.4451 90.2016 24.8451 89.0016 32.4451C87.8016 40.0451 83.5016 38.4451 80.5016 39.4448C78.0016 39.9451 71.7267 40.9451 73.2295 47.2024C75.7267 54.9451 79.7295 48.7027 82.2295 53.7024C84.7295 58.2024 80.5016 67.9451 84.0016 71.4451C87.5016 74.9451 94.0016 65.4451 102.002 62.9451C111.002 61.4451 116.002 68.4451 123.502 62.4451C129.102 58.8451 121.002 47.9454 121.502 44.9451C122.002 41.9447 134.502 35.9451 128.502 30.9451C121.502 29.4451 115.502 31.4451 110.002 30.4447C107.502 28.4444 106.002 21.4451 102.002 20.4447C98.0016 19.4442 94.5016 20.4447 94.5016 20.4447Z" stroke="#435234" stroke-width="2" stroke-linecap="round"/>
<path d="M183.002 471.445C181.502 471.612 178.102 472.745 176.502 475.945C174.902 479.145 176.502 483.117 177.502 484.702C178.502 485.95 181.702 488.145 186.502 486.945M176.502 451.445C173.002 452.445 172.202 455.845 171.002 463.445C169.802 471.045 165.502 469.445 162.502 470.445C160.002 470.945 153.727 471.945 155.229 478.202C157.727 485.945 161.73 479.703 164.23 484.702C166.73 489.202 162.502 498.945 166.002 502.445C169.502 505.945 176.002 496.445 184.002 493.945C193.002 492.445 198.002 499.445 205.502 493.445C211.102 489.845 203.002 478.945 203.502 475.945C204.002 472.945 216.502 466.945 210.502 461.945C203.502 460.445 197.502 462.445 192.002 461.445C189.502 459.444 188.002 452.445 184.002 451.445C180.002 450.444 176.502 451.445 176.502 451.445Z" stroke="#435234" stroke-width="2" stroke-linecap="round"/>
<path d="M211.175 437.748C210.309 437.843 208.345 438.495 207.42 440.333C206.496 442.172 207.42 444.454 207.998 445.365C208.576 446.082 210.424 447.344 213.197 446.654M207.42 426.256C205.399 426.83 204.937 428.784 204.243 433.151C203.55 437.518 201.066 436.599 199.333 437.173C197.889 437.46 194.264 438.035 195.133 441.63C196.575 446.079 198.887 442.493 200.331 445.365C201.776 447.951 199.333 453.549 201.355 455.56C203.377 457.571 207.132 452.113 211.753 450.676C216.952 449.814 219.84 453.837 224.172 450.389C227.407 448.32 222.728 442.057 223.017 440.333C223.306 438.609 230.527 435.162 227.061 432.289C223.017 431.427 219.551 432.576 216.374 432.002C214.93 430.852 214.064 426.83 211.753 426.256C209.442 425.681 207.42 426.256 207.42 426.256Z" stroke="#435234" stroke-width="2" stroke-linecap="round"/>
<path d="M137.607 78.1707C136.171 77.7042 132.607 77.335 129.83 79.5908C127.053 81.8466 126.873 86.1246 127.13 87.9816C127.527 89.5305 129.538 92.8496 134.405 93.7352M139.93 57.2693C136.329 56.7379 134.198 59.5057 129.972 65.9351C125.746 72.3645 122.488 69.1341 119.342 68.8081C116.858 68.2333 110.729 66.5574 109.519 72.8778C108.602 80.9614 114.822 76.9244 115.039 82.5101C115.461 87.6405 107.593 94.7737 109.339 99.4054C111.084 104.037 120.923 98.0616 129.242 99.082C138.06 101.426 139.729 109.864 149.036 107.49C155.622 106.519 152.736 93.2492 154.428 90.7219C156.121 88.1945 169.983 87.8816 166.578 80.8527C160.818 76.6003 154.528 75.9489 149.929 72.7701C148.476 69.917 149.995 62.9218 146.763 60.3613C143.531 57.8007 139.93 57.2693 139.93 57.2693Z" stroke="#435234" stroke-width="2" stroke-linecap="round"/>
<path d="M327.506 37.1995C337.068 43.7415 340.087 43.2383 351.159 45.2509C352.799 46.1165 354.303 46.9037 355.688 47.6234M327.506 37.1995C329.352 29.8187 335.961 14.0506 347.636 10.0247C362.23 4.99232 366.256 -16.6468 370.785 -19.6663C372.025 -20.4932 373.222 -20.8719 374.307 -20.972M327.506 37.1995C326.075 37.1995 324.561 37.1951 322.977 37.1932M238.434 69.8259C243.019 65.6307 247.956 60.644 253.028 54.8123C268.014 37.5782 301.74 37.1675 322.977 37.1932M238.434 69.8259C231.221 67.1699 216.09 60.8516 213.272 56.8257C200.389 49.9817 192.5 51.2901 191.129 51.2901C190.259 51.0801 176.334 42.2318 173.516 42.2318M238.434 69.8259C230.422 77.1561 223.489 82.0696 218.807 84.8513M238.434 69.8259C241.453 78.9121 249.351 97.1104 257 95.5C258 95.2895 260.684 100.707 263.092 100.104C265.5 99.5 262.684 91.085 263.092 90.5425C263.5 90 266.249 97.1757 268.125 97.5878C270 98 268.613 94.0836 268.125 91.2974M173.516 42.2318C170.698 42.2318 187.104 57.3289 195.659 64.8775L210.252 74.4389C212.433 78.3236 217.197 85.8446 218.807 84.8513M173.516 42.2318C172.762 58.6709 177.972 96.38 204.844 115.704M218.807 84.8513C217.66 85.5331 216.648 86.0868 215.788 86.5166L205.723 100.104C205.723 105.793 205.415 111.071 204.844 115.704M204.844 115.704C204.152 121.317 203.076 125.983 201.697 129.291C199.181 135.33 202.201 143.885 193.142 171.563C185.896 193.706 220.317 210.648 238.434 216.351C262.254 220.88 315.63 228.932 338.578 224.906C367.262 219.874 415.07 147.911 417.083 134.324C419.095 120.736 427.147 86.0134 385.379 74.4389C385.379 70.3804 385.19 67.394 383.889 64.8775M383.889 64.8775C382.931 63.0254 381.37 61.4279 378.837 59.8447C373.804 56.6991 371.327 55.5198 365.752 52.7424C364.11 51.9242 362.199 50.9672 359.874 49.7804C358.609 49.1344 357.221 48.4203 355.688 47.6234M383.889 64.8775C394.372 42.3325 384.889 -0.878769 378.837 -19.6663C378.064 -20.3282 376.392 -21.1643 374.307 -20.972M374.307 -20.972C370.114 -8.96228 361.123 16.2648 358.707 21.0959C357.805 22.9011 356.677 24.9055 355.688 27.1551C354.191 30.5594 353.01 34.5252 353.403 39.2124C353.619 41.7892 354.311 44.5841 355.688 47.6234M260.576 76.4519C265.352 81.9441 267.413 87.2357 268.125 91.2974M268.125 91.2974C269.634 92.4716 273.157 94.4677 275.17 93.0587C276.227 92.3185 276.485 89.8597 275.868 86.5166M268.125 69.8259C272.501 75.612 275.016 81.9055 275.868 86.5166M275.868 86.5166C277.48 87.8586 281.209 90.5425 283.222 90.5425C284.285 90.5425 284.54 88.7446 284.289 86.5166M281.209 78.4649C282.661 79.627 283.946 83.4731 284.289 86.5166M284.289 86.5166C285.107 87.1876 287.248 88.5296 289.261 88.5296C290.183 88.5296 290.556 86.907 290.513 84.8513M287.248 76.4519C289.122 76.4519 290.439 81.2984 290.513 84.8513M290.513 84.8513C291.605 85.9615 294.092 87.8489 295.299 86.5166C296.067 85.6698 296.054 83.0819 295.856 80.4778M295.299 74.4389C295.299 75.4283 295.664 77.9606 295.856 80.4778M295.856 80.4778C297.012 81.3165 299.828 82.994 301.841 82.994C302.569 82.994 302.881 81.151 302.941 78.4649M301.841 61.8581C302.377 66.3554 303.049 73.7236 302.941 78.4649M302.941 78.4649C303.581 79.9746 305.565 82.994 308.384 82.994C309.58 82.994 310.544 80.2092 311.197 76.4519M310.9 56.8257C312.562 58.1554 312.467 69.1434 311.197 76.4519M311.197 76.4519C312.272 79.4713 315.127 85.007 317.945 82.994C319.131 82.1469 319.689 79.5885 319.851 76.4519M317.945 59.8447C318.946 61.8474 320.169 70.2719 319.851 76.4519M319.851 76.4519C319.383 78.4648 319.354 82.0881 322.977 80.4778C327.506 78.4649 326.104 58.3346 322.977 54.8123C322.977 50.7868 322.977 41.3889 322.977 37.1932M302.941 129.291C303.016 129.847 303.021 130.462 302.941 131.123M268.125 202.764C258.06 202.261 257.053 202.261 251.015 198.738C237.327 198.738 231.221 197.061 229.879 196.222C229.028 195.712 228.19 195.176 227.362 194.618M268.125 202.764C278.189 203.267 307.666 204.777 319.851 198.738M268.125 202.764C261.93 189.881 256.485 164.932 254.537 153.312M319.851 198.738C313.575 179.158 301.406 138.223 302.941 131.123M319.851 198.738C327.468 194.963 346.842 188.239 363.74 174.999M378.333 110.672C394.94 105.64 395.947 108.659 399.469 115.704C402.992 122.75 398.463 126.272 388.398 143.382C387.786 144.933 387.122 146.443 386.408 147.911M378.333 110.672C370.207 113.135 358.947 118.084 348.139 123.167M378.333 110.672C378.333 124.763 383.717 141.369 386.408 147.911M302.941 131.123C302.156 137.641 293.109 148.648 260.576 151.937C258.487 152.409 256.475 152.867 254.537 153.312M302.941 131.123C304.755 135.88 311.028 140.98 319.851 136.84C326.073 133.92 336.86 128.471 348.139 123.167M348.139 123.167C352.501 139.073 361.727 171.709 363.74 174.999M363.74 174.999C372.7 167.979 380.963 159.127 386.408 147.911M254.537 153.312C238.803 156.926 227.988 159.665 220.82 161.642M220.82 161.642C213.052 163.784 209.566 165.031 208.743 165.525C204.885 168.376 199.483 175.086 208.743 179.112C214.994 184.47 220.849 190.225 227.362 194.618M220.82 161.642C220.988 168.408 222.531 184.477 227.362 194.618M385.379 80.4778L407.018 51.7933M395.443 85.0069L416.076 63.871M210.252 145.899L177.039 143.886M208.743 159.989L171 165.525M327.506 86.5166C328.848 86.6843 331.633 84.5036 332.036 74.4389C332.539 61.8581 344.888 54.8123 349.146 54.8123C353.403 54.8123 365.752 51.2901 374.307 64.8775C378.837 86.5166 367.262 89.5362 355.688 91.2974C342.604 93.0587 332.036 82.4907 327.506 86.5166ZM255.544 112.685C252.524 107.653 247.492 97.5875 242.46 99.0976C235.917 96.5814 236.924 94.22 228.872 96.0781C222.33 97.5878 214.278 121.24 211.259 124.763C212.769 125.769 217.801 130.801 221.827 134.324C225.853 137.847 232.848 136.668 236.924 135.834C241 135 246.989 127.279 249.505 124.763C251.64 122.628 253.028 115.704 255.544 112.685Z" stroke="#435234" stroke-width="2" stroke-linecap="round"/>
<path d="M308.887 213.836C313.751 214.339 324.688 214.842 329.519 212.829C334.35 210.816 337.907 208.3 339.081 207.293" stroke="#435234" stroke-width="2" stroke-linecap="round"/>
<path d="M214.782 85.5103L204.717 99.0973L201.697 93.5621C201.697 93.5621 200.188 90.0394 199.181 88.5297C198.175 87.02 199.181 80.9811 198.175 79.4714C197.168 77.9617 193.646 75.4455 193.646 73.4326C193.646 71.4197 194.652 63.8711 194.652 63.8711L209.246 73.4326C211.419 77.3034 216.157 84.7848 217.784 83.8552C217.789 83.8518 217.795 83.8483 217.801 83.8449C217.795 83.8484 217.789 83.8519 217.784 83.8552C216.643 84.5323 215.637 85.0826 214.782 85.5103Z" fill="#435234" stroke="#435234" stroke-width="2"/>
<path d="M371.133 37.3932C372.341 25.7181 361.572 25.8323 356.036 27.3488C354.539 30.7531 353.358 34.719 353.751 39.4062C354.513 40.7481 356.64 43.432 359.055 43.432C362.075 43.432 358.37 47.0121 360.223 49.9741C362.547 51.1609 364.458 52.1179 366.101 52.9361C369.321 54.5525 373.146 51.6349 374.656 49.9741C375.662 47.6257 376.367 41.8217 371.133 37.3932Z" fill="#435234" stroke="#435234" stroke-width="2"/>
<ellipse cx="279.196" cy="127.782" rx="3.01942" ry="2.51618" fill="#435234"/>
<ellipse cx="273.146" cy="134.72" rx="2.51618" ry="3.01942" transform="rotate(10.1466 273.146 134.72)" fill="#435234"/>
<ellipse cx="267.879" cy="125.761" rx="3.01942" ry="2.36964" transform="rotate(-28.1864 267.879 125.761)" fill="#435234"/>
<ellipse cx="326.5" cy="116.711" rx="3.01942" ry="2.51618" fill="#435234"/>
<ellipse cx="318.438" cy="125.662" rx="2.51618" ry="3.01942" transform="rotate(10.1466 318.438 125.662)" fill="#435234"/>
<ellipse cx="316.19" cy="109.658" rx="3.01942" ry="2.36964" transform="rotate(-28.1864 316.19 109.658)" fill="#435234"/>
<path d="M285.336 105.899C284.269 99.8596 291.817 98.518 298.863 96.3373C309.431 93.8211 302.889 110.428 299.869 111.434C297.454 112.24 295.896 110.428 294.334 108.918C292.771 107.409 285.646 107.653 285.336 105.899Z" fill="#435234" stroke="#435234" stroke-width="2"/>
<path d="M230.382 115.704C226.356 104.432 230.55 101.781 232.898 102.117C235.314 102.117 236.253 104.465 236.421 105.64C238.434 113.691 241.554 129.292 237.93 129.292C233.401 129.292 234.911 129.292 230.382 115.704Z" fill="#435234" stroke="#435234" stroke-width="2"/>
<path d="M350.758 73.8965C344.669 63.5682 348.458 60.1965 350.903 60.0949C353.356 59.6516 354.726 61.7849 355.105 62.9069C358.578 70.4426 364.514 85.1862 360.835 85.8512C356.235 86.6824 357.768 86.4053 350.758 73.8965Z" fill="#435234" stroke="#435234" stroke-width="2"/>
<path d="M287.442 483.841C259.387 483.481 200.798 493.593 190.884 536.918C180.971 580.243 184.306 590.777 187.213 590.628M194.278 607.667C196.663 611.32 204.035 620.521 214.445 628.107M224.329 632.445C237.193 640.884 272.554 656.769 311.086 652.8M323.922 646.495C336.519 645.229 364.485 634.155 375.579 599.989C382.29 563.095 380.085 549.141 375.404 545.071M373.258 534.517C366.939 520.832 344.756 491.725 306.582 484.782M203.267 600.155C201.807 589.556 200.265 566.372 205.775 558.43M205.775 558.43C211.285 550.488 213.558 543.583 214.005 541.124C217.166 534.922 228.693 519.605 249.516 507.943C259.248 503.615 261.77 500.177 261.815 499C262.352 496.048 261.199 490.655 252.29 492.693C243.381 494.732 228.87 503.171 222.728 507.136C213.843 513.143 195.223 531.507 191.822 556.908C188.421 582.31 197.319 600.259 202.194 606.058M205.775 558.43C208.398 558.907 215.417 560.184 222.5 561.472M211.142 556.865C213.661 553.258 220.749 546.517 228.941 548.414L234.107 549.354M239.272 550.293L234.107 549.354M234.107 549.354C234.934 547.133 237.671 542.887 242 543.675C246.329 544.462 250.423 544.868 251.928 544.972M231.712 577.886C232.323 579.183 234.1 582.081 236.318 583.297M324.599 567.339C329.369 567.19 340.555 569.021 347.138 577.537C355.366 588.181 359.771 590.507 360.452 597.238M360.452 597.238C364.187 588.127 369.601 575.183 372.987 575.124C378.085 575.035 373.567 585.902 371.599 591.134C370.095 595.133 370.839 592.52 364.487 610.677C356.972 629.638 332.554 639.087 321.284 641.442C330.139 637.462 354.648 608.887 356.751 605.712C357.407 604.721 358.756 601.374 360.452 597.238ZM315.294 607.319C316.62 608.407 320.589 609.502 325.848 605.173M315.919 615.056C317.142 615.786 320.338 616.469 323.343 613.357M312.611 599.716C311.791 607.021 309.21 622.881 305.453 627.89C299.282 622.702 301.116 615.412 280.321 615.187M309.031 630.574C308.837 632.571 307.304 636.155 302.725 634.509C297.805 639.204 297.313 644.705 286.759 641.26C276.205 637.816 242.262 631.642 237.164 626.141C232.943 622.527 234.69 617.39 236.092 615.273C232.335 613.574 225.726 608.001 229.34 599.307C232.954 590.614 239.642 582.716 242.534 579.854L246.56 563.308C251.351 552.547 260.186 535.433 266.747 533.352M314.762 548.779C310.705 548.041 305.459 555.218 302.954 563.402C300.449 571.585 290.074 567.157 282.695 565.815C277.579 564.884 269.681 561.923 269.503 557.317C269.324 552.711 272.187 542.559 272.187 542.559C272.375 541.525 272.596 540.31 272.588 539.074M314.762 548.779C314.911 547.959 313.447 545.389 309.977 544.351C306.506 543.313 303.522 545.379 302.463 546.542M314.762 548.779C317.041 549.193 318.21 550.088 319.234 552.132M321.11 569.753C321.647 566.802 322.318 565.907 321.603 558.663C321.103 557.123 320.683 555.817 320.289 554.71M265.254 561.118C262.183 561.237 256.399 563.979 257.829 573.997C259.617 586.519 275.225 587.325 280.144 588.22M287.031 589.473C289.133 590.025 294.437 590.109 298.838 586.03M301.433 571.764C302.148 573.419 303.123 577.56 301.298 580.888M321.557 572.884C320.603 574.404 318.695 578.563 318.694 583.035C318.694 587.508 317.442 588.059 316.816 587.776M264.401 607.718C253.638 603.558 232.274 596.588 232.917 601.991C233.561 607.393 236.673 609.281 238.149 609.549C240.415 611.994 246.968 616.947 255.053 617.198C265.16 617.512 265.16 617.512 267.173 614.828C268.783 612.682 264.594 611.31 262.299 610.893M244.32 620.327C246.63 621.595 252.396 624.541 256.976 626.187C261.555 627.833 265.025 626.635 266.188 625.83M273.075 627.083C276.176 628.663 283.075 631.341 285.865 629.409M272.588 539.074C272.573 536.98 271.897 534.826 269.281 533.391C268.489 533.064 267.639 533.069 266.747 533.352M272.588 539.074C273.393 537.866 276.096 536.155 278.851 536.656C282.295 537.283 283.815 540.1 283.636 541.084M266.747 533.352C266.795 533.088 267.731 529.164 268.457 526.126M319.234 552.132C322.812 549.224 324.109 544.889 324.869 543.502C325.629 542.116 326.39 540.73 328.268 535.989C330.147 531.249 326.123 525.435 325.049 525.748C323.976 526.061 320.979 528.565 319.504 528.297C318.028 528.028 319.817 523.78 318.52 522.527C317.223 521.275 315.076 527.491 313.109 527.133C311.141 526.775 314.138 518.681 312.662 518.413C311.186 518.144 308.726 523.287 307.34 522.527C305.954 521.766 306.401 519.307 306.401 519.307C305.924 518.203 301.616 514.879 300.185 517.159C298.754 519.44 293.789 521.586 291.196 519.082C288.602 516.577 290.185 515.137 287.574 513.849C279.077 510.271 276.751 517.471 275.186 517.694C273.62 517.918 273.128 523.418 272.234 522.748C271.518 522.211 269.729 523.478 268.924 524.178C268.79 524.738 268.629 525.407 268.457 526.126M319.234 552.132C319.59 552.843 319.928 553.693 320.289 554.71M268.457 526.126C267.525 523.077 264.989 517.872 265.615 514.429C266.242 510.985 264.14 508.57 266.958 507.05C269.775 505.53 271.117 503.741 273.219 500.566C275.321 497.391 285.16 499.18 287.619 499.628C290.079 500.075 291.985 494.628 293.702 494.127C295.849 493.502 310.785 495.202 312.395 497.528C314.005 499.853 317.225 504.505 317.135 504.997C317.046 505.489 326.393 501.598 327.511 503.835C328.405 505.624 327.152 511.393 327.868 513.047C328.583 514.702 331.49 512.69 333.86 513.629C336.23 514.568 334.039 518.235 335.336 519.488C336.632 520.74 343.51 528.191 340.075 538.137C335.78 550.569 324.342 554.783 320.289 554.71M291.641 550.163C289.27 549.224 283.43 551.719 283.501 555.797C283.572 559.876 285.677 560.598 286.72 560.449C288.882 560.673 293.223 559.904 293.295 555.038C293.367 550.172 294.011 551.103 291.641 550.163ZM279.165 520.959C276.214 520.422 273.217 522.926 272.681 525.878C272.144 528.83 272.099 531.871 275.453 532.989C278.807 534.107 282.877 531.29 282.698 526.684C282.52 522.077 282.117 521.496 279.165 520.959ZM318.519 533.708C315.165 532.59 311.763 534.253 311.632 538.045C311.513 541.495 312.794 542.831 316.238 543.457C318.697 543.904 321.589 542.906 321.649 538.851C321.694 535.81 321.873 534.826 318.519 533.708ZM278.181 526.37C277.197 526.191 276.169 527.936 277.063 529.724C277.957 531.513 279.165 526.549 278.181 526.37ZM316.73 537.956C315.746 537.777 313.555 541.444 314.449 542.115C315.343 542.786 316.775 540.505 316.775 540.505C316.775 540.505 317.714 538.135 316.73 537.956Z" stroke="#435234" stroke-width="2"/>
<path d="M143.214 222.5C136.938 210.63 123.179 189.647 110.714 184.4M125.714 267C125.858 271.02 125.383 275.535 124.171 280M124.171 280C121.163 291.084 113.615 301.861 99.7142 304C80.2142 307 67.7142 297 66.2142 290.5C65.5099 296.838 49.1834 302.184 38.7142 296.235M124.171 280C125.852 280.667 129.914 280.2 132.714 273M66.2142 249.5C67.2142 248.833 69.5142 247.6 70.7142 248C72.2142 248.5 73.7142 249 73.7142 250.5M66.2142 210.5C62.7142 204.5 54.0142 193.8 47.2142 199C40.4142 204.2 40.7142 210.167 41.7142 212.5C43.3808 216.167 47.1142 223.8 48.7142 225M52.2142 210.5C52.8597 213.333 54.7071 219.5 56.9324 221.5M56.9324 221.5C63.2859 215.808 70.7636 212.5 73.7142 212.5C80.4411 197.701 84.3523 189.74 97.7142 185.009M56.9324 221.5C52.5194 225.453 48.6488 230.557 47.2142 236.5C44.4142 248.1 46.0475 255 47.2142 257C40.7142 257.167 28.2142 262.4 30.2142 282C30.9536 289.246 34.3173 293.737 38.7142 296.235M103.714 136.5C103.548 137.667 102.414 139.9 99.2142 139.5C95.2142 139 88.2142 138 85.2142 143.5C82.0142 147.1 80.7142 148 77.7142 149.5C74.7142 151 67.2142 154.1 69.2142 158.5C71.2142 162.9 83.2142 156.5 84.7142 156.5C86.2142 156.5 91.7142 156.5 93.2142 156.5C94.7142 156.5 97.7142 153.5 97.7142 153.5M108.714 139.5C110.881 138.833 115.714 138.5 117.714 142.5C119.714 146.5 126.881 144.167 130.214 142.5C131.214 142.167 133.414 141.9 134.214 143.5C135.214 145.5 136.214 146.5 133.214 151C130.571 154.964 119.005 165.912 112.869 168.122M107.214 167.5C106.714 167.667 106.714 168.1 110.714 168.5C111.31 168.56 112.04 168.421 112.869 168.122M84.7142 159.5C85.5475 162.833 88.4142 169.3 93.2142 168.5C93.733 168.414 94.2331 168.286 94.7142 168.122M103.214 156C102.757 160.568 99.797 166.387 94.7142 168.122M94.7142 168.122C94.7142 172.42 95.3142 181.816 97.7142 185.009M97.7142 185.009C99.2498 184.465 100.91 183.964 102.714 183.5C105.254 182.847 107.952 183.237 110.714 184.4M112.869 168.122C112.818 173.345 112.314 183.913 110.714 184.4M124.714 110C122.93 112.433 120.301 116.146 118.118 119.5M114.214 127C114.009 126.179 115.815 123.038 118.118 119.5M118.118 119.5C118.595 119.9 126.048 129 129.714 133.5M129.714 133.5L125.714 136.5M129.714 133.5L135.714 128M121.214 131L131.214 119.5M68.7142 121.5L78.7142 132M63.7142 132L68.7142 135.75M73.7142 139.5L68.7142 135.75M78.7142 111.5C79.5837 113.601 80.8314 116.654 81.964 119.5M84.7142 127C84.7142 126.548 83.4363 123.199 81.964 119.5M81.964 119.5L68.7142 135.75M97.7142 216C101.714 211.833 111.314 204.3 117.714 207.5C119.419 208.353 120.711 209.39 121.678 210.5M126.714 236.5L122.214 232.5L124.171 219C124.549 217.166 124.342 213.556 121.678 210.5M121.678 210.5C118.69 212 112.314 216 110.714 220M153.214 219C152.548 220.833 151.614 225.3 153.214 228.5C155.214 232.5 157.714 239.5 168.214 254C178.714 268.5 193.214 293.5 192.214 327.5C191.411 354.794 173.853 386.277 152.214 398.152M135.714 403C141.335 402.803 146.898 401.069 152.214 398.152M38.7142 296.235C35.2142 310.824 33.0142 349.3 52.2142 386.5M46.2142 313C45.5475 317.5 45.2142 326.8 49.2142 328C50.926 328.514 52.0274 327.824 52.7142 326.646M53.7142 321C53.8095 322.621 53.6322 325.07 52.7142 326.646M52.7142 326.646C53.7559 327.77 55.5694 328.902 56.7142 327.345M57.7142 323.5C57.592 325.455 57.2178 326.66 56.7142 327.345M56.7142 327.345C57.7142 329.063 61.6142 330.1 63.2142 324.5C65.2142 317.5 65.7142 314 65.7142 309M99.7142 316C99.0475 320.833 98.4142 330.6 101.214 331C102.41 331.171 103.222 330.497 103.761 329.5M104.714 325C104.714 326.242 104.484 328.162 103.761 329.5M103.761 329.5C103.912 330.667 104.814 332.8 107.214 332C108.254 331.653 108.956 330.668 109.418 329.5M110.214 325C110.214 326.133 110.022 327.973 109.418 329.5M109.418 329.5C109.85 331.5 111.614 334.4 115.214 330C117.212 327.558 120.492 322.059 123.478 316M130.214 295.5C130.492 299.948 127.216 308.413 123.478 316M123.478 316C128.557 319.333 138.414 332.5 137.214 358.5M52.2142 355.5C53.1718 366.777 58.8582 387.14 73.7142 397.221M133.714 385C130.302 392.167 116.725 405.8 89.7142 403C83.4722 402.353 78.1791 400.252 73.7142 397.221M73.7142 397.221C73.2142 403.814 73.1142 416.9 76.7142 416.5C78.0131 416.356 78.7869 415.643 79.2142 414.681M79.2142 409C79.6403 410.491 79.9711 412.977 79.2142 414.681M79.2142 414.681C79.7142 415.621 81.2142 417.5 83.2142 417.5C84.6293 417.5 85.7941 414.663 86.5315 412M87.2142 409C87.068 409.829 86.8362 410.899 86.5315 412M86.5315 412C87.0924 414.5 88.9142 419.2 91.7142 418C94.5142 416.8 95.5475 411.5 95.7142 409M152.214 398.152C152.548 406.434 152.514 422.8 149.714 422C147.964 421.5 147.089 420.75 146.652 419.5M146.214 414C146.214 416.5 146.214 418.25 146.652 419.5M146.652 419.5C146.173 421 144.714 423.8 142.714 423C141.4 422.474 140.5 421.81 140.015 420.5M139.714 415C139.477 417.609 139.577 419.318 140.015 420.5M140.015 420.5C139.415 421.667 137.814 423.8 136.214 423C134.214 422 133.714 418 133.714 416M182.714 376C188.048 379.5 199.014 382.4 200.214 366C201.714 345.5 196.214 336.5 203.714 331.5C209.714 327.5 213.714 326 216.214 327.5C218.714 329 215.214 336.5 211.714 343C208.214 349.5 211.214 371 209.214 374.5C207.214 378 197.314 389.5 187.714 387.5M179.5 260.5C182.833 264.833 190.3 276.4 193.5 288M193.5 298.5C194.833 302.167 197.4 311.3 197 318.5" stroke="#435234" stroke-width="2"/>
<ellipse cx="91.2142" cy="249.5" rx="2.5" ry="4" fill="#435234"/>
<path d="M105.714 128.5C105.714 132.5 104.988 133.5 104.091 133.5C103.195 133.5 102.468 132 102.793 128.5C102.793 126.291 103.195 125.5 104.091 125.5C104.988 125.5 105.714 126.291 105.714 128.5Z" fill="#435234"/>
<path d="M95.6564 127.875C95.6564 132.375 96.0586 133.5 94.7401 133.5C93.4215 133.5 92.3526 131.813 92.8301 127.875C92.8301 125.39 93.4215 124.5 94.7401 124.5C96.0586 124.5 95.6564 125.39 95.6564 127.875Z" fill="#435234"/>
<ellipse cx="55.2142" cy="248.5" rx="2.5" ry="4" transform="rotate(10.3333 55.2142 248.5)" fill="#435234"/>
<path d="M70.0076 261.846C67.7988 261.882 65.7733 258.296 65.741 256.295C65.7086 254.293 67.6816 254.633 69.8904 254.597C72.0993 254.562 74.2187 254.573 74.251 256.574C74.2834 258.576 72.2165 261.81 70.0076 261.846Z" fill="#435234"/>
<path d="M35.6179 448.12C34.1347 443.927 31.4014 435.556 32.3338 435.617C33.4994 435.692 36.3635 443.005 37.6526 445.946C38.684 448.299 38.478 447.549 40.1831 447.797C41.8883 448.046 41.686 444.59 41.0257 443.308C40.2004 441.705 38.68 434.377 40.1047 433.643C41.5294 432.909 41.4802 436.314 42.0305 437.383C42.5807 438.451 43.9988 444.706 45.4235 443.972C46.8482 443.239 46.3206 436.526 45.2202 434.389C44.1197 432.252 45.8089 431.156 46.694 430.25C47.5792 429.344 50.1256 432.539 48.8949 434.524C47.9104 436.113 49.4443 440.55 50.3343 442.57C51.1995 442.5 52.7951 441.573 52.2561 438.426C51.5822 434.492 55.0311 430.689 55.7434 430.322C56.4558 429.955 57.6533 432.718 56.4066 433.36C55.4093 433.873 54.8605 438.963 54.7108 441.443C55.4103 442.51 56.9832 444.193 57.6785 442.393C58.5477 440.143 61.9753 434.548 63.9449 434.435C65.9146 434.322 63.3987 441.25 62.6212 443.679C61.9992 445.621 63.513 445.848 64.3477 445.719C66.3913 444.291 70.7504 441.701 71.8381 442.763C73.1977 444.091 68.1354 447.824 66.09 449.102C64.4537 450.125 66.1525 451.849 67.2064 452.583L72.7485 451.532C73.1317 451.109 74.2413 450.493 75.6139 451.408C77.3297 452.552 71.7172 455.217 69.7582 456.226C68.191 457.033 69.2992 457.814 70.0492 458.104C72.3463 457.897 76.8215 458.041 76.3462 460.269C75.7521 463.053 70.4533 461.951 69.7409 462.318C69.0285 462.685 67.8577 462.161 68.8664 464.12C69.8752 466.079 73.6842 469.976 71.9843 470.176C70.2845 470.375 66.6536 466.386 65.1265 466.046C63.5994 465.706 65.5305 469.894 67.3274 470.32C69.1243 470.747 72.7658 475.631 71.9724 476.716C71.179 477.8 67.7474 475.512 66.7493 474.448C65.7512 473.385 60.3446 470.762 58.9199 471.495C57.4952 472.229 61.9196 475.133 63.1875 476.282C64.4554 477.432 67.8325 482.678 66.6722 483.05C65.512 483.422 64.8754 482.623 63.7802 480.934C62.6851 479.245 58.3418 475.623 56.9981 475.639C55.6545 475.655 56.3017 477.35 57.9524 480.555C59.6031 483.761 59.6243 485.552 58.286 486.016C56.9477 486.48 55.1136 482.918 55.281 481.931C55.4485 480.943 51.8933 475.789 50.7278 475.714C49.5622 475.638 50.749 477.505 50.959 480.101C51.127 482.177 49.5246 485.045 48.7023 486.22C47.5908 485.665 45.6171 484.429 46.6144 483.915C47.861 483.273 46.9121 478.805 46.4536 477.915C45.9951 477.024 43.3835 475.89 43.6799 478.216C43.9763 480.542 42.8479 483.601 42.0545 484.686C41.2611 485.77 39.0921 484.184 39.8855 483.099C40.6789 482.015 40.9062 478.518 39.3632 476.834C37.8202 475.15 37.8627 478.733 36.5563 481.884C35.2498 485.036 33.7932 483.082 33.4264 482.369C33.0596 481.657 35.5156 477.238 34.2637 477.432C33.0117 477.626 28.6179 484.845 26.8211 484.419C25.3836 484.078 25.9528 481.712 26.4171 480.571C27.2969 479.217 28.8579 476.385 28.0637 475.893C27.0709 475.278 26.11 477.35 25.5917 478.968C25.0734 480.587 21.5116 482.421 20.0709 481.811C18.6302 481.201 21.1075 478.574 22.7861 476.583C24.4647 474.592 25.7711 471.441 21.5023 474.09C17.2334 476.738 15.1561 475.33 13.9799 474.358C12.8037 473.387 17.1802 472.26 18.9665 471.79C20.3954 471.415 20.9724 469.706 21.0823 468.898C20.6543 468.067 19.5339 466.767 18.476 468.213C17.1536 470.02 16.7975 470.204 14.6338 469.065C12.4701 467.926 14.057 465.757 15.8485 465.735C17.2818 465.718 19.6584 464.675 20.6676 464.155C20.54 463.47 19.619 461.856 16.9556 460.884C13.6264 459.67 12.72 458.784 12.607 456.815C12.5166 455.239 14.9687 457.026 16.206 458.116C17.3122 458.222 20.0437 458.393 22.1202 458.225C24.1967 458.057 23.3168 455.881 22.6173 454.815C21.1354 453.249 18.4555 449.883 19.5911 448.938C21.0105 447.756 23.751 452.203 25.8229 453.164C27.4805 453.933 27.3881 451.682 27.1347 450.461C25.9279 449.43 23.6882 446.918 24.3836 445.118C25.2527 442.868 28.36 448.027 29.9947 449.889C31.3025 451.379 31.9139 450.553 32.0561 449.954C30.5042 447.524 27.721 442.498 29.0033 441.838C30.2855 441.178 32.9975 446.24 34.1932 448.854M51.4985 450.082C49.0035 451.216 45.902 454.09 48.9282 459.967C51.5717 463.788 52.591 466.643 57.9603 466.131C63.3297 465.62 63.1157 455.14 60.7633 453.197C58.4109 451.254 54.1283 448.188 51.4985 450.082ZM32.7459 455.232C29.8083 456.82 24.0527 461.015 24.5311 465.095C25.1292 470.194 26.1486 473.049 31.0913 474.334C36.0339 475.619 40.336 468.222 40.0343 465.448C39.7326 462.674 38.385 454.807 32.7459 455.232Z" stroke="#435234" stroke-width="2"/>
<ellipse cx="33.9261" cy="464.087" rx="3.00472" ry="3.40534" transform="rotate(-27.2452 33.9261 464.087)" fill="#435234"/>
<ellipse cx="53.1107" cy="457.588" rx="2.20346" ry="2.8044" transform="rotate(-27.2452 53.1107 457.588)" fill="#435234"/>
<path d="M114.309 502.992C116.412 497.746 120.827 487.464 121.666 488.304C122.715 489.354 119.313 498.736 118.075 502.624C117.085 505.735 117.518 504.846 118.937 506.514C120.355 508.182 123.062 504.715 123.508 502.937C124.065 500.715 128.763 492.446 130.738 492.941C132.713 493.436 129.809 496.644 129.438 498.126C129.066 499.607 125.172 506.766 127.147 507.261C129.122 507.756 134.251 500.907 134.994 497.945C135.737 494.982 138.268 495.354 139.873 495.232C141.479 495.109 141.228 500.295 138.387 501.157C136.115 501.847 133.856 507.369 133.01 510.044C133.894 510.703 136.195 511.157 138.321 507.701C140.979 503.382 147.461 502.646 148.449 502.893C149.437 503.141 148.261 506.783 146.533 506.349C145.15 506.002 140.356 510.399 138.132 512.64C137.905 514.245 137.993 517.172 140.167 516.037C142.884 514.619 150.85 512.155 152.825 513.7C154.799 515.245 146.585 519.746 143.806 521.411C141.582 522.743 142.836 524.229 143.741 524.806C146.89 525.158 153.223 526.344 153.37 528.27C153.553 530.678 145.59 529.993 142.565 529.497C140.145 529.101 140.32 532.171 140.71 533.756L146.881 537.403C147.601 537.321 149.177 537.664 149.719 539.689C150.396 542.221 142.804 540.054 140.088 539.373C137.916 538.829 138.318 540.504 138.79 541.41C141.156 543.14 145.306 547.032 142.983 548.759C140.08 550.918 135.948 545.421 134.96 545.173C133.972 544.925 133.294 543.443 132.613 546.159C131.932 548.875 132.298 555.79 130.508 554.554C128.719 553.318 128.6 546.465 127.428 544.859C126.257 543.253 124.586 548.87 125.943 550.784C127.299 552.699 126.676 560.416 125.009 560.785C123.342 561.154 121.988 556.091 121.927 554.239C121.867 552.387 118.908 545.347 116.933 544.851C114.958 544.356 116.744 550.839 116.989 553C117.235 555.161 116.056 563.001 114.636 562.383C113.217 561.764 113.28 560.468 113.652 557.937C114.024 555.406 112.918 548.306 111.622 547.193C110.327 546.081 109.522 548.241 108.408 552.686C107.294 557.13 105.811 558.857 104.144 558.177C102.478 557.497 103.716 552.559 104.705 551.757C105.693 550.955 106.625 543.053 105.576 542.003C104.527 540.953 104.093 543.731 102.115 546.384C100.533 548.507 96.5978 549.899 94.8277 550.33C94.232 548.868 93.3862 546.032 94.7688 546.379C96.4971 546.812 99.3407 541.752 99.6503 540.517C99.9598 539.283 98.4188 536.01 96.7501 538.478C95.0814 540.946 91.4376 542.919 89.7704 543.288C88.1033 543.657 87.3649 540.323 89.032 539.954C90.6992 539.585 93.85 536.438 93.7903 533.537C93.7307 530.635 90.7649 534.09 86.8741 536.001C82.9833 537.912 83.2325 534.826 83.4802 533.838C83.7278 532.85 89.7795 530.694 88.422 529.829C87.0644 528.963 76.8138 532.166 75.457 530.251C74.3716 528.72 76.8999 526.939 78.2998 526.241C80.2758 525.686 84.1414 524.294 83.7965 523.158C83.3654 521.738 80.7099 522.909 78.857 524.019C77.0041 525.128 72.0661 523.89 71.2031 522.099C70.3401 520.308 74.9089 519.879 78.1813 519.388C81.4536 518.896 85.3444 516.985 79.0481 515.931C72.7517 514.877 71.9514 511.79 71.6441 509.876C71.3368 507.962 76.459 510.558 78.5573 511.609C80.2359 512.45 82.2205 511.303 83.003 510.625C83.292 509.473 83.3141 507.291 81.0912 507.784C78.3127 508.399 77.8189 508.275 76.7097 505.373C75.6006 502.47 78.9349 501.732 80.6624 503.215C82.0444 504.401 85.1881 505.399 86.5873 505.75C87.0405 504.989 87.5155 502.676 85.7892 499.514C83.6313 495.562 83.509 493.956 85.0538 491.982C86.2896 490.402 87.1307 494.165 87.3967 496.243C88.3631 497.273 90.8267 499.728 92.9493 501.31C95.0719 502.892 96.0576 500.077 96.2851 498.472C96.1842 495.735 96.4515 490.274 98.3283 490.325C100.674 490.388 99.5582 496.931 100.729 499.587C101.666 501.711 103.466 499.486 104.249 498.108C103.963 496.111 103.933 491.835 106.107 490.701C108.824 489.283 107.461 496.814 107.458 499.962C107.457 502.481 108.733 502.206 109.371 501.754C109.929 498.132 111.49 491.001 113.268 491.447C115.045 491.892 113.386 498.999 112.334 502.497M127.818 518.189C124.485 517.178 119.114 517.318 117.071 525.466C116.387 531.331 114.965 534.91 120.518 538.927C126.072 542.944 134.66 532.764 134.046 528.936C133.431 525.108 131.917 518.588 127.818 518.189ZM105.601 507.369C101.465 506.419 92.4523 505.594 89.4859 509.889C85.7778 515.257 84.3553 518.837 87.9939 524.21C91.6324 529.584 101.945 526.134 103.984 523.234C106.024 520.334 111.339 511.695 105.601 507.369Z" stroke="#435234" stroke-width="2"/>
<ellipse cx="99.297" cy="516.81" rx="3.81818" ry="4.32727" transform="rotate(14.0776 99.297 516.81)" fill="#435234"/>
<ellipse cx="123.058" cy="526.705" rx="2.8" ry="3.56363" transform="rotate(14.0776 123.058 526.705)" fill="#435234"/>
<path d="M333.391 268.57C336.413 263.025 342.66 252.195 343.481 253.238C344.507 254.541 339.502 264.504 337.618 268.656C336.112 271.978 336.709 271.048 338.064 273.085C339.419 275.122 342.877 271.629 343.605 269.715C344.515 267.323 350.812 258.764 352.939 259.572C355.066 260.381 351.423 263.56 350.816 265.155C350.21 266.75 344.949 274.182 347.076 274.991C349.203 275.799 355.792 268.873 357.005 265.683C358.218 262.493 360.978 263.238 362.775 263.312C364.572 263.387 363.614 269.108 360.349 269.692C357.737 270.16 354.506 275.99 353.217 278.847C354.111 279.694 356.604 280.5 359.417 276.945C362.932 272.5 370.222 272.534 371.285 272.938C372.349 273.343 370.567 277.229 368.706 276.521C367.217 275.955 361.321 280.205 358.56 282.4C358.097 284.151 357.811 287.41 360.372 286.436C363.573 285.219 372.735 283.53 374.723 285.503C376.711 287.476 367.006 291.393 363.704 292.876C361.062 294.062 362.259 295.876 363.188 296.635C366.635 297.439 373.506 299.585 373.417 301.742C373.304 304.437 364.558 302.633 361.267 301.686C358.634 300.928 358.425 304.358 358.65 306.168L365.019 311.023C365.829 311.027 367.533 311.614 367.868 313.932C368.288 316.83 360.148 313.431 357.224 312.319C354.884 311.43 355.111 313.341 355.517 314.408C357.914 316.639 362.008 321.502 359.205 323.113C355.7 325.128 351.836 318.486 350.773 318.081C349.71 317.677 349.152 315.944 348.04 318.868C346.928 321.792 346.426 329.512 344.603 327.906C342.779 326.3 343.547 318.681 342.457 316.745C341.368 314.809 338.777 320.823 340.031 323.125C341.286 325.428 339.582 333.908 337.684 334.099C335.786 334.29 334.947 328.494 335.123 326.431C335.299 324.368 332.94 316.169 330.813 315.36C328.686 314.551 329.817 321.98 329.806 324.41C329.795 326.84 327.459 335.384 325.965 334.511C324.471 333.639 324.711 332.209 325.456 329.449C326.201 326.69 325.905 318.666 324.613 317.262C323.321 315.858 322.146 318.15 320.326 322.935C318.507 327.72 316.635 329.442 314.875 328.469C313.115 327.495 315.137 322.179 316.339 321.419C317.54 320.658 319.611 312.013 318.585 310.71C317.559 309.407 316.713 312.433 314.17 315.117C312.137 317.265 307.587 318.294 305.567 318.54C305.097 316.84 304.531 313.582 306.02 314.148C307.88 314.855 311.699 309.614 312.205 308.284C312.71 306.955 311.429 303.121 309.254 305.641C307.079 308.161 302.777 309.872 300.879 310.063C298.981 310.254 298.599 306.458 300.497 306.267C302.395 306.076 306.304 302.998 306.618 299.77C306.933 296.543 303.189 299.988 298.621 301.598C294.053 303.208 294.734 299.816 295.139 298.752C295.543 297.689 302.541 296.09 301.148 294.952C299.755 293.814 287.961 296.023 286.707 293.721C285.703 291.879 288.742 290.235 290.387 289.643C292.652 289.287 297.124 288.249 296.891 286.943C296.599 285.311 293.498 286.262 291.297 287.251C289.095 288.239 283.779 286.217 283.056 284.117C282.333 282.017 287.459 282.14 291.155 282.024C294.85 281.908 299.418 280.298 292.57 278.302C285.722 276.307 285.239 272.776 285.149 270.612C285.059 268.448 290.402 272.001 292.592 273.442C294.344 274.595 296.697 273.583 297.654 272.933C298.126 271.692 298.436 269.275 295.905 269.53C292.742 269.848 292.21 269.646 291.36 266.28C290.51 262.914 294.306 262.532 296.029 264.404C297.407 265.902 300.764 267.422 302.27 267.994C302.873 267.209 303.703 264.706 302.203 260.97C300.327 256.302 300.402 254.504 302.375 252.516C303.953 250.926 304.393 255.211 304.415 257.552C305.353 258.821 307.764 261.868 309.912 263.902C312.06 265.936 313.522 262.942 313.985 261.191C314.232 258.141 315.245 252.116 317.321 252.418C319.916 252.797 317.819 259.91 318.77 263.01C319.531 265.491 321.821 263.258 322.87 261.831C322.814 259.578 323.342 254.83 325.903 253.856C329.104 252.639 326.603 260.816 326.188 264.309C325.855 267.104 327.307 266.966 328.075 266.548C329.169 262.603 331.836 254.895 333.75 255.623C335.664 256.351 332.891 264.018 331.265 267.761M346.5 287.5C342.934 285.941 336.844 285.096 333.508 293.869C331.981 300.286 329.933 304.072 335.568 309.257C341.203 314.443 352.068 304.273 351.888 299.945C351.708 295.617 350.996 288.48 346.5 287.5ZM323.155 272.285C318.691 270.688 308.799 268.59 304.944 272.966C300.125 278.437 298.077 282.222 301.41 288.662C304.742 295.102 316.637 292.626 319.28 289.676C321.924 286.726 328.955 277.837 323.155 272.285Z" stroke="#435234" stroke-width="2"/>
<ellipse cx="314.922" cy="281.933" rx="4.26605" ry="4.83486" transform="rotate(20.8191 314.922 281.933)" fill="#435234"/>
<ellipse cx="339.989" cy="296.029" rx="3.12844" ry="3.98165" transform="rotate(20.8191 339.989 296.029)" fill="#435234"/>
</g>
<defs>
<clipPath id="clip0_118_183">
<rect width="393" height="852" fill="white"/>
</clipPath>
</defs>
</svg>
