<svg width="1137" height="741" viewBox="0 0 1137 741" fill="none" xmlns="http://www.w3.org/2000/svg">
<g clip-path="url(#clip0_416_16)">
<rect width="1137" height="741" fill="#5C694D"/>
<path d="M270.099 629.027C319.816 629.054 420.731 628.955 426.658 628.345M420.473 598.06L450.924 587.665M425.382 607.213L454.594 601.513M430.064 622.155L458.099 619.57M278.566 601.428L245.911 587.492M275.665 608.165C273.998 607.678 250.468 605.591 238.912 604.609M275.312 617.111L244.584 621.17M336.588 586.849C342.108 584.958 356.257 582.564 368.687 588.114M313.434 585.936C314.593 593.214 310.607 599.704 306.982 602.548C301.279 604.607 289.45 606.073 287.76 595.466C286.693 588.769 291.231 583.763 296.311 581.045M313.434 585.936C312.589 580.632 305.819 578.568 304.758 578.743C302.429 578.651 299.278 579.458 296.311 581.045M313.434 585.936C312.264 588.877 308.362 594.275 302.114 592.342C295.865 590.409 295.642 584.006 296.311 581.045M387.344 585.687C388.902 583.06 391.579 580.539 395.94 578.647C396.866 578.245 397.757 577.933 398.612 577.702M387.344 585.687C384.764 590.038 385.253 594.68 386.247 597.238C388.011 601.524 394.093 609.459 404.313 606.91C414.532 604.361 415.748 593.13 415.078 587.834C413.649 583.09 408.453 575.045 398.612 577.702M387.344 585.687C389.489 588.231 395.182 592.531 400.787 589.379C406.393 586.226 405.204 584.282 405.308 581.651C404.844 580.052 401.592 576.98 398.612 577.702M269.488 591.056C272.261 583.084 280.725 565.358 292.39 558.228C287.016 547.475 283.138 538.89 286.052 518.45C288.965 498.01 301.351 477.944 305.055 477.563C308.76 477.182 319.845 504.909 322.506 516.197C324.764 525.773 324.855 536.845 322.315 547.812C327.092 546.947 331.028 546.048 338.184 546.33C336.294 540.809 335.218 527.977 346.041 520.814C344.507 516.959 344.585 513.202 344.815 511.806C345.094 509.182 346.596 504.076 350.368 504.646C354.14 505.217 355.646 508.895 355.928 510.663L359.612 510.808C361.105 508.583 364.706 504.579 367.166 506.362C369.625 508.146 368.602 514.5 367.783 517.455C371.651 521.823 378.446 533.054 374.681 543.024C380.186 542.398 387.781 544.946 390.89 546.298C390.451 539.605 390.599 524.257 394.703 516.407C399.833 506.596 416.739 478.802 423.054 479.05C428.106 479.249 431.697 500.473 432.861 511.059C433.242 514.764 432.86 524.446 428.285 533.542C423.711 542.637 415.205 553.405 411.524 557.652C417.239 564.202 429.197 579.957 431.308 590.581M363.495 492.515L364.858 484.663M371.388 492.826C371.809 492.842 373.133 488.678 373.742 486.594M377.052 496.211L380.396 491.6M340.888 598.086C340.95 596.508 345.01 592.451 350.062 592.65C355.114 592.849 358.399 595.087 358.884 596.16C359.368 597.233 355.18 604.552 350.111 604.774C345.043 604.996 340.826 599.665 340.888 598.086ZM345.336 538.706C343.919 539.001 341.165 540.228 341.487 542.77C341.889 545.949 343.952 547.084 345.531 547.146C347.109 547.208 349.824 545.207 348.875 542.535C347.926 539.862 347.967 538.809 345.336 538.706ZM364.291 537.872C362.874 538.167 360.626 539.941 360.947 542.483C361.349 545.661 362.907 546.25 364.486 546.312C366.064 546.374 369.882 544.416 368.934 541.744C367.985 539.071 366.922 537.975 364.291 537.872Z" stroke="#414A38" stroke-width="2.5"/>
<circle cx="351.684" cy="524.726" r="2.6598" transform="rotate(2.25662 351.684 524.726)" fill="#414A38" stroke="#414A38"/>
<circle cx="362.209" cy="525.141" r="2.6598" transform="rotate(2.25662 362.209 525.141)" fill="#414A38" stroke="#414A38"/>
<path d="M1067.72 552.933C1043.95 562.029 1028.75 552.882 1021.87 546.844C1013.86 539.809 1002.29 506.397 1022.32 481.777C1054.81 450.562 1081.37 470.346 1089.08 481.777C1099.02 495.845 1111.16 528.555 1080.18 546.844C1075.79 549.434 1071.64 551.432 1067.72 552.933ZM1067.72 552.933C1066.68 553.98 1065.85 556.779 1070.83 559.593C1077.06 563.11 1080.63 570.584 1078.4 593.885C1076.17 617.186 1080.18 627.297 1063.27 625.099M1063.27 625.099C1062.67 626.418 1060.15 628.792 1054.81 627.737C1048.13 626.418 1048.58 627.737 1048.58 612.789C1048.58 597.842 1052.58 595.643 1060.6 595.643C1063.32 595.643 1064.65 597.724 1065.18 600.919M1063.27 625.099C1064.15 617.552 1066.19 607.129 1065.18 600.919M1065.49 572.342L1065.18 600.919M1029.88 552.933C1025.88 556.765 1017.86 565.836 1017.86 571.463C1013.86 578.058 1012.97 579.377 1012.52 584.213C1012.14 588.366 1011.99 611.971 1016.55 619.392M1027.14 601.798C1026.77 604.48 1026.54 607.804 1026.32 611.91C1025.43 629.056 1027.66 626.418 1034.78 626.418C1041.19 626.418 1039.68 626.418 1042.79 626.418C1045.91 626.418 1047.24 591.247 1037.89 591.247C1031.89 591.247 1029.19 592.698 1027.79 598.281M1027.14 601.798C1026.13 607.367 1026.46 622.901 1019.2 621.582C1018.17 621.396 1017.3 620.613 1016.55 619.392M1027.14 601.798C1027.32 600.475 1027.54 599.308 1027.79 598.281M1027.79 598.281V580.256M1058.37 487.492C1057.78 491.302 1057.92 498.835 1063.27 498.483M1016.55 619.392H993.705L995.979 608.024C996.168 605.182 991.431 617.119 990.294 614.276C989.158 611.434 990.863 597.402 988.589 595.643C986.315 593.885 983.473 602.453 985.747 614.276C982.109 610.639 979.494 606.887 978.358 608.024C977.221 609.161 983.473 620.529 983.473 620.529H853.5" stroke="#414A38" stroke-width="2"/>
<ellipse cx="9.30029" cy="7.95409" rx="9.30029" ry="7.95409" transform="matrix(0.771563 -0.636153 0.645492 0.763767 1028.1 490.092)" fill="#414A38"/>
<ellipse cx="4.10137" cy="4.98857" rx="4.10137" ry="4.98857" transform="matrix(0.743391 0.668858 -0.677958 0.735101 1039.32 526.62)" fill="#414A38"/>
<ellipse cx="11.8636" cy="10.5259" rx="11.8636" ry="10.5259" transform="matrix(0.0818654 -0.996643 0.996805 0.0798788 1069.94 530.923)" fill="#414A38"/>
<path d="M975.821 203.369C987.88 199.684 989.503 196.775 998.737 188.73C1000.59 187.923 1002.28 187.18 1003.83 186.491M975.821 203.369C970.799 196.785 961.884 180.452 966.393 167.79C972.031 151.963 956.368 133.837 956.878 127.935C957.018 126.319 957.509 125.043 958.162 124.053M975.821 203.369C974.848 204.586 973.816 205.87 972.738 207.215M943.04 301.268C942.588 294.52 941.704 286.933 940.191 278.659C935.72 254.208 958.287 225.254 972.738 207.215M943.04 301.268C935.881 305.596 920.228 314.168 914.891 313.828C900.318 320.131 896.071 327.728 895.139 328.893C894.369 329.49 877.385 335.317 875.471 337.713M943.04 301.268C943.829 313.06 943.296 322.293 942.48 328.164M943.04 301.268C952.817 304.875 973.655 310.525 977.483 302.927C977.984 301.934 984.414 303.332 985.537 300.875C986.66 298.418 977.592 295.094 977.408 294.379C977.224 293.664 985.192 296.202 986.817 294.887C988.442 293.573 984.169 292.091 981.469 290.613M875.471 337.713C873.556 340.109 897.538 336.419 909.769 334.274L927.814 328.363C932.599 329.148 942.23 330.208 942.48 328.164M875.471 337.713C888.935 349.524 924.536 370.716 959.224 360.999M942.48 328.164C942.28 329.603 942.063 330.839 941.844 331.862L946.557 349.651C951.395 353.517 955.672 357.366 959.224 360.999M959.224 360.999C963.525 365.4 966.762 369.486 968.638 372.906C972.063 379.148 981.388 382.394 998.766 408.901C1012.67 430.107 1050.46 412.353 1067.62 400.825C1087.65 383.65 1130.77 343.739 1142.94 321.493C1158.15 293.686 1129.45 204.144 1119.26 193.201C1109.08 182.257 1085.02 151.819 1046.8 179.467C1043.35 176.709 1040.69 174.84 1037.66 174.237M1037.66 174.237C1035.44 173.793 1033.02 174.035 1029.95 175.113C1023.86 177.255 1021.17 178.559 1015.02 181.412C1013.21 182.252 1011.1 183.227 1008.51 184.397C1007.1 185.034 1005.55 185.728 1003.83 186.491M1037.66 174.237C1025.62 150.006 982.435 128.709 962.349 121.089C961.261 121.296 959.415 122.15 958.162 124.053M958.162 124.053C965.523 135.778 980.863 160.563 983.329 165.9C984.25 167.894 985.188 170.214 986.429 172.584C988.306 176.17 990.875 179.868 995.128 182.719C997.466 184.286 1000.31 185.596 1003.83 186.491M963.718 286.944C971.633 286.615 977.532 288.458 981.469 290.613M981.469 290.613C983.493 290.127 987.584 288.489 987.753 285.82C987.842 284.418 985.927 282.528 982.665 280.782M963.213 276.024C971.106 276.235 978.166 278.372 982.665 280.782M982.665 280.782C984.902 280.322 989.717 278.976 991.085 277.264C991.807 276.36 990.452 274.922 988.387 273.622M979.448 270.77C981.424 270.324 985.567 271.845 988.387 273.622M988.387 273.622C989.514 273.382 992.109 272.474 993.476 270.762C994.103 269.978 992.977 268.558 991.2 267.198M981.84 264.268C983.114 262.674 988.129 264.847 991.2 267.198M991.2 267.198C992.886 267.024 996.18 266.192 995.868 264.26C995.67 263.032 993.461 261.285 991.112 259.684M985.599 256.054C986.441 256.726 988.841 258.137 991.112 259.684M991.112 259.684C992.611 259.271 995.95 258.016 997.318 256.305C997.813 255.686 996.457 254.169 994.215 252.292M979.348 241.944C983.535 244.544 990.257 248.979 994.215 252.292M994.215 252.292C995.933 252.774 999.848 253.139 1001.76 250.742C1002.58 249.726 1000.86 247.014 998.112 243.906M981.224 230.823C983.484 230.314 992.762 237.86 998.112 243.906M998.112 243.906C1001.41 245.043 1008.06 246.377 1008.26 242.613C1008.35 241.029 1006.55 238.816 1003.99 236.548M988.578 226.884C990.961 227.394 998.955 232.078 1003.99 236.548M1003.99 236.548C1005.39 238.313 1008.45 240.8 1009.54 236.625C1010.91 231.406 992.837 218.922 987.718 219.186C984.296 216.451 976.306 210.066 972.738 207.215M1037.43 286.826C1037.95 287.141 1038.48 287.554 1038.99 288.07M1076.24 366.35C1068.97 374.565 1068.29 375.421 1061.19 378.161C1051.89 389.799 1046.32 393.851 1044.69 394.422C1043.68 394.798 1042.65 395.147 1041.62 395.471M1076.24 366.35C1083.51 358.134 1104.82 334.098 1107.96 319.635M1076.24 366.35C1061.08 362.863 1036.17 350.54 1024.96 344.302M1107.96 319.635C1087.05 311.668 1043.98 294.201 1038.99 288.07M1107.96 319.635C1109.93 310.594 1117.37 289.553 1117.6 266.191M1072.82 210.076C1079.83 192.537 1083.08 193.733 1091.46 195.525C1099.85 197.317 1099.76 203.561 1107.47 223.744C1108.38 225.317 1109.21 226.908 1109.97 228.512M1072.82 210.076C1069.4 218.658 1065.95 231.594 1062.93 244.237M1072.82 210.076C1084.8 219.65 1102.58 226.356 1109.97 228.512M1038.99 288.07C1043.99 293.167 1047.2 308.338 1027.9 338.233C1026.88 340.33 1025.9 342.352 1024.96 344.302M1038.99 288.07C1044.26 289.761 1052.86 287.893 1055.34 277.579C1057.08 270.305 1059.78 257.43 1062.93 244.237M1062.93 244.237C1079.42 251.337 1113.43 265.667 1117.6 266.191M1117.6 266.191C1117.72 253.803 1115.81 240.762 1109.97 228.512M1024.96 344.302C1017.34 360.135 1012.33 371.19 1009.14 378.628M1009.14 378.628C1005.68 386.688 1004.37 390.498 1004.23 391.535C1004.03 396.753 1006.07 405.904 1015.78 400.767C1024.59 399.092 1033.46 398.024 1041.62 395.471M1009.14 378.628C1015 383.083 1029.71 392.688 1041.62 395.471M1051.94 183.57L1042.25 145.682M1062.63 178.09L1058.68 146.187M988.57 376.916L964.292 403.787M999.525 387.774L978.587 423.624M1017.75 236.877C1018.81 235.85 1018.84 232.001 1010.56 224.82C1000.21 215.844 1002.61 200.557 1005.5 196.938C1008.39 193.318 1013.79 180.425 1031.15 182.383C1052.63 193.235 1047.33 205.128 1040.96 216.165C1033.57 228.486 1017.41 230.291 1017.75 236.877ZM991.105 315.841C984.775 314.989 972.798 312.429 970.663 317.734C964.078 321.586 962.754 319.126 958.863 327.235C955.702 333.823 970.341 356.739 971.284 361.699C973.166 361.1 980.863 360.24 986.594 359.211C992.324 358.182 996.075 351.433 998.135 347.401C1000.2 343.369 997.7 333.031 997.27 329.182C996.906 325.916 991.962 320.032 991.105 315.841Z" stroke="#414A38" stroke-width="2" stroke-linecap="round"/>
<path d="M1113.35 339.215C1117.08 335.421 1124.94 326.464 1126.51 320.989C1128.08 315.514 1128.36 310.781 1128.3 309.098" stroke="#414A38" stroke-width="2" stroke-linecap="round"/>
<path d="M940.304 332.034L945.017 349.823L938.26 348.629C938.26 348.629 934.239 347.519 932.271 347.349C930.304 347.179 925.853 342.22 923.886 342.05C921.919 341.88 917.386 343.166 915.674 341.798C913.963 340.43 908.229 334.446 908.229 334.446L926.274 328.534C931.041 329.317 940.621 330.372 940.936 328.357C940.937 328.35 940.938 328.342 940.939 328.335C940.939 328.342 940.938 328.35 940.936 328.357C940.737 329.786 940.521 331.016 940.304 332.034Z" fill="#414A38"/>
<path d="M940.304 332.034L945.017 349.823L938.26 348.629C938.26 348.629 934.239 347.519 932.271 347.349C930.304 347.179 925.853 342.22 923.886 342.05C921.919 341.88 917.386 343.166 915.674 341.798C913.963 340.43 908.229 334.446 908.229 334.446L926.274 328.534C931.058 329.32 940.69 330.379 940.939 328.335C940.739 329.774 940.522 331.011 940.304 332.034Z" stroke="#414A38" stroke-width="2"/>
<path d="M1005.63 166.408C996.522 157.448 989.302 166.682 986.83 172.419C988.707 176.005 991.276 179.703 995.529 182.554C997.187 182.818 1000.91 182.833 1002.56 180.779C1004.61 178.212 1005.13 183.794 1008.91 184.232C1011.5 183.062 1013.61 182.087 1015.42 181.247C1018.99 179.607 1019.1 174.373 1018.72 171.961C1017.4 169.509 1012.95 164.967 1005.63 166.408Z" fill="#414A38" stroke="#414A38" stroke-width="2"/>
<ellipse cx="1020.01" cy="305.989" rx="3.28621" ry="2.73851" transform="rotate(-51.3699 1020.01 305.989)" fill="#414A38"/>
<ellipse cx="1021.8" cy="315.847" rx="2.73851" ry="3.28621" transform="rotate(-41.2233 1021.8 315.847)" fill="#414A38"/>
<ellipse cx="1010.6" cy="314.238" rx="3.28621" ry="2.57902" transform="rotate(-79.5563 1010.6 314.238)" fill="#414A38"/>
<ellipse cx="1042.74" cy="258.248" rx="3.28621" ry="2.73851" transform="rotate(-51.3699 1042.74 258.248)" fill="#414A38"/>
<ellipse cx="1044.87" cy="271.185" rx="2.73851" ry="3.28621" transform="rotate(-41.2233 1044.87 271.185)" fill="#414A38"/>
<ellipse cx="1029.74" cy="262.221" rx="3.28621" ry="2.57902" transform="rotate(-79.5563 1029.74 262.221)" fill="#414A38"/>
<path d="M1005.58 285.9C999.717 282.704 1003.71 275.374 1006.64 267.903C1011.68 257.208 1021.35 274.054 1020.16 277.305C1019.2 279.906 1016.6 279.999 1014.26 280.302C1011.91 280.605 1007.28 286.828 1005.58 285.9Z" fill="#414A38" stroke="#414A38" stroke-width="2"/>
<path d="M976.576 339.286C964.257 335.049 964.853 329.683 966.734 327.914C968.375 325.861 971.01 326.658 972.122 327.313C980.336 331.072 995.719 339.019 993.258 342.1C990.18 345.951 991.206 344.667 976.576 339.286Z" fill="#414A38" stroke="#414A38" stroke-width="2"/>
<path d="M1022.82 208.534C1009.9 206.692 1009.61 201.18 1011.18 199.033C1012.47 196.646 1015.22 196.93 1016.43 197.371C1025.2 199.538 1041.77 204.508 1039.83 208.089C1037.41 212.564 1038.22 211.072 1022.82 208.534Z" fill="#414A38" stroke="#414A38" stroke-width="2"/>
<path d="M188.784 281.052C189.209 269.637 187.998 248.323 181.046 239.154M156.96 306.396C155.356 309.419 153.085 312.544 150.293 315.318M150.293 315.318C143.361 322.206 133.215 326.935 122.063 322.598C106.419 316.513 101.463 303.827 103.123 298.4C99.9077 302.77 85.6038 299.764 80.4206 290.927M150.293 315.318C151.248 316.524 154.439 317.909 159.565 313.795M120.564 268.191C121.585 268.125 123.804 268.194 124.518 269C125.41 270.006 126.303 271.013 125.665 272.118M137.155 239.455C137.128 233.545 135.27 221.96 128.047 222.899C120.825 223.838 118.508 228.362 118.252 230.506C117.92 233.917 117.424 241.129 118.092 242.694M126.839 233.499C126.11 235.862 124.847 241.191 125.636 243.611M125.636 243.611C132.739 242.12 139.656 242.864 141.83 244.119C153.082 236.076 159.35 231.874 171.208 234.073M125.636 243.611C120.703 244.647 115.68 246.761 112.095 250.529C105.097 257.885 103.365 263.664 103.374 265.634C98.514 262.992 87.0776 261.53 80.2135 276.823C77.6757 282.476 78.2438 287.216 80.4206 290.927M196.264 200.883C195.645 201.672 193.86 202.836 191.673 201.18C188.938 199.11 184.206 195.395 179.656 198.171C175.766 199.462 174.426 199.573 171.577 199.402C168.729 199.231 161.884 198.324 161.486 202.417C161.088 206.51 172.652 206.899 173.757 207.537C174.862 208.175 178.915 210.515 180.02 211.153C181.125 211.791 184.612 210.857 184.612 210.857M198.672 205.221C200.552 205.651 204.255 207.462 204.027 211.26C203.799 215.058 210.073 216.387 213.238 216.577C214.116 216.757 215.851 217.496 215.759 219.016C215.645 220.915 215.957 222.077 211.832 224.116C208.199 225.913 195.019 229.059 189.558 228.077M185.656 225.213C185.217 225.124 185.032 225.443 187.809 227.439C188.223 227.736 188.82 227.945 189.558 228.077M172.481 209.747C171.677 212.558 171.038 218.542 174.915 219.995C175.334 220.152 175.757 220.27 176.181 220.354M187.601 215.038C185.321 218.21 180.664 221.238 176.181 220.354M176.181 220.354C174.353 223.521 170.798 230.699 171.208 234.073M171.208 234.073C172.571 234.325 174.007 234.663 175.534 235.088C177.683 235.687 179.505 237.123 181.046 239.154M189.558 228.077C187.298 231.904 182.432 239.476 181.046 239.154M223.011 190.291C220.661 191.325 217.144 192.942 214.109 194.485M208.042 198.35C208.24 197.658 210.907 196.112 214.109 194.485M214.109 194.485C214.29 194.983 215.91 204.858 216.698 209.733M216.698 209.733L212.474 210.242M216.698 209.733L223.458 208.233M211.498 204.275L223.759 200.056M176.857 174.942L179.759 186.933M168.706 180.552L170.795 185.442M172.884 190.332L170.795 185.442M188.479 171.828C188.226 173.746 187.846 176.527 187.47 179.105M186.306 185.801C186.499 185.468 186.982 182.457 187.47 179.105M187.47 179.105L170.795 185.442M158.024 256.907C162.744 255.539 173.022 254.072 176.377 259.153C177.27 260.506 177.781 261.82 178.021 263.049M170.671 284.349L169.057 279.487L176.242 270.373C177.3 269.182 178.683 266.434 178.021 263.049M178.021 263.049C175.181 262.883 168.782 263.118 165.901 265.385M197.641 282.727C196.37 283.795 193.782 286.689 193.6 289.727C193.372 293.525 192.236 299.746 193.805 314.897C195.373 330.047 195.422 354.636 180.221 379.262C168.019 399.031 141.689 414.759 120.694 414.303M106.474 410.856C110.699 413.102 115.536 414.191 120.694 414.303M80.4206 290.927C71.636 300.187 53.6472 327.601 51.9692 363.178M78.8151 306.47C76.4096 309.502 72.2078 316.213 74.6446 318.798C75.6874 319.905 76.7921 319.866 77.7995 319.29M80.938 315.555C80.3188 316.79 79.146 318.519 77.7995 319.29M77.7995 319.29C78.089 320.561 78.9434 322.167 80.4492 321.507M82.8217 319.099C81.8999 320.487 81.1115 321.216 80.4492 321.507M80.4492 321.507C80.455 323.198 82.8877 325.621 86.4488 322.175C90.9002 317.868 92.7575 315.502 94.8845 311.818M116.958 331.439C114.411 334.717 109.79 341.644 111.683 343.13C112.491 343.764 113.376 343.613 114.197 343.108M116.814 340.198C116.286 341.112 115.299 342.43 114.197 343.108M114.197 343.108C113.812 344.032 113.569 345.987 115.678 346.419C116.592 346.606 117.528 346.179 118.365 345.514M120.866 342.537C120.384 343.372 119.46 344.646 118.365 345.514M118.365 345.514C117.833 347.172 117.899 350.059 122.423 348.348C124.935 347.399 129.69 344.743 134.468 341.548M148.152 329.309C146.464 332.705 140.449 337.549 134.468 341.548M134.468 341.548C136.792 346.165 138.454 360.06 126.509 378.706M65.1565 340.337C61.0648 349.054 56.5925 366.476 63.2497 380.224M112.657 396.743C107.095 400.572 91.2913 404.841 72.5806 391.288C68.2567 388.156 65.2505 384.356 63.2497 380.224M63.2497 380.224C60.0768 384.869 54.4365 394.468 57.2591 395.705C58.2776 396.151 59.151 395.955 59.8749 395.428M62.2916 391.242C61.9712 392.522 61.1575 394.494 59.8749 395.428M59.8749 395.428C59.8436 396.333 60.1494 398.356 61.623 399.207C62.6657 399.809 64.7308 398.214 66.4069 396.565M68.1861 394.645C67.7259 395.194 67.0997 395.884 66.4069 396.565M66.4069 396.565C65.7567 398.646 65.0997 402.884 67.6732 403.191C70.2468 403.498 73.2627 400.032 74.449 398.261M120.694 414.303C117.416 420.548 110.429 432.592 108.707 430.811C107.63 429.698 107.304 428.774 107.514 427.666M109.531 423.428C108.468 425.27 107.723 426.559 107.514 427.666M107.514 427.666C106.523 428.568 104.257 430.011 103.124 428.57C102.379 427.624 101.998 426.752 102.198 425.58M104.316 421.4C103.032 423.221 102.379 424.523 102.198 425.58M102.198 425.58C101.26 426.184 99.1729 427.075 98.3343 425.805C97.2861 424.218 98.6193 421.058 99.4701 419.584M152.59 410.956C155.031 415.804 161.877 422.606 169.738 411.032C179.564 396.566 179.34 387.595 186.993 387.101C193.115 386.706 196.701 387.303 197.905 389.472C199.109 391.64 193.339 395.677 187.995 398.978C182.651 402.278 175.716 419.396 172.753 421.124C169.791 422.852 157.604 427.114 151.382 421.556M199.355 324.487C199.968 329.098 200.549 340.797 197.972 350.705M193.505 358.441C192.928 361.71 190.934 369.532 187.576 374.667" stroke="#414A38" stroke-width="2"/>
<ellipse cx="138.984" cy="278.825" rx="2.12699" ry="3.40319" transform="rotate(30 138.984 278.825)" fill="#414A38"/>
<path d="M201.141 195.839C199.439 198.786 198.478 199.214 197.818 198.833C197.158 198.452 197.26 197.037 198.988 194.596C199.928 192.969 200.561 192.557 201.221 192.938C201.882 193.32 202.081 194.211 201.141 195.839Z" fill="#414A38"/>
<path d="M193.996 191.101C192.082 194.416 191.9 195.416 190.928 194.855C189.957 194.294 189.887 192.596 191.914 189.898C192.971 188.067 193.785 187.663 194.757 188.224C195.728 188.785 195.054 189.269 193.996 191.101Z" fill="#414A38"/>
<ellipse cx="112.884" cy="262.775" rx="2.12699" ry="3.40318" transform="rotate(40.3333 112.884 262.775)" fill="#414A38"/>
<path d="M118.107 278.901C116.464 277.988 116.497 274.484 117.324 272.996C118.152 271.507 119.461 272.597 121.104 273.51C122.747 274.424 124.303 275.333 123.476 276.822C122.648 278.311 119.749 279.814 118.107 278.901Z" fill="#414A38"/>
<path d="M82.2649 482.802C81.0179 479.276 78.7198 472.238 79.5038 472.289C80.4837 472.353 82.8918 478.501 83.9757 480.974C84.8428 482.952 84.6696 482.321 86.1032 482.53C87.5369 482.739 87.3668 479.834 86.8117 478.756C86.1178 477.408 84.8394 471.247 86.0373 470.63C87.2352 470.013 87.1938 472.876 87.6564 473.774C88.119 474.673 89.3113 479.931 90.5092 479.314C91.7071 478.698 91.2634 473.054 90.3382 471.257C89.413 469.46 90.8332 468.539 91.5774 467.777C92.3216 467.015 94.4626 469.701 93.4279 471.371C92.6001 472.706 93.8897 476.437 94.638 478.136C95.3655 478.077 96.707 477.298 96.2538 474.651C95.6873 471.344 98.587 468.146 99.1859 467.838C99.7848 467.529 100.792 469.852 99.7435 470.392C98.905 470.824 98.4436 475.103 98.3177 477.188C98.9058 478.085 100.228 479.5 100.813 477.987C101.544 476.095 104.425 471.391 106.081 471.296C107.737 471.201 105.622 477.026 104.969 479.068C104.446 480.701 105.718 480.892 106.42 480.783C108.138 479.582 111.803 477.405 112.718 478.298C113.861 479.414 109.605 482.553 107.885 483.628C106.509 484.488 107.938 485.937 108.824 486.554L113.483 485.67C113.805 485.315 114.738 484.797 115.892 485.566C117.335 486.528 112.616 488.769 110.969 489.617C109.651 490.295 110.583 490.952 111.214 491.196C113.145 491.022 116.908 491.143 116.508 493.016C116.009 495.357 111.553 494.431 110.955 494.739C110.356 495.048 109.371 494.607 110.219 496.254C111.067 497.902 114.27 501.178 112.841 501.345C111.412 501.513 108.359 498.16 107.075 497.874C105.791 497.588 107.415 501.108 108.925 501.467C110.436 501.826 113.498 505.932 112.831 506.844C112.164 507.756 109.278 505.832 108.439 504.938C107.6 504.044 103.054 501.838 101.857 502.455C100.659 503.072 104.379 505.513 105.445 506.48C106.511 507.446 109.35 511.857 108.374 512.17C107.399 512.483 106.864 511.811 105.943 510.391C105.022 508.971 101.371 505.926 100.241 505.939C99.1111 505.952 99.6553 507.377 101.043 510.072C102.431 512.768 102.449 514.274 101.324 514.664C100.198 515.054 98.6563 512.059 98.7971 511.229C98.9379 510.399 95.9488 506.065 94.9689 506.002C93.9889 505.938 94.9867 507.508 95.1633 509.69C95.3045 511.436 93.9572 513.847 93.2659 514.835C92.3314 514.369 90.672 513.329 91.5105 512.897C92.5586 512.358 91.7608 508.601 91.3753 507.852C90.9898 507.103 88.794 506.15 89.0432 508.106C89.2924 510.061 88.3437 512.634 87.6766 513.545C87.0095 514.457 85.1859 513.123 85.853 512.211C86.5201 511.299 86.7112 508.359 85.4139 506.944C84.1165 505.528 84.1523 508.54 83.0539 511.19C81.9555 513.839 80.7308 512.197 80.4224 511.598C80.114 510.999 82.1789 507.283 81.1263 507.447C80.0737 507.61 76.3796 513.679 74.8688 513.321C73.6602 513.034 74.1388 511.045 74.5291 510.086C75.2689 508.947 76.5814 506.566 75.9136 506.153C75.0789 505.635 74.271 507.377 73.8352 508.738C73.3994 510.099 70.4048 511.641 69.1935 511.128C67.9822 510.616 70.0651 508.406 71.4763 506.733C72.8876 505.059 73.9861 502.409 70.3969 504.636C66.8078 506.863 65.0613 505.679 64.0724 504.862C63.0835 504.045 66.7631 503.098 68.2649 502.703C69.4663 502.388 69.9514 500.951 70.0438 500.272C69.684 499.573 68.742 498.479 67.8526 499.695C66.7407 501.215 66.4413 501.369 64.6221 500.411C62.803 499.454 64.1372 497.63 65.6434 497.612C66.8485 497.598 68.8467 496.72 69.6952 496.284C69.5879 495.707 68.8135 494.351 66.5742 493.534C63.7751 492.512 63.013 491.768 62.918 490.112C62.8421 488.787 64.9037 490.289 65.944 491.206C66.8741 491.295 69.1706 491.439 70.9165 491.298C72.6623 491.156 71.9225 489.327 71.3344 488.43C70.0885 487.114 67.8353 484.284 68.79 483.489C69.9834 482.496 72.2876 486.235 74.0296 487.043C75.4232 487.689 75.3455 485.797 75.1325 484.77C74.1179 483.903 72.2348 481.791 72.8194 480.278C73.5502 478.386 76.1627 482.724 77.5372 484.289C78.6367 485.542 79.1507 484.848 79.2703 484.344C77.9655 482.301 75.6255 478.075 76.7036 477.52C77.7816 476.965 80.0618 481.221 81.0671 483.419M95.6169 484.451C93.5192 485.405 90.9115 487.821 93.4559 492.763C95.6784 495.975 96.5355 498.375 101.05 497.945C105.564 497.515 105.384 488.704 103.406 487.07C101.429 485.437 97.8279 482.859 95.6169 484.451ZM79.8502 488.781C77.3804 490.116 72.5412 493.644 72.9435 497.074C73.4463 501.361 74.3034 503.761 78.4591 504.842C82.6147 505.922 86.2318 499.703 85.9781 497.371C85.7245 495.039 84.5914 488.424 79.8502 488.781Z" stroke="#414A38" stroke-width="2"/>
<ellipse cx="80.8429" cy="496.227" rx="2.52628" ry="2.86311" transform="rotate(-27.2452 80.8429 496.227)" fill="#414A38"/>
<ellipse cx="96.9726" cy="490.763" rx="1.8526" ry="2.35786" transform="rotate(-27.2452 96.9726 490.763)" fill="#414A38"/>
<path d="M147.207 528.233C148.975 523.822 152.688 515.177 153.393 515.884C154.275 516.767 151.414 524.655 150.374 527.924C149.541 530.539 149.905 529.792 151.098 531.194C152.291 532.597 154.566 529.681 154.941 528.187C155.41 526.318 159.36 519.366 161.02 519.782C162.681 520.199 160.239 522.896 159.927 524.142C159.615 525.387 156.34 531.406 158.001 531.822C159.662 532.239 163.974 526.48 164.599 523.989C165.223 521.498 167.351 521.811 168.701 521.708C170.051 521.606 169.84 525.966 167.452 526.691C165.541 527.27 163.641 531.913 162.93 534.162C163.674 534.716 165.608 535.098 167.396 532.192C169.63 528.561 175.081 527.942 175.911 528.15C176.742 528.358 175.753 531.42 174.3 531.056C173.138 530.764 169.107 534.46 167.237 536.345C167.046 537.694 167.12 540.155 168.948 539.201C171.233 538.009 177.93 535.937 179.59 537.236C181.25 538.535 174.344 542.319 172.007 543.719C170.138 544.839 171.192 546.089 171.953 546.574C174.6 546.87 179.925 547.867 180.048 549.486C180.203 551.511 173.507 550.935 170.964 550.518C168.93 550.184 169.077 552.766 169.404 554.098L174.593 557.165C175.198 557.096 176.523 557.384 176.979 559.087C177.548 561.215 171.165 559.394 168.882 558.821C167.055 558.363 167.393 559.772 167.791 560.533C169.779 561.988 173.268 565.261 171.316 566.713C168.875 568.528 165.4 563.906 164.57 563.697C163.74 563.489 163.17 562.243 162.597 564.527C162.024 566.81 162.332 572.624 160.827 571.584C159.323 570.545 159.223 564.784 158.238 563.433C157.253 562.083 155.848 566.806 156.988 568.415C158.129 570.025 157.605 576.513 156.204 576.824C154.802 577.134 153.663 572.877 153.612 571.32C153.562 569.763 151.074 563.843 149.414 563.427C147.753 563.011 149.254 568.462 149.461 570.279C149.667 572.095 148.676 578.687 147.483 578.167C146.289 577.647 146.342 576.557 146.655 574.429C146.968 572.301 146.038 566.331 144.948 565.396C143.859 564.461 143.183 566.277 142.246 570.014C141.309 573.75 140.062 575.203 138.661 574.631C137.26 574.059 138.301 569.907 139.132 569.233C139.963 568.559 140.747 561.915 139.865 561.032C138.983 560.149 138.618 562.485 136.955 564.716C135.625 566.5 132.316 567.671 130.828 568.033C130.327 566.804 129.616 564.42 130.779 564.711C132.232 565.076 134.622 560.821 134.883 559.783C135.143 558.745 133.847 555.993 132.444 558.068C131.041 560.144 127.978 561.802 126.576 562.113C125.174 562.423 124.553 559.62 125.955 559.309C127.357 558.999 130.006 556.354 129.956 553.914C129.906 551.474 127.412 554.379 124.141 555.986C120.87 557.593 121.079 554.998 121.287 554.167C121.496 553.337 126.584 551.524 125.442 550.796C124.301 550.069 115.682 552.762 114.542 551.152C113.629 549.864 115.755 548.367 116.932 547.78C118.593 547.314 121.843 546.143 121.553 545.188C121.191 543.994 118.958 544.978 117.4 545.912C115.842 546.845 111.691 545.804 110.965 544.298C110.24 542.792 114.081 542.431 116.832 542.018C119.583 541.605 122.855 539.998 117.561 539.112C112.267 538.226 111.594 535.63 111.336 534.021C111.078 532.411 115.384 534.595 117.148 535.478C118.56 536.185 120.228 535.221 120.886 534.65C121.129 533.682 121.148 531.848 119.279 532.262C116.943 532.779 116.527 532.675 115.595 530.235C114.662 527.794 117.466 527.173 118.918 528.42C120.08 529.418 122.723 530.257 123.9 530.552C124.281 529.912 124.68 527.968 123.229 525.309C121.414 521.986 121.312 520.636 122.61 518.976C123.649 517.648 124.357 520.811 124.58 522.559C125.393 523.425 127.464 525.489 129.249 526.819C131.033 528.149 131.862 525.782 132.053 524.433C131.969 522.132 132.193 517.54 133.771 517.583C135.744 517.636 134.805 523.137 135.79 525.37C136.578 527.156 138.091 525.285 138.749 524.126C138.508 522.448 138.483 518.853 140.311 517.899C142.596 516.707 141.449 523.038 141.447 525.685C141.446 527.803 142.519 527.572 143.055 527.192C143.525 524.147 144.837 518.151 146.332 518.526C147.826 518.901 146.431 524.876 145.547 527.817M158.565 541.01C155.763 540.16 151.247 540.278 149.529 547.129C148.955 552.059 147.759 555.069 152.428 558.446C157.097 561.823 164.318 553.264 163.801 550.046C163.285 546.827 162.011 541.346 158.565 541.01ZM139.886 531.913C136.409 531.115 128.831 530.421 126.337 534.031C123.219 538.545 122.023 541.555 125.082 546.073C128.142 550.591 136.812 547.69 138.527 545.252C140.241 542.814 144.71 535.55 139.886 531.913Z" stroke="#414A38" stroke-width="2"/>
<ellipse cx="134.586" cy="539.851" rx="3.21021" ry="3.63824" transform="rotate(14.0776 134.586 539.851)" fill="#414A38"/>
<ellipse cx="154.563" cy="548.17" rx="2.35416" ry="2.9962" transform="rotate(14.0776 154.563 548.17)" fill="#414A38"/>
<path d="M878.877 164.279C881.232 158.405 886.176 146.891 887.116 147.832C888.29 149.008 884.48 159.513 883.095 163.867C881.986 167.351 882.471 166.356 884.059 168.223C885.648 170.091 888.679 166.208 889.178 164.217C889.802 161.729 895.063 152.469 897.274 153.024C899.486 153.579 896.234 157.171 895.818 158.83C895.402 160.489 891.041 168.505 893.253 169.06C895.465 169.614 901.208 161.945 902.04 158.627C902.872 155.309 905.706 155.726 907.504 155.589C909.301 155.452 909.021 161.259 905.84 162.225C903.295 162.997 900.765 169.18 899.818 172.175C900.809 172.913 903.385 173.422 905.766 169.553C908.742 164.715 916.001 163.891 917.107 164.169C918.213 164.446 916.896 168.524 914.961 168.038C913.413 167.65 908.045 172.573 905.554 175.083C905.299 176.88 905.398 180.157 907.833 178.887C910.876 177.299 919.796 174.54 922.006 176.27C924.217 178 915.019 183.04 911.907 184.904C909.417 186.395 910.822 188.06 911.835 188.706C915.361 189.1 922.452 190.428 922.617 192.585C922.822 195.282 913.905 194.515 910.518 193.959C907.808 193.515 908.004 196.953 908.441 198.728L915.351 202.811C916.157 202.72 917.922 203.104 918.529 205.372C919.287 208.206 910.786 205.781 907.745 205.018C905.312 204.408 905.762 206.284 906.291 207.298C908.94 209.236 913.587 213.595 910.986 215.528C907.735 217.946 903.108 211.79 902.002 211.512C900.896 211.235 900.137 209.575 899.374 212.616C898.612 215.658 899.021 223.401 897.017 222.017C895.013 220.633 894.881 212.959 893.568 211.161C892.256 209.362 890.385 215.652 891.905 217.796C893.424 219.94 892.726 228.581 890.859 228.994C888.993 229.408 887.476 223.738 887.408 221.664C887.341 219.59 884.028 211.707 881.816 211.152C879.604 210.597 881.604 217.858 881.879 220.277C882.154 222.697 880.834 231.476 879.244 230.783C877.655 230.091 877.725 228.639 878.142 225.805C878.559 222.971 877.32 215.02 875.869 213.775C874.418 212.529 873.518 214.948 872.27 219.925C871.022 224.901 869.361 226.836 867.495 226.074C865.629 225.312 867.016 219.783 868.123 218.885C869.229 217.987 870.273 209.139 869.098 207.963C867.924 206.787 867.438 209.897 865.224 212.868C863.452 215.245 859.045 216.804 857.063 217.287C856.396 215.65 855.449 212.474 856.997 212.862C858.932 213.348 862.116 207.681 862.463 206.299C862.81 204.917 861.084 201.251 859.216 204.015C857.347 206.779 853.267 208.988 851.4 209.402C849.533 209.815 848.706 206.082 850.573 205.668C852.44 205.255 855.968 201.732 855.901 198.482C855.834 195.233 852.513 199.102 848.157 201.242C843.8 203.382 844.079 199.926 844.356 198.82C844.633 197.714 851.41 195.299 849.89 194.33C848.37 193.361 836.891 196.948 835.372 194.804C834.157 193.088 836.988 191.095 838.555 190.312C840.768 189.692 845.097 188.133 844.71 186.86C844.228 185.27 841.254 186.581 839.179 187.824C837.104 189.067 831.575 187.68 830.609 185.675C829.642 183.669 834.758 183.189 838.423 182.639C842.087 182.088 846.444 179.948 839.393 178.768C832.343 177.588 831.447 174.131 831.102 171.987C830.758 169.844 836.494 172.752 838.844 173.929C840.723 174.87 842.946 173.586 843.822 172.826C844.145 171.536 844.17 169.093 841.681 169.645C838.57 170.334 838.017 170.195 836.775 166.945C835.533 163.695 839.266 162.868 841.201 164.529C842.748 165.857 846.269 166.975 847.835 167.368C848.343 166.515 848.875 163.926 846.942 160.385C844.525 155.959 844.388 154.161 846.118 151.95C847.502 150.182 848.444 154.395 848.742 156.722C849.824 157.875 852.583 160.624 854.959 162.395C857.336 164.167 858.44 161.015 858.695 159.218C858.582 156.153 858.881 150.038 860.983 150.094C863.61 150.165 862.36 157.492 863.671 160.466C864.72 162.845 866.736 160.353 867.613 158.81C867.292 156.574 867.259 151.786 869.693 150.516C872.736 148.928 871.209 157.361 871.206 160.886C871.204 163.707 872.633 163.399 873.348 162.893C873.973 158.837 875.721 150.852 877.712 151.351C879.702 151.85 877.844 159.808 876.666 163.725M894.005 181.296C890.273 180.164 884.258 180.321 881.97 189.445C881.205 196.012 879.612 200.02 885.831 204.518C892.049 209.016 901.667 197.617 900.978 193.33C900.29 189.044 898.594 181.743 894.005 181.296ZM869.126 169.18C864.495 168.117 854.403 167.193 851.081 172.002C846.929 178.013 845.336 182.022 849.41 188.039C853.485 194.056 865.033 190.193 867.316 186.946C869.6 183.698 875.552 174.024 869.126 169.18Z" stroke="#414A38" stroke-width="2"/>
<ellipse cx="862.068" cy="179.752" rx="4.27551" ry="4.84558" transform="rotate(14.0776 862.068 179.752)" fill="#414A38"/>
<ellipse cx="888.675" cy="190.832" rx="3.13537" ry="3.99048" transform="rotate(14.0776 888.675 190.832)" fill="#414A38"/>
<path d="M782.451 236.31C780.767 232.191 777.632 223.956 778.567 223.972C779.736 223.991 782.95 231.162 784.38 234.039C785.524 236.341 785.282 235.602 786.998 235.768C788.714 235.934 788.346 232.49 787.624 231.24C786.722 229.678 784.85 222.427 786.239 221.625C787.627 220.824 787.742 224.229 788.343 225.271C788.945 226.312 790.663 232.495 792.051 231.693C793.44 230.891 792.59 224.207 791.387 222.124C790.185 220.041 791.82 218.866 792.661 217.917C793.502 216.969 796.201 220.04 795.067 222.083C794.159 223.718 795.905 228.079 796.892 230.056C797.753 229.944 799.304 228.941 798.614 225.821C797.751 221.922 801.015 217.955 801.709 217.554C802.404 217.153 803.733 219.857 802.518 220.558C801.546 221.12 801.242 226.232 801.212 228.719C801.962 229.751 803.615 231.358 804.224 229.526C804.984 227.235 808.141 221.478 810.104 221.27C812.067 221.063 809.886 228.108 809.226 230.573C808.697 232.544 810.221 232.698 811.049 232.528C813.023 231.003 817.255 228.205 818.393 229.214C819.816 230.476 814.936 234.45 812.953 235.827C811.367 236.927 813.148 238.569 814.237 239.252L819.725 237.934C820.088 237.494 821.167 236.824 822.583 237.673C824.353 238.734 818.872 241.667 816.962 242.77C815.435 243.652 816.58 244.379 817.343 244.633C819.629 244.316 824.109 244.245 823.741 246.494C823.281 249.305 817.932 248.459 817.238 248.86C816.544 249.261 815.348 248.793 816.451 250.703C817.553 252.612 821.547 256.324 819.858 256.605C818.169 256.886 814.348 253.074 812.805 252.807C811.263 252.541 813.394 256.633 815.21 256.973C817.027 257.313 820.901 262.02 820.161 263.142C819.42 264.264 815.88 262.142 814.831 261.127C813.783 260.112 808.253 257.75 806.864 258.552C805.475 259.354 810.037 262.043 811.36 263.131C812.682 264.219 816.31 269.3 815.168 269.728C814.026 270.155 813.351 269.388 812.176 267.752C811 266.116 806.485 262.706 805.143 262.786C803.801 262.867 804.529 264.529 806.333 267.654C808.137 270.778 808.244 272.568 806.929 273.096C805.614 273.624 803.609 270.152 803.729 269.157C803.849 268.162 800.048 263.182 798.879 263.162C797.711 263.142 798.987 264.952 799.321 267.536C799.589 269.603 798.126 272.546 797.36 273.76C796.223 273.259 794.191 272.118 795.163 271.557C796.378 270.855 795.214 266.435 794.713 265.567C794.212 264.699 791.548 263.692 791.956 266.002C792.364 268.313 791.383 271.425 790.642 272.547C789.901 273.669 787.657 272.187 788.398 271.065C789.139 269.943 789.198 266.437 787.575 264.828C785.952 263.22 786.166 266.799 785.012 270.011C783.858 273.223 782.308 271.341 781.907 270.646C781.507 269.952 783.749 265.417 782.507 265.671C781.265 265.926 777.221 273.352 775.404 273.012C773.951 272.74 774.406 270.348 774.815 269.186C775.63 267.79 777.054 264.885 776.236 264.431C775.214 263.864 774.354 265.981 773.914 267.624C773.473 269.267 770.002 271.271 768.532 270.731C767.063 270.19 769.413 267.445 770.995 265.375C772.577 263.304 773.731 260.092 769.592 262.944C765.453 265.797 763.309 264.489 762.086 263.574C760.864 262.66 765.184 261.323 766.947 260.768C768.357 260.325 768.851 258.589 768.922 257.776C768.455 256.966 767.272 255.72 766.284 257.216C765.05 259.086 764.703 259.287 762.485 258.252C760.268 257.218 761.75 254.974 763.539 254.867C764.971 254.781 767.296 253.623 768.28 253.055C768.119 252.377 767.121 250.808 764.412 249.965C761.027 248.911 760.078 248.07 759.871 246.107C759.704 244.536 762.241 246.204 763.53 247.234C764.641 247.287 767.379 247.326 769.446 247.059C771.514 246.791 770.53 244.659 769.779 243.626C768.223 242.133 765.382 238.897 766.472 237.898C767.834 236.649 770.787 240.962 772.904 241.822C774.597 242.511 774.397 240.266 774.085 239.058C772.829 238.085 770.47 235.683 771.078 233.85C771.839 231.559 775.192 236.566 776.916 238.349C778.294 239.775 778.866 238.92 778.979 238.315C777.311 235.96 774.288 231.071 775.538 230.35C776.787 229.628 779.741 234.557 781.062 237.112M798.417 237.507C795.978 238.761 793.016 241.783 796.323 247.511C799.149 251.203 800.305 254.007 805.647 253.237C810.989 252.467 810.271 242.004 807.826 240.175C805.382 238.346 800.954 235.488 798.417 237.507ZM779.922 243.556C777.063 245.284 771.512 249.754 772.186 253.809C773.029 258.877 774.185 261.681 779.187 262.728C784.189 263.774 788.133 256.174 787.698 253.416C787.263 250.659 785.538 242.86 779.922 243.556Z" stroke="#414A38" stroke-width="2"/>
<ellipse cx="781.528" cy="252.35" rx="3.00655" ry="3.40742" transform="rotate(-30 781.528 252.35)" fill="#414A38"/>
<ellipse cx="800.389" cy="244.932" rx="2.2048" ry="2.80611" transform="rotate(-30 800.389 244.932)" fill="#414A38"/>
<path d="M256.262 291.333C255.047 291.699 252.408 293.153 251.571 296.042C250.735 298.931 252.661 301.972 253.729 303.132C254.746 304.011 257.726 305.34 261.512 303.618M247.848 275.782C245.105 277.142 244.961 280.075 245.123 286.542C245.286 293.009 241.487 292.339 239.159 293.622C237.167 294.415 232.131 296.196 234.324 301.142C237.566 307.165 239.927 301.395 242.754 305.149C245.506 308.49 243.49 317.189 246.916 319.551C250.343 321.914 254.274 313.07 260.509 309.787C267.723 307.178 272.922 312.207 278.212 306.106C282.295 302.277 273.941 294.495 273.898 291.938C273.856 289.381 283.28 282.52 277.559 279.298C271.542 279.121 266.885 281.687 262.185 281.696C259.813 280.422 257.509 274.862 254.05 274.642C250.59 274.423 247.848 275.782 247.848 275.782Z" stroke="#414A38" stroke-width="2" stroke-linecap="round"/>
<path d="M259.268 158.5C258.439 158.286 256.407 158.199 254.912 159.573C253.417 160.946 253.463 163.376 253.672 164.419C253.95 165.282 255.204 167.093 257.991 167.427M259.864 146.581C257.806 146.405 256.694 148.046 254.522 151.833C252.35 155.621 250.393 153.903 248.6 153.827C247.173 153.587 243.644 152.849 243.176 156.471C242.935 161.081 246.32 158.58 246.635 161.736C247.051 164.628 242.84 168.939 243.988 171.503C245.137 174.066 250.504 170.342 255.251 170.633C260.326 171.657 261.563 176.379 266.753 174.713C270.45 173.936 268.357 166.52 269.229 165.03C270.1 163.54 277.941 162.885 275.77 159.021C272.362 156.811 268.776 156.659 266.062 155.017C265.14 153.451 265.759 149.436 263.841 148.097C261.922 146.758 259.864 146.581 259.864 146.581Z" stroke="#414A38" stroke-width="2" stroke-linecap="round"/>
<path d="M314.281 227.352C313.023 227.185 310.019 227.421 308.066 229.709C306.112 231.996 306.614 235.561 307.109 237.057C307.672 238.278 309.839 240.717 313.999 240.709M313.025 209.715C309.967 209.823 308.626 212.436 306.108 218.395C303.59 224.354 300.405 222.178 297.755 222.386C295.613 222.288 290.29 221.834 290.25 227.245C290.72 234.068 295.25 229.785 296.278 234.371C297.408 238.549 291.985 245.643 294.133 249.208C296.28 252.773 303.508 246.336 310.542 245.916C318.19 246.513 320.853 253.238 328.188 249.86C333.487 248.056 329.083 237.522 330.099 235.174C331.114 232.827 342.529 230.462 338.645 225.167C333.236 222.526 327.935 222.943 323.65 221.014C322.014 218.875 322.207 212.86 319.146 211.234C316.084 209.608 313.025 209.715 313.025 209.715Z" stroke="#414A38" stroke-width="2" stroke-linecap="round"/>
</g>
<defs>
<clipPath id="clip0_416_16">
<rect width="1137" height="741" fill="white"/>
</clipPath>
</defs>
</svg>
