<svg width="1137" height="741" viewBox="0 0 1137 741" fill="none" xmlns="http://www.w3.org/2000/svg">
<g clip-path="url(#clip0_406_403)">
<rect width="1137" height="741" fill="#5C694D"/>
<path d="M216.501 743.155C293.17 743.196 448.793 743.043 457.933 742.103M448.395 695.4L495.354 679.369M455.966 709.515L501.015 700.724M463.186 732.557L506.419 728.571M229.557 700.593L179.2 679.102M225.084 710.983C222.513 710.231 186.228 707.013 168.407 705.498M224.54 724.778L177.154 731.039M319.034 678.111C327.548 675.195 349.367 671.503 368.536 680.061M283.328 676.704C285.116 687.927 278.97 697.935 273.378 702.32C264.584 705.495 246.343 707.757 243.737 691.399C242.091 681.072 249.089 673.352 256.923 669.161M283.328 676.704C282.025 668.524 271.585 665.341 269.948 665.61C266.358 665.468 261.498 666.713 256.923 669.161M283.328 676.704C281.524 681.238 275.507 689.562 265.871 686.582C256.235 683.601 255.891 673.726 256.923 669.161M397.306 676.318C399.709 672.267 403.838 668.379 410.562 665.462C411.991 664.842 413.364 664.361 414.683 664.005M397.306 676.318C393.327 683.028 394.082 690.187 395.615 694.133C398.335 700.742 407.714 712.978 423.474 709.047C439.234 705.117 441.109 687.798 440.076 679.629C437.872 672.314 429.86 659.908 414.683 664.005M397.306 676.318C400.615 680.242 409.393 686.873 418.037 682.012C426.682 677.151 424.849 674.153 425.009 670.095C424.294 667.629 419.279 662.891 414.683 664.005M215.558 684.599C219.835 672.305 232.887 644.969 250.876 633.974C242.589 617.392 236.609 604.152 241.102 572.632C245.595 541.111 264.695 510.166 270.408 509.578C276.12 508.991 293.215 551.75 297.319 569.158C300.801 583.925 300.941 600.998 297.024 617.912C304.391 616.577 310.46 615.19 321.497 615.625C318.581 607.112 316.923 587.323 333.613 576.277C331.246 570.332 331.366 564.539 331.722 562.386C332.153 558.339 334.468 550.465 340.285 551.345C346.102 552.224 348.425 557.897 348.86 560.623L354.54 560.847C356.843 557.415 362.396 551.241 366.189 553.991C369.982 556.741 368.404 566.54 367.14 571.096C373.106 577.834 383.586 595.152 377.778 610.528C386.269 609.562 397.98 613.492 402.775 615.577C402.098 605.255 402.326 581.586 408.655 569.481C416.566 554.35 442.638 511.489 452.376 511.872C460.166 512.179 465.704 544.908 467.499 561.234C468.086 566.947 467.498 581.878 460.443 595.905C453.388 609.931 440.272 626.537 434.595 633.086C443.408 643.186 461.849 667.483 465.105 683.867M360.528 532.636L362.631 520.527M372.701 533.116C373.35 533.141 375.391 526.72 376.331 523.506M381.436 538.336L386.592 531.225M325.666 695.44C325.762 693.006 332.023 686.75 339.814 687.057C347.604 687.364 352.67 690.815 353.417 692.47C354.165 694.125 347.706 705.411 339.89 705.754C332.074 706.096 325.57 697.875 325.666 695.44ZM332.526 603.868C330.34 604.324 326.094 606.216 326.589 610.137C327.209 615.037 330.391 616.788 332.826 616.884C335.26 616.98 339.446 613.894 337.982 609.773C336.519 605.651 336.583 604.028 332.526 603.868ZM361.756 602.582C359.571 603.038 356.104 605.773 356.599 609.694C357.219 614.595 359.622 615.502 362.056 615.598C364.491 615.694 370.379 612.675 368.915 608.553C367.452 604.432 365.814 602.742 361.756 602.582Z" stroke="#414A38" stroke-width="2.5"/>
<circle cx="342.315" cy="582.309" r="4.37279" transform="rotate(2.25662 342.315 582.309)" fill="#414A38" stroke="#414A38"/>
<circle cx="358.546" cy="582.949" r="4.37279" transform="rotate(2.25662 358.546 582.949)" fill="#414A38" stroke="#414A38"/>
<path d="M1069.31 621.521C1042.42 631.816 1025.2 621.463 1017.42 614.629C1008.35 606.668 995.255 568.852 1017.92 540.988C1054.7 505.66 1084.76 528.051 1093.49 540.988C1104.74 556.91 1118.48 593.93 1083.41 614.629C1078.45 617.561 1073.75 619.822 1069.31 621.521ZM1069.31 621.521C1068.13 622.707 1067.19 625.874 1072.84 629.059C1079.89 633.039 1083.92 641.498 1081.4 667.87C1078.88 694.241 1083.41 705.686 1064.27 703.198M1064.27 703.198C1063.6 704.691 1060.74 707.378 1054.7 706.183C1047.14 704.691 1047.65 706.183 1047.65 689.266C1047.65 672.348 1052.18 669.86 1061.25 669.86C1064.33 669.86 1065.84 672.215 1066.43 675.831M1064.27 703.198C1065.27 694.656 1067.58 682.86 1066.43 675.831M1066.79 643.489L1066.43 675.831M1026.49 621.521C1021.95 625.858 1012.89 636.124 1012.89 642.493C1008.35 649.957 1007.35 651.45 1006.84 656.923C1006.41 661.623 1006.23 688.34 1011.4 696.739M1023.39 676.826C1022.97 679.861 1022.7 683.624 1022.46 688.271C1021.45 707.676 1023.97 704.691 1032.03 704.691C1039.28 704.691 1037.57 704.691 1041.1 704.691C1044.62 704.691 1046.14 664.884 1035.56 664.884C1028.76 664.884 1025.71 666.527 1024.12 672.846M1023.39 676.826C1022.24 683.129 1022.61 700.71 1014.4 699.217C1013.24 699.006 1012.24 698.12 1011.4 696.739M1023.39 676.826C1023.59 675.329 1023.83 674.008 1024.12 672.846M1024.12 672.846V652.445M1058.73 547.456C1058.06 551.769 1058.23 560.294 1064.27 559.896M1011.4 696.739H985.543L988.117 683.872C988.331 680.656 982.97 694.165 981.683 690.949C980.397 687.732 982.327 671.851 979.753 669.86C977.18 667.87 973.963 677.568 976.537 690.949C972.419 686.831 969.46 682.585 968.173 683.872C966.887 685.159 973.963 698.025 973.963 698.025H927" stroke="#414A38" stroke-width="2"/>
<ellipse cx="10.5259" cy="9.00231" rx="10.5259" ry="9.00231" transform="matrix(0.771563 -0.636153 0.645492 0.763767 1024.47 550.399)" fill="#414A38"/>
<ellipse cx="4.64187" cy="5.64599" rx="4.64187" ry="5.64599" transform="matrix(0.743391 0.668858 -0.677958 0.735101 1037.17 591.741)" fill="#414A38"/>
<ellipse cx="13.4271" cy="11.913" rx="13.4271" ry="11.913" transform="matrix(0.0818654 -0.996643 0.996805 0.0798788 1071.83 596.611)" fill="#414A38"/>
<path d="M1016.82 117.369C1028.88 113.684 1030.5 110.775 1039.74 102.73C1041.59 101.923 1043.28 101.18 1044.83 100.491M1016.82 117.369C1011.8 110.785 1002.88 94.452 1007.39 81.7902C1013.03 65.963 997.368 47.8373 997.878 41.935C998.018 40.3186 998.509 39.0435 999.162 38.0528M1016.82 117.369C1015.85 118.586 1014.82 119.87 1013.74 121.215M984.04 215.268C983.588 208.52 982.704 200.933 981.191 192.659C976.72 168.208 999.287 139.254 1013.74 121.215M984.04 215.268C976.881 219.596 961.228 228.168 955.891 227.828C941.318 234.131 937.071 241.728 936.139 242.893C935.369 243.49 918.385 249.317 916.471 251.713M984.04 215.268C984.829 227.06 984.296 236.293 983.48 242.164M984.04 215.268C993.817 218.875 1014.66 224.525 1018.48 216.927C1018.98 215.934 1025.41 217.332 1026.54 214.875C1027.66 212.418 1018.59 209.094 1018.41 208.379C1018.22 207.664 1026.19 210.202 1027.82 208.887C1029.44 207.573 1025.17 206.091 1022.47 204.613M916.471 251.713C914.556 254.109 938.538 250.419 950.769 248.274L968.814 242.363C973.599 243.148 983.23 244.208 983.48 242.164M916.471 251.713C929.935 263.524 965.536 284.716 1000.22 274.999M983.48 242.164C983.28 243.603 983.063 244.839 982.844 245.862L987.557 263.651C992.395 267.517 996.672 271.366 1000.22 274.999M1000.22 274.999C1004.53 279.4 1007.76 283.486 1009.64 286.906C1013.06 293.148 1022.39 296.394 1039.77 322.901C1053.67 344.107 1091.46 326.353 1108.62 314.825C1128.65 297.65 1171.77 257.739 1183.94 235.493C1199.15 207.686 1170.45 118.144 1160.26 107.201C1150.08 96.2571 1126.02 65.8188 1087.8 93.467C1084.35 90.7094 1081.69 88.8403 1078.66 88.2372M1078.66 88.2372C1076.44 87.7934 1074.02 88.0352 1070.95 89.1131C1064.86 91.2549 1062.17 92.5595 1056.02 95.4118C1054.21 96.2522 1052.1 97.2269 1049.51 98.3969C1048.1 99.0338 1046.55 99.7285 1044.83 100.491M1078.66 88.2372C1066.62 64.006 1023.43 42.7089 1003.35 35.0892C1002.26 35.2961 1000.41 36.1495 999.162 38.0528M999.162 38.0528C1006.52 49.7783 1021.86 74.5634 1024.33 79.8996C1025.25 81.8936 1026.19 84.2141 1027.43 86.5837C1029.31 90.1697 1031.88 93.8683 1036.13 96.7186C1038.47 98.2857 1041.31 99.5963 1044.83 100.491M1004.72 200.944C1012.63 200.615 1018.53 202.458 1022.47 204.613M1022.47 204.613C1024.49 204.127 1028.58 202.489 1028.75 199.82C1028.84 198.418 1026.93 196.528 1023.67 194.782M1004.21 190.024C1012.11 190.235 1019.17 192.372 1023.67 194.782M1023.67 194.782C1025.9 194.322 1030.72 192.976 1032.08 191.264C1032.81 190.36 1031.45 188.922 1029.39 187.622M1020.45 184.77C1022.42 184.324 1026.57 185.845 1029.39 187.622M1029.39 187.622C1030.51 187.382 1033.11 186.474 1034.48 184.762C1035.1 183.978 1033.98 182.558 1032.2 181.198M1022.84 178.268C1024.11 176.674 1029.13 178.847 1032.2 181.198M1032.2 181.198C1033.89 181.024 1037.18 180.192 1036.87 178.26C1036.67 177.032 1034.46 175.285 1032.11 173.684M1026.6 170.054C1027.44 170.726 1029.84 172.137 1032.11 173.684M1032.11 173.684C1033.61 173.271 1036.95 172.016 1038.32 170.305C1038.81 169.686 1037.46 168.169 1035.21 166.292M1020.35 155.944C1024.54 158.544 1031.26 162.979 1035.21 166.292M1035.21 166.292C1036.93 166.774 1040.85 167.139 1042.76 164.742C1043.58 163.726 1041.86 161.014 1039.11 157.906M1022.22 144.823C1024.48 144.314 1033.76 151.86 1039.11 157.906M1039.11 157.906C1042.41 159.043 1049.06 160.377 1049.26 156.613C1049.35 155.029 1047.55 152.816 1044.99 150.548M1029.58 140.884C1031.96 141.394 1039.95 146.078 1044.99 150.548M1044.99 150.548C1046.39 152.313 1049.45 154.8 1050.54 150.625C1051.91 145.406 1033.84 132.922 1028.72 133.186C1025.3 130.451 1017.31 124.066 1013.74 121.215M1078.43 200.826C1078.95 201.141 1079.48 201.554 1079.99 202.07M1117.24 280.35C1109.97 288.565 1109.29 289.421 1102.19 292.161C1092.89 303.799 1087.32 307.851 1085.69 308.422C1084.68 308.798 1083.65 309.147 1082.62 309.471M1117.24 280.35C1124.51 272.134 1145.82 248.098 1148.96 233.635M1117.24 280.35C1102.08 276.863 1077.17 264.54 1065.96 258.302M1148.96 233.635C1128.05 225.668 1084.98 208.201 1079.99 202.07M1148.96 233.635C1150.93 224.594 1158.37 203.553 1158.6 180.191M1113.82 124.076C1120.83 106.537 1124.08 107.733 1132.46 109.525C1140.85 111.317 1140.76 117.561 1148.47 137.744C1149.38 139.317 1150.21 140.908 1150.97 142.512M1113.82 124.076C1110.4 132.658 1106.95 145.594 1103.93 158.237M1113.82 124.076C1125.8 133.65 1143.58 140.356 1150.97 142.512M1079.99 202.07C1084.99 207.167 1088.2 222.338 1068.9 252.233C1067.88 254.33 1066.9 256.352 1065.96 258.302M1079.99 202.07C1085.26 203.761 1093.86 201.893 1096.34 191.579C1098.08 184.305 1100.78 171.43 1103.93 158.237M1103.93 158.237C1120.42 165.337 1154.43 179.667 1158.6 180.191M1158.6 180.191C1158.72 167.803 1156.81 154.762 1150.97 142.512M1065.96 258.302C1058.34 274.135 1053.33 285.19 1050.14 292.628M1050.14 292.628C1046.68 300.688 1045.37 304.498 1045.23 305.535C1045.03 310.753 1047.07 319.904 1056.78 314.767C1065.59 313.092 1074.46 312.024 1082.62 309.471M1050.14 292.628C1056 297.083 1070.71 306.688 1082.62 309.471M1092.94 97.5701L1083.25 59.6824M1103.63 92.0902L1099.68 60.1871M1029.57 290.916L1005.29 317.787M1040.52 301.774L1019.59 337.624M1058.75 150.877C1059.81 149.85 1059.84 146.001 1051.56 138.82C1041.21 129.844 1043.61 114.557 1046.5 110.938C1049.39 107.318 1054.79 94.425 1072.15 96.3834C1093.63 107.235 1088.33 119.128 1081.96 130.165C1074.57 142.486 1058.41 144.291 1058.75 150.877ZM1032.1 229.841C1025.77 228.989 1013.8 226.429 1011.66 231.734C1005.08 235.586 1003.75 233.126 999.863 241.235C996.702 247.823 1011.34 270.739 1012.28 275.699C1014.17 275.1 1021.86 274.24 1027.59 273.211C1033.32 272.182 1037.07 265.433 1039.14 261.401C1041.2 257.369 1038.7 247.031 1038.27 243.182C1037.91 239.916 1032.96 234.032 1032.1 229.841Z" stroke="#414A38" stroke-width="2" stroke-linecap="round"/>
<path d="M981.304 246.034L986.017 263.823L979.26 262.629C979.26 262.629 975.239 261.519 973.271 261.349C971.304 261.179 966.853 256.22 964.886 256.05C962.919 255.88 958.386 257.166 956.674 255.798C954.963 254.43 949.229 248.446 949.229 248.446L967.274 242.534C972.041 243.317 981.621 244.372 981.936 242.357C981.937 242.35 981.938 242.342 981.939 242.335C981.939 242.342 981.938 242.35 981.936 242.357C981.737 243.786 981.521 245.016 981.304 246.034Z" fill="#414A38"/>
<path d="M981.304 246.034L986.017 263.823L979.26 262.629C979.26 262.629 975.239 261.519 973.271 261.349C971.304 261.179 966.853 256.22 964.886 256.05C962.919 255.88 958.386 257.166 956.674 255.798C954.963 254.43 949.229 248.446 949.229 248.446L967.274 242.534C972.058 243.32 981.69 244.379 981.939 242.335C981.739 243.774 981.522 245.011 981.304 246.034Z" stroke="#414A38" stroke-width="2"/>
<path d="M1046.63 80.4077C1037.52 71.4481 1030.3 80.682 1027.83 86.4188C1029.71 90.0048 1032.28 93.7034 1036.53 96.5538C1038.19 96.818 1041.91 96.8332 1043.56 94.7794C1045.61 92.2123 1046.13 97.7942 1049.91 98.232C1052.5 97.062 1054.61 96.0873 1056.42 95.2469C1059.99 93.6069 1060.1 88.3728 1059.72 85.9608C1058.4 83.5094 1053.95 78.9668 1046.63 80.4077Z" fill="#414A38" stroke="#414A38" stroke-width="2"/>
<ellipse cx="1061.01" cy="219.989" rx="3.28621" ry="2.73851" transform="rotate(-51.3699 1061.01 219.989)" fill="#414A38"/>
<ellipse cx="1062.8" cy="229.847" rx="2.73851" ry="3.28621" transform="rotate(-41.2233 1062.8 229.847)" fill="#414A38"/>
<ellipse cx="1051.6" cy="228.238" rx="3.28621" ry="2.57902" transform="rotate(-79.5563 1051.6 228.238)" fill="#414A38"/>
<ellipse cx="1083.74" cy="172.248" rx="3.28621" ry="2.73851" transform="rotate(-51.3699 1083.74 172.248)" fill="#414A38"/>
<ellipse cx="1085.87" cy="185.185" rx="2.73851" ry="3.28621" transform="rotate(-41.2233 1085.87 185.185)" fill="#414A38"/>
<ellipse cx="1070.74" cy="176.221" rx="3.28621" ry="2.57902" transform="rotate(-79.5563 1070.74 176.221)" fill="#414A38"/>
<path d="M1046.58 199.9C1040.72 196.704 1044.71 189.374 1047.64 181.903C1052.68 171.208 1062.35 188.054 1061.16 191.305C1060.2 193.906 1057.6 193.999 1055.26 194.302C1052.91 194.605 1048.28 200.828 1046.58 199.9Z" fill="#414A38" stroke="#414A38" stroke-width="2"/>
<path d="M1017.58 253.286C1005.26 249.049 1005.85 243.683 1007.73 241.914C1009.38 239.861 1012.01 240.658 1013.12 241.313C1021.34 245.072 1036.72 253.019 1034.26 256.1C1031.18 259.951 1032.21 258.667 1017.58 253.286Z" fill="#414A38" stroke="#414A38" stroke-width="2"/>
<path d="M1063.82 122.534C1050.9 120.692 1050.61 115.18 1052.18 113.033C1053.47 110.646 1056.22 110.93 1057.43 111.371C1066.2 113.538 1082.77 118.508 1080.83 122.089C1078.41 126.564 1079.22 125.072 1063.82 122.534Z" fill="#414A38" stroke="#414A38" stroke-width="2"/>
<path d="M230.167 242.143C235.076 223.746 240.982 188.656 233.07 171.185M169.078 271.577C165.354 275.898 160.509 280.137 154.946 283.615M154.946 283.615C141.135 292.249 122.896 296.187 106.373 285.017C83.1943 269.347 79.8258 246.897 84.5289 238.689C77.6885 244.605 55.5506 234.434 50.3911 218.156M154.946 283.615C156.052 285.929 160.728 289.357 170.579 284.565M124.038 196.033C125.721 196.303 129.303 197.236 130.166 198.809C131.244 200.774 132.323 202.74 130.878 204.301M161.62 155.457C163.761 145.842 165.02 126.326 152.935 125.184C140.849 124.041 135.412 130.538 134.203 133.929C132.404 139.35 128.932 150.889 129.441 153.679M147.055 141.966C144.996 145.536 140.976 153.732 141.364 157.958M141.364 157.958C153.459 158.158 164.426 161.922 167.496 164.766C188.756 155.851 200.497 151.337 218.958 159.291M141.364 157.958C132.963 157.818 124.018 159.398 116.798 164.199C102.707 173.569 97.7569 182.322 97.0434 185.527C90.1202 179.436 72.0722 172.836 55.2656 195.155C49.0521 203.406 48.2242 211.32 50.3911 218.156M271.945 114.605C270.647 115.658 267.316 116.889 264.372 113.39C260.692 109.015 254.373 101.229 245.952 104.06C239.154 104.722 236.934 104.405 232.367 103.075C227.801 101.745 217.01 97.7427 214.851 104.248C212.692 110.753 231.344 115.658 232.905 117.103C234.465 118.549 240.187 123.849 241.748 125.294C243.309 126.74 249.321 126.51 249.321 126.51M274.256 122.544C277.153 123.938 282.502 128.249 280.729 134.338C278.955 140.427 288.66 144.906 293.734 146.384C295.095 147.001 297.641 148.843 296.932 151.279C296.045 154.323 296.121 156.327 288.664 158.118C282.094 159.696 259.511 159.94 250.998 156.326M245.713 150.23C245.033 149.921 244.615 150.372 248.391 154.643C248.953 155.279 249.847 155.838 250.998 156.326M230.014 120.225C227.668 124.496 224.419 133.986 230.184 137.779C230.807 138.189 231.451 138.538 232.109 138.831M252.634 134.411C247.757 138.723 239.069 141.924 232.109 138.831M232.109 138.831C227.967 143.303 219.538 153.656 218.958 159.291M218.958 159.291C221.079 160.205 223.29 161.284 225.613 162.54C228.885 164.308 231.316 167.314 233.07 171.185M250.998 156.326C245.911 161.71 235.204 172.22 233.07 171.185M319.33 107.271C315.129 108.083 308.816 109.411 303.312 110.798M292.024 114.839C292.602 113.787 297.507 112.26 303.312 110.798M303.312 110.798C303.423 111.674 302.408 128.323 301.886 136.538M301.886 136.538L294.834 135.805M301.886 136.538L313.429 136.598M295.452 125.746L316.938 123.418M249.986 65.2713L250.271 85.8319M234.666 71.3772L236.254 80.0969M237.842 88.8166L236.254 80.0969M270.026 64.5037C268.906 67.528 267.262 71.9066 265.698 75.9586M261.332 86.4117C261.768 85.9413 263.665 81.226 265.698 75.9586M265.698 75.9586L236.254 80.0969M189.093 191.534C197.27 191.054 214.517 192.467 218.092 201.964C219.044 204.494 219.388 206.818 219.325 208.905M199.51 240.808L198.682 232.31L213.728 220.151C215.888 218.606 219.151 214.652 219.325 208.905M219.325 208.905C214.771 207.586 204.283 205.604 198.763 208.223M243.944 248.138C241.484 249.403 236.208 253.151 234.789 258.022C233.016 264.111 228.871 273.802 225.822 299.006C222.774 324.21 213.768 364.193 179.964 398.603C152.827 426.226 104.221 442.061 70.2651 433.563M48.4265 422.707C54.4647 427.919 61.9227 431.475 70.2651 433.563M50.3911 218.156C32.6919 229.961 -6.67455 267.872 -22.5465 325.076M42.039 242.825C37.009 246.865 27.7003 256.219 30.7055 261.322C31.9916 263.506 33.8016 263.85 35.6518 263.286M42.1328 258.376C40.6701 260.154 38.125 262.532 35.6518 263.286M35.6518 263.286C35.6528 265.459 36.4482 268.385 39.1394 267.868M43.8853 264.831C41.874 266.748 40.3233 267.641 39.1394 267.868M39.1394 267.868C38.524 270.62 41.5828 275.456 48.6438 271.172C57.4701 265.816 61.3631 262.657 66.1813 257.455M94.8093 297.501C89.4581 301.888 79.3876 311.438 81.9152 314.553C82.9944 315.883 84.4892 315.965 86.0105 315.447M91.3385 311.683C90.142 312.975 88.0524 314.751 86.0105 315.447M86.0105 315.447C85.0434 316.806 83.9261 319.895 87.1939 321.375C88.6102 322.017 90.29 321.668 91.8959 320.898M97.0606 316.983C95.9686 318.162 93.9955 319.891 91.8959 320.898M91.8959 320.898C90.4181 323.395 89.4589 328.112 97.4444 327.003C101.877 326.388 110.588 323.828 119.533 320.401M146.296 305.564C142.299 310.46 130.732 316.11 119.533 320.401M119.533 320.401C121.605 328.763 119.173 351.961 92.8693 377.855M7.32648 292.824C-2.54448 305.48 -16.2505 332.144 -10.5097 356.949M63.6913 402.053C53.2352 406.221 25.972 407.321 0.56827 378.379C-5.30232 371.691 -8.78428 364.404 -10.5097 356.949M-10.5097 356.949C-17.383 363.327 -30.097 376.845 -25.9661 379.897C-24.4756 380.999 -22.9837 381.003 -21.6123 380.414M-16.1378 374.504C-17.1316 376.466 -19.1828 379.371 -21.6123 380.414M-21.6123 380.414C-21.9976 381.874 -22.2479 385.274 -20.1671 387.202C-18.6948 388.565 -14.7491 386.736 -11.4158 384.676M-7.81459 382.213C-8.76515 382.934 -10.0382 383.825 -11.4158 384.676M-11.4158 384.676C-13.2413 387.818 -15.8751 394.463 -11.8056 395.913C-7.73611 397.362 -1.55372 392.844 1.02879 390.404M70.2651 433.563C62.6303 442.502 46.825 459.496 44.6828 455.966C43.344 453.759 43.1564 452.136 43.9057 450.414M48.7506 444.27C46.3415 446.871 44.6551 448.691 43.9057 450.414M43.9057 450.414C41.9618 451.512 37.7463 453.02 36.4364 450.261C35.5757 448.447 35.2794 446.89 36.0374 445.059M41.0244 439.046C38.2637 441.532 36.7214 443.407 36.0374 445.059M36.0374 445.059C34.2886 445.694 30.5676 446.371 29.6738 443.997C28.5567 441.029 31.8911 436.386 33.8184 434.305M123.344 439.908C125.52 448.689 134.135 462.274 151.187 446.367C172.502 426.485 175.453 411.821 188.074 413.847C198.171 415.467 203.778 417.761 204.934 421.731C206.089 425.7 195.22 430.13 185.315 433.52C175.41 436.91 157.813 462.17 152.36 463.884C146.906 465.598 125.524 468.022 117.464 456.69M231.3 316.645C230.593 324.365 227.215 343.594 219.366 358.746M209.248 369.671C207.101 374.77 200.97 386.746 193.616 393.851" stroke="#414A38" stroke-width="2"/>
<ellipse cx="150.048" cy="220.124" rx="3.54528" ry="5.67244" transform="rotate(42.8067 150.048 220.124)" fill="#414A38"/>
<path d="M281.734 108.209C277.88 112.37 276.16 112.711 275.227 111.847C274.295 110.983 274.984 108.722 278.695 105.394C280.824 103.095 282.004 102.66 282.937 103.524C283.869 104.388 283.863 105.911 281.734 108.209Z" fill="#414A38"/>
<path d="M271.873 97.8671C267.536 102.549 266.871 104.107 265.499 102.836C264.127 101.566 264.641 98.7799 268.932 95.1435C271.327 92.5578 272.8 92.2021 274.172 93.4727C275.544 94.7434 274.268 95.2815 271.873 97.8671Z" fill="#414A38"/>
<ellipse cx="113.557" cy="184.393" rx="3.54527" ry="5.67244" transform="rotate(53.14 113.557 184.393)" fill="#414A38"/>
<path d="M116.088 212.533C113.755 210.442 115.103 204.76 116.998 202.646C118.893 200.532 120.618 202.787 122.951 204.879C125.283 206.97 127.478 209.024 125.582 211.138C123.687 213.251 118.42 214.625 116.088 212.533Z" fill="#414A38"/>
<path d="M74.2649 604.801C73.0179 601.276 70.7198 594.238 71.5038 594.289C72.4837 594.353 74.8918 600.501 75.9757 602.973C76.8428 604.952 76.6696 604.321 78.1032 604.53C79.5369 604.739 79.3668 601.833 78.8117 600.755C78.1178 599.408 76.8394 593.246 78.0373 592.629C79.2352 592.013 79.1938 594.875 79.6564 595.774C80.119 596.672 81.3113 601.931 82.5092 601.314C83.7071 600.697 83.2634 595.053 82.3382 593.256C81.413 591.46 82.8332 590.539 83.5774 589.777C84.3216 589.015 86.4626 591.701 85.4279 593.37C84.6001 594.706 85.8897 598.437 86.638 600.135C87.3655 600.076 88.707 599.297 88.2538 596.651C87.6873 593.343 90.587 590.145 91.1859 589.837C91.7848 589.529 92.7916 591.852 91.7435 592.391C90.905 592.823 90.4436 597.102 90.3177 599.188C90.9058 600.084 92.2282 601.5 92.8129 599.986C93.5437 598.095 96.4254 593.39 98.0815 593.295C99.7375 593.2 97.6222 599.026 96.9685 601.067C96.4456 602.7 97.7183 602.891 98.4201 602.782C100.138 601.582 103.803 599.404 104.718 600.297C105.861 601.413 101.605 604.552 99.885 605.627C98.5092 606.487 99.9375 607.937 100.824 608.554L105.483 607.67C105.805 607.314 106.738 606.796 107.892 607.566C109.335 608.528 104.616 610.768 102.969 611.617C101.651 612.295 102.583 612.952 103.214 613.195C105.145 613.022 108.908 613.143 108.508 615.016C108.009 617.357 103.553 616.43 102.955 616.739C102.356 617.047 101.371 616.607 102.219 618.254C103.067 619.901 106.27 623.177 104.841 623.345C103.412 623.512 100.359 620.159 99.0749 619.873C97.791 619.587 99.4146 623.108 100.925 623.467C102.436 623.825 105.498 627.932 104.831 628.844C104.164 629.755 101.278 627.831 100.439 626.937C99.6001 626.043 95.0545 623.838 93.8566 624.454C92.6587 625.071 96.3786 627.513 97.4446 628.479C98.5106 629.446 101.35 633.856 100.374 634.169C99.399 634.482 98.8637 633.811 97.943 632.39C97.0222 630.97 93.3705 627.925 92.2408 627.939C91.1111 627.952 91.6553 629.377 93.0431 632.072C94.431 634.767 94.4488 636.273 93.3236 636.663C92.1984 637.053 90.6563 634.059 90.7971 633.228C90.9379 632.398 87.9488 628.065 86.9689 628.001C85.9889 627.937 86.9867 629.507 87.1633 631.69C87.3045 633.436 85.9572 635.847 85.2659 636.834C84.3314 636.368 82.672 635.329 83.5105 634.897C84.5586 634.357 83.7608 630.6 83.3753 629.852C82.9898 629.103 80.794 628.15 81.0432 630.105C81.2924 632.061 80.3437 634.633 79.6766 635.545C79.0095 636.457 77.1859 635.122 77.853 634.211C78.5201 633.299 78.7112 630.359 77.4139 628.943C76.1165 627.527 76.1523 630.54 75.0539 633.189C73.9555 635.839 72.7308 634.196 72.4224 633.597C72.114 632.998 74.1789 629.283 73.1263 629.446C72.0737 629.609 68.3796 635.679 66.8688 635.32C65.6602 635.033 66.1388 633.044 66.5291 632.085C67.2689 630.947 68.5814 628.566 67.9136 628.152C67.0789 627.635 66.271 629.377 65.8352 630.738C65.3994 632.099 62.4048 633.641 61.1935 633.128C59.9822 632.615 62.0651 630.406 63.4763 628.732C64.8876 627.058 65.9861 624.409 62.3969 626.636C58.8078 628.863 57.0613 627.678 56.0724 626.861C55.0835 626.045 58.7631 625.097 60.2649 624.703C61.4663 624.387 61.9514 622.95 62.0438 622.271C61.684 621.572 60.742 620.479 59.8526 621.695C58.7407 623.214 58.4413 623.368 56.6221 622.411C54.803 621.453 56.1372 619.63 57.6434 619.612C58.8485 619.597 60.8467 618.72 61.6952 618.283C61.5879 617.707 60.8135 616.35 58.5742 615.533C55.7751 614.512 55.013 613.768 54.918 612.112C54.8421 610.787 56.9037 612.289 57.944 613.206C58.8741 613.295 61.1706 613.438 62.9165 613.297C64.6623 613.156 63.9225 611.327 63.3344 610.43C62.0885 609.114 59.8353 606.283 60.79 605.489C61.9834 604.495 64.2876 608.234 66.0296 609.042C67.4232 609.688 67.3455 607.796 67.1325 606.769C66.1179 605.903 64.2348 603.791 64.8194 602.277C65.5502 600.385 68.1627 604.723 69.5372 606.289C70.6367 607.541 71.1507 606.847 71.2703 606.343C69.9655 604.3 67.6255 600.075 68.7036 599.519C69.7816 598.964 72.0618 603.221 73.0671 605.418M87.6169 606.451C85.5192 607.405 82.9115 609.821 85.4559 614.762C87.6784 617.975 88.5355 620.375 93.0498 619.945C97.5642 619.514 97.3842 610.704 95.4064 609.07C93.4286 607.436 89.8279 604.858 87.6169 606.451ZM71.8502 610.781C69.3804 612.116 64.5412 615.643 64.9435 619.073C65.4463 623.361 66.3034 625.761 70.4591 626.841C74.6147 627.922 78.2318 621.702 77.9781 619.37C77.7245 617.038 76.5914 610.423 71.8502 610.781Z" stroke="#414A38" stroke-width="2"/>
<ellipse cx="72.8429" cy="618.226" rx="2.52628" ry="2.86311" transform="rotate(-27.2452 72.8429 618.226)" fill="#414A38"/>
<ellipse cx="88.9726" cy="612.762" rx="1.8526" ry="2.35786" transform="rotate(-27.2452 88.9726 612.762)" fill="#414A38"/>
<path d="M155.207 558.233C156.975 553.822 160.688 545.177 161.393 545.884C162.275 546.767 159.414 554.655 158.374 557.924C157.541 560.539 157.905 559.792 159.098 561.194C160.291 562.597 162.566 559.681 162.941 558.187C163.41 556.318 167.36 549.366 169.02 549.782C170.681 550.199 168.239 552.896 167.927 554.142C167.615 555.387 164.34 561.406 166.001 561.822C167.662 562.239 171.974 556.48 172.599 553.989C173.223 551.498 175.351 551.811 176.701 551.708C178.051 551.606 177.84 555.966 175.452 556.691C173.541 557.27 171.641 561.913 170.93 564.162C171.674 564.716 173.608 565.098 175.396 562.192C177.63 558.561 183.081 557.942 183.911 558.15C184.742 558.358 183.753 561.42 182.3 561.056C181.138 560.764 177.107 564.46 175.237 566.345C175.046 567.694 175.12 570.155 176.948 569.201C179.233 568.009 185.93 565.937 187.59 567.236C189.25 568.535 182.344 572.319 180.007 573.719C178.138 574.839 179.192 576.089 179.953 576.574C182.6 576.87 187.925 577.867 188.048 579.486C188.203 581.511 181.507 580.935 178.964 580.518C176.93 580.184 177.077 582.766 177.404 584.098L182.593 587.165C183.198 587.096 184.523 587.384 184.979 589.087C185.548 591.215 179.165 589.394 176.882 588.821C175.055 588.363 175.393 589.772 175.791 590.533C177.779 591.988 181.268 595.261 179.316 596.713C176.875 598.528 173.4 593.906 172.57 593.697C171.74 593.489 171.17 592.243 170.597 594.527C170.024 596.81 170.332 602.624 168.827 601.584C167.323 600.545 167.223 594.784 166.238 593.433C165.253 592.083 163.848 596.806 164.988 598.415C166.129 600.025 165.605 606.513 164.204 606.824C162.802 607.134 161.663 602.877 161.612 601.32C161.562 599.763 159.074 593.843 157.414 593.427C155.753 593.011 157.254 598.462 157.461 600.279C157.667 602.095 156.676 608.687 155.483 608.167C154.289 607.647 154.342 606.557 154.655 604.429C154.968 602.301 154.038 596.331 152.948 595.396C151.859 594.461 151.183 596.277 150.246 600.014C149.309 603.75 148.062 605.203 146.661 604.631C145.26 604.059 146.301 599.907 147.132 599.233C147.963 598.559 148.747 591.915 147.865 591.032C146.983 590.149 146.618 592.485 144.955 594.716C143.625 596.5 140.316 597.671 138.828 598.033C138.327 596.804 137.616 594.42 138.779 594.711C140.232 595.076 142.622 590.821 142.883 589.783C143.143 588.745 141.847 585.993 140.444 588.068C139.041 590.144 135.978 591.802 134.576 592.113C133.174 592.423 132.553 589.62 133.955 589.309C135.357 588.999 138.006 586.354 137.956 583.914C137.906 581.474 135.412 584.379 132.141 585.986C128.87 587.593 129.079 584.998 129.287 584.167C129.496 583.337 134.584 581.524 133.442 580.796C132.301 580.069 123.682 582.762 122.542 581.152C121.629 579.864 123.755 578.367 124.932 577.78C126.593 577.314 129.843 576.143 129.553 575.188C129.191 573.994 126.958 574.978 125.4 575.912C123.842 576.845 119.691 575.804 118.965 574.298C118.24 572.792 122.081 572.431 124.832 572.018C127.583 571.605 130.855 569.998 125.561 569.112C120.267 568.226 119.594 565.63 119.336 564.021C119.078 562.411 123.384 564.595 125.148 565.478C126.56 566.185 128.228 565.221 128.886 564.65C129.129 563.682 129.148 561.848 127.279 562.262C124.943 562.779 124.527 562.675 123.595 560.235C122.662 557.794 125.466 557.173 126.918 558.42C128.08 559.418 130.723 560.257 131.9 560.552C132.281 559.912 132.68 557.968 131.229 555.309C129.414 551.986 129.312 550.636 130.61 548.976C131.649 547.648 132.357 550.811 132.58 552.559C133.393 553.425 135.464 555.489 137.249 556.819C139.033 558.149 139.862 555.782 140.053 554.433C139.969 552.132 140.193 547.54 141.771 547.583C143.744 547.636 142.805 553.137 143.79 555.37C144.578 557.156 146.091 555.285 146.749 554.126C146.508 552.448 146.483 548.853 148.311 547.899C150.596 546.707 149.449 553.038 149.447 555.685C149.446 557.803 150.519 557.572 151.055 557.192C151.525 554.147 152.837 548.151 154.332 548.526C155.826 548.901 154.431 554.876 153.547 557.817M166.565 571.01C163.763 570.16 159.247 570.278 157.529 577.129C156.955 582.059 155.759 585.069 160.428 588.446C165.097 591.823 172.318 583.264 171.801 580.046C171.285 576.827 170.011 571.346 166.565 571.01ZM147.886 561.913C144.409 561.115 136.831 560.421 134.337 564.031C131.219 568.545 130.023 571.555 133.082 576.073C136.142 580.591 144.812 577.69 146.527 575.252C148.241 572.814 152.71 565.55 147.886 561.913Z" stroke="#414A38" stroke-width="2"/>
<ellipse cx="142.586" cy="569.851" rx="3.21021" ry="3.63824" transform="rotate(14.0776 142.586 569.851)" fill="#414A38"/>
<ellipse cx="162.563" cy="578.17" rx="2.35416" ry="2.9962" transform="rotate(14.0776 162.563 578.17)" fill="#414A38"/>
<path d="M929.877 102.279C932.232 96.4047 937.176 84.8911 938.116 85.8319C939.29 87.008 935.48 97.5132 934.095 101.867C932.986 105.351 933.471 104.356 935.059 106.223C936.648 108.091 939.679 104.208 940.178 102.217C940.802 99.7293 946.063 90.4695 948.274 91.0241C950.486 91.5788 947.234 95.1712 946.818 96.8301C946.402 98.4889 942.041 106.505 944.253 107.06C946.465 107.614 952.208 99.9449 953.04 96.6272C953.872 93.3095 956.706 93.7263 958.504 93.5894C960.301 93.4524 960.021 99.2592 956.84 100.225C954.295 100.997 951.765 107.18 950.818 110.175C951.809 110.913 954.385 111.422 956.766 107.553C959.742 102.715 967.001 101.891 968.107 102.169C969.213 102.446 967.896 106.524 965.961 106.038C964.413 105.65 959.045 110.573 956.554 113.083C956.299 114.88 956.398 118.157 958.833 116.887C961.876 115.299 970.796 112.54 973.006 114.27C975.217 116 966.019 121.04 962.907 122.904C960.417 124.395 961.822 126.06 962.835 126.706C966.361 127.1 973.452 128.428 973.617 130.585C973.822 133.282 964.905 132.515 961.518 131.959C958.808 131.515 959.004 134.953 959.441 136.728L966.351 140.811C967.157 140.72 968.922 141.104 969.529 143.372C970.287 146.206 961.786 143.781 958.745 143.018C956.312 142.408 956.762 144.284 957.291 145.298C959.94 147.236 964.587 151.595 961.986 153.528C958.735 155.946 954.108 149.79 953.002 149.512C951.896 149.235 951.137 147.575 950.374 150.616C949.612 153.658 950.021 161.401 948.017 160.017C946.013 158.633 945.881 150.959 944.568 149.161C943.256 147.362 941.385 153.652 942.905 155.796C944.424 157.94 943.726 166.581 941.859 166.994C939.993 167.408 938.476 161.738 938.408 159.664C938.341 157.59 935.028 149.707 932.816 149.152C930.604 148.597 932.604 155.858 932.879 158.277C933.154 160.697 931.834 169.476 930.244 168.783C928.655 168.091 928.725 166.639 929.142 163.805C929.559 160.971 928.32 153.02 926.869 151.775C925.418 150.529 924.518 152.948 923.27 157.925C922.022 162.901 920.361 164.836 918.495 164.074C916.629 163.312 918.016 157.783 919.123 156.885C920.229 155.987 921.273 147.139 920.098 145.963C918.924 144.787 918.438 147.897 916.224 150.868C914.452 153.245 910.045 154.804 908.063 155.287C907.396 153.65 906.449 150.474 907.997 150.862C909.932 151.348 913.116 145.681 913.463 144.299C913.81 142.917 912.084 139.251 910.216 142.015C908.347 144.779 904.267 146.988 902.4 147.402C900.533 147.815 899.706 144.082 901.573 143.668C903.44 143.255 906.968 139.732 906.901 136.482C906.834 133.233 903.513 137.102 899.157 139.242C894.8 141.382 895.079 137.926 895.356 136.82C895.633 135.714 902.41 133.299 900.89 132.33C899.37 131.361 887.891 134.948 886.372 132.804C885.157 131.088 887.988 129.095 889.555 128.312C891.768 127.692 896.097 126.133 895.71 124.86C895.228 123.27 892.254 124.581 890.179 125.824C888.104 127.067 882.575 125.68 881.609 123.675C880.642 121.669 885.758 121.189 889.423 120.639C893.087 120.088 897.444 117.948 890.393 116.768C883.343 115.588 882.447 112.131 882.102 109.987C881.758 107.844 887.494 110.752 889.844 111.929C891.723 112.87 893.946 111.586 894.822 110.826C895.145 109.536 895.17 107.093 892.681 107.645C889.57 108.334 889.017 108.195 887.775 104.945C886.533 101.695 890.266 100.868 892.201 102.529C893.748 103.857 897.269 104.975 898.835 105.368C899.343 104.515 899.875 101.926 897.942 98.3848C895.525 93.9587 895.388 92.1611 897.118 89.9502C898.502 88.1815 899.444 92.3945 899.742 94.7221C900.824 95.8751 903.583 98.6239 905.959 100.395C908.336 102.167 909.44 99.0153 909.695 97.218C909.582 94.1531 909.881 88.0376 911.983 88.0944C914.61 88.1655 913.36 95.4924 914.671 98.466C915.72 100.845 917.736 98.353 918.613 96.8097C918.292 94.5742 918.259 89.7858 920.693 88.5155C923.736 86.9277 922.209 95.3606 922.206 98.8862C922.204 101.707 923.633 101.399 924.348 100.893C924.973 96.8373 926.721 88.8517 928.712 89.3509C930.702 89.85 928.844 97.808 927.666 101.725M945.005 119.296C941.273 118.164 935.258 118.321 932.97 127.445C932.205 134.012 930.612 138.02 936.831 142.518C943.049 147.016 952.667 135.617 951.978 131.33C951.29 127.044 949.594 119.743 945.005 119.296ZM920.126 107.18C915.495 106.117 905.403 105.193 902.081 110.002C897.929 116.013 896.336 120.022 900.41 126.039C904.485 132.056 916.033 128.193 918.316 124.946C920.6 121.698 926.552 112.024 920.126 107.18Z" stroke="#414A38" stroke-width="2"/>
<ellipse cx="913.068" cy="117.752" rx="4.27551" ry="4.84558" transform="rotate(14.0776 913.068 117.752)" fill="#414A38"/>
<ellipse cx="939.675" cy="128.832" rx="3.13537" ry="3.99048" transform="rotate(14.0776 939.675 128.832)" fill="#414A38"/>
<path d="M343.212 160.333C341.997 160.699 339.357 162.153 338.521 165.042C337.684 167.931 339.611 170.972 340.679 172.132C341.695 173.011 344.675 174.34 348.462 172.618M334.797 144.782C332.055 146.142 331.91 149.075 332.073 155.542C332.236 162.009 328.437 161.339 326.108 162.622C324.117 163.415 319.08 165.196 321.273 170.142C324.515 176.165 326.876 170.395 329.704 174.149C332.455 177.49 330.44 186.189 333.866 188.551C337.292 190.914 341.223 182.07 347.458 178.787C354.673 176.178 359.871 181.207 365.161 175.106C369.245 171.277 360.89 163.495 360.847 160.938C360.805 158.381 370.229 151.52 364.508 148.298C358.492 148.121 353.834 150.687 349.134 150.696C346.763 149.422 344.458 143.862 340.999 143.642C337.539 143.423 334.797 144.782 334.797 144.782Z" stroke="#414A38" stroke-width="2" stroke-linecap="round"/>
<path d="M350.268 90.5004C349.439 90.2856 347.407 90.1994 345.912 91.5729C344.417 92.9463 344.463 95.3756 344.672 96.4186C344.95 97.2822 346.204 99.093 348.991 99.4268M350.864 78.5814C348.806 78.4045 347.694 80.0457 345.522 83.8331C343.35 87.6205 341.393 85.9031 339.6 85.8268C338.173 85.5869 334.644 84.8489 334.176 88.4706C333.935 93.0809 337.32 90.5799 337.635 93.7362C338.051 96.6276 333.84 100.939 334.988 103.503C336.137 106.066 341.504 102.342 346.251 102.633C351.326 103.657 352.563 108.379 357.753 106.713C361.45 105.936 359.357 98.5197 360.229 97.0298C361.1 95.5399 368.941 94.8848 366.77 91.0209C363.362 88.8108 359.776 88.6587 357.062 87.0166C356.14 85.4507 356.759 81.4361 354.841 80.0972C352.922 78.7583 350.864 78.5814 350.864 78.5814Z" stroke="#414A38" stroke-width="2" stroke-linecap="round"/>
<path d="M314.281 217.684C313.023 217.516 310.019 217.753 308.066 220.04C306.112 222.328 306.614 225.893 307.109 227.389C307.672 228.609 309.839 231.049 313.999 231.041M313.025 200.047C309.967 200.155 308.626 202.767 306.108 208.726C303.59 214.685 300.405 212.509 297.755 212.718C295.613 212.62 290.29 212.166 290.25 217.576C290.72 224.4 295.25 220.116 296.278 224.702C297.408 228.881 291.985 235.975 294.133 239.54C296.28 243.104 303.508 236.668 310.542 236.247C318.19 236.845 320.853 243.569 328.188 240.191C333.487 238.387 329.083 227.853 330.099 225.506C331.114 223.159 342.529 220.793 338.645 215.498C333.236 212.857 327.935 213.275 323.65 211.345C322.014 209.207 322.207 203.191 319.146 201.565C316.084 199.939 313.025 200.047 313.025 200.047Z" stroke="#414A38" stroke-width="2" stroke-linecap="round"/>
</g>
<defs>
<clipPath id="clip0_406_403">
<rect width="1137" height="741" fill="white"/>
</clipPath>
</defs>
</svg>
