<svg width="400" height="741" viewBox="0 0 400 741" fill="none" xmlns="http://www.w3.org/2000/svg">
<g clip-path="url(#clip0_404_297)">
<rect width="400" height="741" fill="#667555"/>
<path d="M295.695 126.507C307.357 122.944 308.927 120.131 317.857 112.35C319.646 111.57 321.282 110.851 322.784 110.185M295.695 126.507C290.838 120.14 282.216 104.344 286.577 92.0992C292.029 76.7927 276.882 59.2633 277.375 53.5552C277.51 51.9919 277.986 50.7588 278.616 49.8007M295.695 126.507C294.754 127.684 293.756 128.926 292.714 130.227M263.992 221.186C263.555 214.66 262.7 207.323 261.237 199.321C256.914 175.674 278.738 147.672 292.714 130.227M263.992 221.186C257.069 225.372 241.931 233.661 236.769 233.333C222.676 239.429 218.568 246.775 217.668 247.902C216.923 248.48 200.497 254.115 198.646 256.432M263.992 221.186C264.755 232.59 264.239 241.52 263.45 247.197M263.992 221.186C273.447 224.674 293.6 230.138 297.303 222.79C297.787 221.83 304.005 223.183 305.091 220.806C306.177 218.43 297.408 215.215 297.23 214.523C297.051 213.832 304.758 216.286 306.329 215.015C307.901 213.744 303.769 212.311 301.157 210.882M198.646 256.432C196.794 258.75 219.988 255.18 231.816 253.106L249.267 247.389C253.894 248.149 263.209 249.174 263.45 247.197M198.646 256.432C211.667 267.855 246.097 288.35 279.644 278.952M263.45 247.197C263.257 248.588 263.047 249.785 262.836 250.774L267.394 267.978C272.072 271.716 276.209 275.438 279.644 278.952M279.644 278.952C283.804 283.209 286.934 287.16 288.748 290.467C292.06 296.504 301.079 299.643 317.885 325.278C331.33 345.787 367.879 328.616 384.472 317.468C403.849 300.858 445.543 262.26 457.311 240.746C472.022 213.853 444.265 127.257 434.416 116.674C424.566 106.09 401.306 76.6532 364.343 103.392C361.006 100.725 358.426 98.9174 355.502 98.3341M355.502 98.3341C353.35 97.9049 351.01 98.1387 348.044 99.1812C342.15 101.253 339.553 102.514 333.606 105.273C331.854 106.085 329.812 107.028 327.308 108.16C325.946 108.776 324.447 109.447 322.784 110.185M355.502 98.3341C343.853 74.9001 302.091 54.3036 282.666 46.9346C281.614 47.1346 279.828 47.96 278.616 49.8007M278.616 49.8007C285.736 61.1405 300.571 85.1102 302.956 90.2708C303.847 92.1992 304.754 94.4433 305.954 96.735C307.769 100.203 310.254 103.78 314.367 106.537C316.627 108.052 319.38 109.32 322.784 110.185M283.99 207.333C291.644 207.015 297.35 208.798 301.157 210.882M301.157 210.882C303.115 210.412 307.071 208.827 307.235 206.246C307.321 204.89 305.468 203.063 302.314 201.373M283.502 196.773C291.135 196.977 297.963 199.044 302.314 201.373M302.314 201.373C304.477 200.929 309.134 199.627 310.457 197.972C311.155 197.098 309.844 195.707 307.848 194.449M299.203 191.691C301.113 191.26 305.12 192.731 307.848 194.449M307.848 194.449C308.937 194.217 311.447 193.339 312.77 191.684C313.376 190.926 312.287 189.552 310.568 188.237M301.516 185.403C302.748 183.862 307.598 185.963 310.568 188.237M310.568 188.237C312.199 188.068 315.384 187.264 315.083 185.396C314.891 184.208 312.754 182.518 310.483 180.97M305.152 177.46C305.965 178.11 308.287 179.474 310.483 180.97M310.483 180.97C311.932 180.57 315.162 179.357 316.485 177.702C316.963 177.103 315.652 175.636 313.484 173.821M299.106 163.813C303.156 166.328 309.656 170.617 313.484 173.821M313.484 173.821C315.145 174.287 318.932 174.64 320.784 172.323C321.57 171.339 319.913 168.717 317.253 165.711M300.92 153.058C303.106 152.566 312.078 159.864 317.253 165.711M317.253 165.711C320.442 166.811 326.87 168.101 327.067 164.461C327.149 162.929 325.413 160.789 322.94 158.595M308.032 149.249C310.337 149.742 318.067 154.272 322.94 158.595M322.94 158.595C324.288 160.302 327.248 162.707 328.304 158.669C329.625 153.623 312.151 141.549 307.201 141.805C303.891 139.159 296.164 132.984 292.714 130.227M355.276 207.219C355.781 207.523 356.29 207.923 356.781 208.423M392.811 284.126C385.783 292.072 385.122 292.899 378.257 295.55C369.263 306.805 363.871 310.723 362.3 311.275C361.321 311.64 360.33 311.976 359.327 312.29M392.811 284.126C399.838 276.181 420.449 252.936 423.49 238.949M392.811 284.126C378.147 280.755 354.055 268.837 343.22 262.804M423.49 238.949C403.266 231.244 361.611 214.351 356.781 208.423M423.49 238.949C425.391 230.206 432.592 209.856 432.809 187.263M389.506 132.994C396.28 116.032 399.424 117.188 407.532 118.921C415.64 120.654 415.56 126.693 423.015 146.212C423.889 147.734 424.693 149.272 425.432 150.824M389.506 132.994C386.191 141.294 382.862 153.804 379.939 166.031M389.506 132.994C401.092 142.253 418.284 148.738 425.432 150.824M356.781 208.423C361.625 213.352 364.73 228.023 346.058 256.935C345.073 258.963 344.128 260.918 343.22 262.804M356.781 208.423C361.885 210.057 370.201 208.251 372.594 198.276C374.282 191.241 376.889 178.791 379.939 166.031M379.939 166.031C395.884 172.897 428.781 186.756 432.809 187.263M432.809 187.263C432.924 175.282 431.076 162.671 425.432 150.824M343.22 262.804C335.853 278.116 330.999 288.808 327.914 296.001M327.914 296.001C324.571 303.796 323.305 307.481 323.171 308.483C322.98 313.529 324.948 322.38 334.343 317.411C342.856 315.792 351.435 314.759 359.327 312.29M327.914 296.001C333.588 300.309 347.815 309.599 359.327 312.29M369.308 107.36L359.942 70.7187M379.646 102.06L375.825 71.2068M308.025 294.345L284.545 320.333M318.619 304.846L298.37 339.517M336.246 158.913C337.266 157.92 337.302 154.198 329.291 147.253C319.277 138.572 321.599 123.788 324.396 120.288C327.194 116.787 332.412 104.318 349.206 106.212C369.975 116.707 364.852 128.209 358.695 138.883C351.545 150.799 335.912 152.544 336.246 158.913ZM310.476 235.28C304.354 234.456 292.771 231.98 290.706 237.11C284.338 240.836 283.058 238.457 279.295 246.298C276.238 252.67 290.395 274.832 291.307 279.629C293.127 279.049 300.572 278.218 306.113 277.223C311.655 276.227 315.282 269.701 317.275 265.801C319.268 261.902 316.854 251.904 316.439 248.182C316.086 245.023 311.305 239.333 310.476 235.28Z" stroke="#435234" stroke-width="2" stroke-linecap="round"/>
<path d="M261.346 250.94L265.905 268.144L259.369 266.989C259.369 266.989 255.481 265.916 253.578 265.752C251.675 265.587 247.371 260.791 245.468 260.627C243.566 260.463 239.182 261.706 237.527 260.383C235.872 259.06 230.326 253.273 230.326 253.273L247.778 247.556C252.389 248.312 261.653 249.333 261.958 247.384C261.959 247.377 261.96 247.37 261.961 247.363C261.96 247.37 261.959 247.377 261.958 247.384C261.765 248.767 261.557 249.956 261.346 250.94Z" fill="#435234"/>
<path d="M261.346 250.94L265.905 268.144L259.369 266.989C259.369 266.989 255.481 265.916 253.578 265.752C251.675 265.587 247.371 260.791 245.468 260.627C243.566 260.463 239.182 261.706 237.527 260.383C235.872 259.06 230.326 253.273 230.326 253.273L247.778 247.556C252.405 248.315 261.72 249.34 261.961 247.363C261.768 248.755 261.558 249.951 261.346 250.94Z" stroke="#435234" stroke-width="2"/>
<path d="M324.521 90.7623C315.715 82.0976 308.732 91.0276 306.342 96.5758C308.157 100.044 310.642 103.621 314.754 106.377C316.358 106.633 319.963 106.648 321.55 104.661C323.534 102.179 324.044 107.577 327.696 108C330.2 106.869 332.242 105.926 333.994 105.113C337.44 103.527 337.554 98.4654 337.18 96.1328C335.911 93.762 331.601 89.3689 324.521 90.7623Z" fill="#435234" stroke="#435234" stroke-width="2"/>
<ellipse cx="338.431" cy="225.752" rx="3.17811" ry="2.64842" transform="rotate(-51.3699 338.431 225.752)" fill="#435234"/>
<ellipse cx="340.161" cy="235.286" rx="2.64842" ry="3.17811" transform="rotate(-41.2233 340.161 235.286)" fill="#435234"/>
<ellipse cx="329.334" cy="233.729" rx="3.17811" ry="2.49418" transform="rotate(-79.5563 329.334 233.729)" fill="#435234"/>
<ellipse cx="360.411" cy="179.582" rx="3.17811" ry="2.64842" transform="rotate(-51.3699 360.411 179.582)" fill="#435234"/>
<ellipse cx="362.474" cy="192.093" rx="2.64842" ry="3.17811" transform="rotate(-41.2233 362.474 192.093)" fill="#435234"/>
<ellipse cx="347.837" cy="183.424" rx="3.17811" ry="2.49418" transform="rotate(-79.5563 347.837 183.424)" fill="#435234"/>
<path d="M324.473 206.324C318.806 203.233 322.663 196.145 325.499 188.919C330.374 178.576 339.73 194.867 338.574 198.011C337.649 200.527 335.136 200.617 332.868 200.91C330.599 201.203 326.118 207.221 324.473 206.324Z" fill="#435234" stroke="#435234" stroke-width="2"/>
<path d="M296.425 257.953C284.511 253.856 285.087 248.666 286.906 246.956C288.493 244.969 291.042 245.74 292.117 246.374C300.061 250.01 314.938 257.695 312.557 260.674C309.581 264.398 310.573 263.157 296.425 257.953Z" fill="#435234" stroke="#435234" stroke-width="2"/>
<path d="M341.147 131.502C328.654 129.722 328.371 124.391 329.894 122.314C331.141 120.006 333.796 120.28 334.968 120.706C343.446 122.803 359.469 127.609 357.598 131.072C355.259 135.4 356.039 133.957 341.147 131.502Z" fill="#435234" stroke="#435234" stroke-width="2"/>
<path d="M322.77 379.536C321.233 379.172 317.485 379.091 314.782 381.679C312.079 384.268 312.256 388.743 312.683 390.657C313.228 392.239 315.607 395.528 320.757 396.037M323.412 357.547C319.612 357.299 317.626 360.367 313.767 367.43C309.909 374.493 306.237 371.403 302.93 371.331C300.291 370.943 293.758 369.718 293.034 376.41C292.767 384.916 298.908 380.178 299.61 385.983C300.487 391.296 292.891 399.403 295.106 404.083C297.32 408.763 307.069 401.696 315.829 402.051C325.223 403.743 327.682 412.399 337.183 409.131C343.967 407.558 339.827 393.969 341.377 391.19C342.926 388.41 357.352 386.904 353.203 379.865C346.836 375.922 340.222 375.779 335.157 372.856C333.399 370.005 334.387 362.583 330.799 360.188C327.212 357.794 323.412 357.547 323.412 357.547Z" stroke="#435234" stroke-width="2" stroke-linecap="round"/>
<path d="M362.389 356.269C361.502 356.058 359.338 356.008 357.78 357.493C356.222 358.979 356.329 361.552 356.577 362.653C356.893 363.563 358.27 365.456 361.244 365.753M362.739 343.626C360.545 343.481 359.402 345.242 357.181 349.299C354.96 353.357 352.837 351.576 350.928 351.532C349.404 351.306 345.631 350.595 345.22 354.443C345.074 359.333 348.615 356.614 349.025 359.953C349.537 363.008 345.159 367.662 346.442 370.355C347.726 373.048 353.347 368.994 358.405 369.207C363.829 370.189 365.257 375.168 370.739 373.298C374.654 372.4 372.251 364.583 373.143 362.987C374.034 361.39 382.361 360.538 379.959 356.487C376.28 354.214 372.461 354.125 369.534 352.44C368.516 350.799 369.08 346.533 367.006 345.152C364.933 343.772 362.739 343.626 362.739 343.626Z" stroke="#435234" stroke-width="2" stroke-linecap="round"/>
<path d="M68.2112 56.3336C66.9961 56.6994 64.3568 58.1533 63.5201 61.0426C62.6834 63.932 64.6102 66.9729 65.6781 68.1322C66.6946 69.0119 69.6744 70.3407 73.4612 68.6188M59.7963 40.7828C57.0542 42.1421 56.9094 45.0751 57.0722 51.5421C57.235 58.0091 53.4361 57.3396 51.1073 58.6222C49.1161 59.4159 44.0793 61.1965 46.273 66.1424C49.5148 72.1654 51.876 66.3951 54.7032 70.1494C57.4544 73.4906 55.439 82.1896 58.8652 84.5519C62.2914 86.9141 66.2225 78.0705 72.4578 74.7873C79.6721 72.179 84.8706 77.2075 90.1606 71.106C94.2442 67.278 85.8895 59.496 85.8469 56.9389C85.8044 54.3819 95.229 47.5208 89.5075 44.2981C83.4911 44.1217 78.8336 46.6875 74.1335 46.6962C71.7622 45.4221 69.458 39.8622 65.9982 39.6429C62.5385 39.4235 59.7963 40.7828 59.7963 40.7828Z" stroke="#435234" stroke-width="2" stroke-linecap="round"/>
<path d="M111.141 96.0615C110.312 95.8467 108.28 95.7605 106.785 97.1339C105.29 98.5074 105.336 100.937 105.545 101.98C105.824 102.843 107.077 104.654 109.864 104.988M111.737 84.1424C109.679 83.9656 108.567 85.6067 106.395 89.3941C104.223 93.1815 102.266 91.4641 100.473 91.3879C99.0463 91.1479 95.517 90.4099 95.0492 94.0316C94.8085 98.642 98.1926 96.1409 98.5078 99.2973C98.924 102.189 94.713 106.5 95.8615 109.064C97.01 111.627 102.377 107.903 107.124 108.194C112.199 109.218 113.436 113.94 118.626 112.274C122.323 111.497 120.23 104.081 121.102 102.591C121.973 101.101 129.814 100.446 127.643 96.582C124.235 94.3718 120.649 94.2197 117.935 92.5777C117.013 91.0117 117.632 86.9972 115.714 85.6582C113.795 84.3193 111.737 84.1424 111.737 84.1424Z" stroke="#435234" stroke-width="2" stroke-linecap="round"/>
<path d="M39.2804 113.684C38.0226 113.517 35.0186 113.753 33.0652 116.041C31.1118 118.328 31.6134 121.893 32.1085 123.389C32.672 124.61 34.8389 127.049 38.9988 127.041M38.0249 96.0473C34.9662 96.1552 33.6251 98.7677 31.1074 104.727C28.5897 110.686 25.4046 108.51 22.7541 108.718C20.6127 108.62 15.2899 108.166 15.2495 113.576C15.7199 120.4 20.25 116.117 21.278 120.703C22.4071 124.881 16.9847 131.975 19.1323 135.54C21.2799 139.105 28.5073 132.668 35.5417 132.247C43.1897 132.845 45.8528 139.57 53.1877 136.192C58.4862 134.388 54.0828 123.853 55.0982 121.506C56.1136 119.159 67.5285 116.793 63.6445 111.499C58.2359 108.858 52.9348 109.275 48.6491 107.345C47.0139 105.207 47.2068 99.1917 44.1452 97.5655C41.0835 95.9394 38.0249 96.0473 38.0249 96.0473Z" stroke="#435234" stroke-width="2" stroke-linecap="round"/>
<path d="M346.309 618.521C319.415 628.816 302.204 618.463 294.421 611.629C285.353 603.668 272.255 565.852 294.925 537.988C331.7 502.66 361.758 525.051 370.49 537.988C381.741 553.91 395.477 590.93 360.414 611.629C355.448 614.561 350.747 616.822 346.309 618.521ZM346.309 618.521C345.133 619.707 344.193 622.874 349.835 626.059C356.888 630.039 360.918 638.498 358.399 664.87C355.88 691.241 360.414 702.686 341.271 700.198M341.271 700.198C340.6 701.691 337.745 704.378 331.7 703.183C324.143 701.691 324.647 703.183 324.647 686.266C324.647 669.348 329.181 666.86 338.249 666.86C341.329 666.86 342.84 669.215 343.433 672.831M341.271 700.198C342.269 691.656 344.585 679.86 343.433 672.831M343.79 640.489L343.433 672.831M303.489 618.521C298.955 622.858 289.887 633.124 289.887 639.493C285.353 646.957 284.346 648.45 283.842 653.923C283.409 658.623 283.233 685.34 288.395 693.739M300.387 673.826C299.97 676.861 299.7 680.624 299.459 685.271C298.451 704.676 300.97 701.691 309.03 701.691C316.284 701.691 314.572 701.691 318.098 701.691C321.624 701.691 323.136 661.884 312.556 661.884C305.761 661.884 302.707 663.527 301.125 669.846M300.387 673.826C299.238 680.129 299.614 697.71 291.398 696.217C290.238 696.006 289.244 695.12 288.395 693.739M300.387 673.826C300.592 672.329 300.833 671.008 301.125 669.846M301.125 669.846V649.445M335.73 544.456C335.058 548.769 335.226 557.294 341.271 556.896M288.395 693.739H262.543L265.117 680.872C265.331 677.656 259.97 691.165 258.683 687.949C257.397 684.732 259.327 668.851 256.753 666.86C254.18 664.87 250.963 674.568 253.537 687.949C249.419 683.831 246.46 679.585 245.173 680.872C243.887 682.159 250.963 695.025 250.963 695.025H204" stroke="#435234" stroke-width="2"/>
<ellipse cx="10.5259" cy="9.00231" rx="10.5259" ry="9.00231" transform="matrix(0.771563 -0.636153 0.645492 0.763767 301.474 547.4)" fill="#435234"/>
<ellipse cx="4.64187" cy="5.64599" rx="4.64187" ry="5.64599" transform="matrix(0.743391 0.668858 -0.677958 0.735101 314.167 588.741)" fill="#435234"/>
<ellipse cx="13.4271" cy="11.913" rx="13.4271" ry="11.913" transform="matrix(0.0818654 -0.996643 0.996805 0.0798788 348.828 593.611)" fill="#435234"/>
<path d="M219.232 316.551C218.228 311.338 216.492 300.971 217.582 301.208C218.944 301.505 221.023 310.646 222.021 314.347C222.82 317.308 222.71 316.386 224.679 316.983C226.647 317.58 227.023 313.465 226.472 311.834C225.783 309.795 225.293 300.874 227.105 300.262C228.918 299.649 228.253 303.66 228.713 305.019C229.172 306.378 229.733 314.013 231.545 313.401C233.357 312.788 233.929 304.771 233.011 302.052C232.092 299.334 234.281 298.342 235.487 297.429C236.693 296.517 239.13 300.742 237.324 302.866C235.879 304.566 236.9 310.077 237.591 312.62C238.625 312.691 240.673 311.881 240.597 308.07C240.502 303.307 245.25 299.431 246.156 299.125C247.062 298.819 247.984 302.293 246.398 302.829C245.129 303.258 243.576 309.167 242.958 312.068C243.593 313.452 245.15 315.719 246.291 313.718C247.718 311.217 252.76 305.223 255.105 305.44C257.45 305.657 253.247 313.387 251.897 316.115C250.817 318.297 252.563 318.835 253.572 318.83C256.238 317.509 261.844 315.227 262.939 316.675C264.308 318.484 257.668 321.989 255.026 323.135C252.912 324.051 254.611 326.388 255.724 327.442L262.453 327.187C262.981 326.757 264.4 326.227 265.857 327.551C267.679 329.208 260.58 331.354 258.088 332.196C256.094 332.87 257.263 333.989 258.097 334.464C260.845 334.63 266.102 335.596 265.144 338.141C263.948 341.322 257.889 339.078 256.983 339.384C256.077 339.69 254.788 338.864 255.63 341.356C256.472 343.848 260.274 349.125 258.233 349.058C256.191 348.991 252.615 343.636 250.873 342.963C249.131 342.29 250.665 347.577 252.71 348.4C254.755 349.223 258.184 355.637 257.054 356.776C255.925 357.914 252.282 354.602 251.293 353.17C250.304 351.737 244.389 347.678 242.577 348.29C240.764 348.903 245.47 353.118 246.762 354.7C248.054 356.283 251.106 363.076 249.671 363.309C248.235 363.542 247.626 362.485 246.634 360.297C245.642 358.108 241.16 353.06 239.571 352.84C237.982 352.619 238.444 354.735 239.822 358.812C241.2 362.89 240.906 365.008 239.244 365.318C237.582 365.627 236.051 361.096 236.424 359.96C236.797 358.825 233.518 352.108 232.156 351.811C230.794 351.514 231.862 353.93 231.648 357.031C231.477 359.512 229.075 362.612 227.895 363.852C226.682 363 224.572 361.189 225.841 360.76C227.427 360.224 227.102 354.781 226.719 353.648C226.337 352.516 223.456 350.713 223.392 353.511C223.327 356.309 221.451 359.719 220.321 360.858C219.192 361.997 216.914 359.738 218.044 358.599C219.173 357.46 220.064 353.373 218.542 351.111C217.021 348.849 216.433 353.086 214.33 356.573C212.227 360.06 210.856 357.494 210.549 356.588C210.243 355.682 213.929 350.903 212.417 350.909C210.904 350.915 204.433 358.655 202.388 357.831C200.752 357.173 201.845 354.481 202.596 353.218C203.875 351.776 206.222 348.712 205.372 347.989C204.31 347.086 202.807 349.361 201.907 351.179C201.007 352.998 196.476 354.529 194.884 353.552C193.292 352.576 196.684 349.915 199.02 347.864C201.356 345.813 203.459 342.326 197.948 344.692C192.438 347.059 190.237 345.027 189.021 343.67C187.806 342.314 193.172 341.763 195.364 341.527C197.118 341.338 198.103 339.424 198.377 338.49C198.019 337.433 196.928 335.698 195.422 337.217C193.54 339.115 193.087 339.268 190.735 337.538C188.384 335.809 190.643 333.531 192.762 333.825C194.457 334.06 197.448 333.251 198.731 332.817C198.703 331.986 197.903 329.917 194.932 328.296C191.219 326.27 190.306 325.063 190.523 322.718C190.697 320.843 193.274 323.388 194.54 324.895C195.827 325.217 199.021 325.905 201.502 326.076C203.982 326.248 203.331 323.523 202.695 322.139C201.225 320.028 198.661 315.577 200.169 314.664C202.055 313.522 204.498 319.258 206.773 320.761C208.593 321.964 208.884 319.291 208.802 317.804C207.562 316.372 205.365 313.009 206.506 311.008C207.933 308.507 210.682 315.15 212.28 317.639C213.559 319.63 214.427 318.764 214.702 318.082C213.302 314.937 210.912 308.51 212.543 307.959C214.174 307.407 216.474 313.866 217.42 317.164M237.859 321.826C234.712 322.721 230.309 325.429 232.835 332.904C235.275 337.885 235.97 341.436 242.399 341.788C248.828 342.14 250.44 329.732 248.01 327.02C245.579 324.308 241.301 320.058 237.859 321.826ZM214.576 324.435C210.826 325.786 203.286 329.714 203.125 334.614C202.923 340.74 203.618 344.291 209.223 346.688C214.829 349.085 221.224 341.119 221.361 337.791C221.499 334.463 221.308 324.936 214.576 324.435Z" stroke="#435234" stroke-width="2"/>
<ellipse cx="214.393" cy="335.098" rx="3.58677" ry="4.06501" transform="rotate(-18.6699 214.393 335.098)" fill="#435234"/>
<ellipse cx="238.195" cy="330.841" rx="2.6303" ry="3.34765" transform="rotate(-18.6699 238.195 330.841)" fill="#435234"/>
<path d="M221.098 50.0374C222.641 45.918 225.895 37.8389 226.563 38.4779C227.397 39.2766 224.916 46.6369 224.022 49.6846C223.306 52.1228 223.628 51.4236 224.761 52.6964C225.895 53.9691 227.939 51.2229 228.255 49.8317C228.649 48.0928 232.158 41.5749 233.704 41.9254C235.25 42.2758 233.047 44.8237 232.784 45.983C232.521 47.1423 229.617 52.7817 231.163 53.1321C232.709 53.4826 236.579 48.0623 237.104 45.7436C237.63 43.425 239.606 43.6698 240.853 43.5462C242.1 43.4226 241.997 47.4623 239.802 48.1835C238.046 48.7605 236.385 53.0972 235.775 55.1934C236.474 55.6907 238.272 56.0035 239.866 53.2768C241.857 49.8685 246.889 49.1809 247.662 49.3561C248.435 49.5314 247.584 52.3859 246.232 52.0792C245.15 51.8339 241.497 55.3397 239.806 57.1233C239.658 58.3762 239.778 60.6518 241.45 59.7306C243.539 58.5791 249.694 56.5209 251.258 57.6881C252.822 58.8552 246.51 62.5029 244.376 63.8476C242.67 64.9234 243.672 66.0581 244.386 66.4909C246.843 66.7092 251.792 67.5198 251.94 69.0161C252.125 70.8865 245.917 70.4946 243.554 70.1621C241.664 69.8961 241.855 72.2823 242.186 73.5086L247.052 76.2372C247.612 76.1608 248.844 76.3996 249.301 77.966C249.873 79.924 243.927 78.3728 241.802 77.8909C240.102 77.5054 240.444 78.802 240.828 79.4984C242.699 80.803 245.997 83.7584 244.221 85.1433C242 86.8744 238.687 82.6698 237.914 82.4945C237.141 82.3193 236.587 81.178 236.105 83.3034C235.624 85.4288 236.03 90.803 234.616 89.8729C233.202 88.9427 232.988 83.6124 232.048 82.3834C231.108 81.1545 229.907 85.5547 230.996 87.0207C232.086 88.4867 231.738 94.5023 230.447 94.8191C229.157 95.136 228.013 91.2199 227.933 89.7798C227.853 88.3396 225.427 82.9138 223.881 82.5634C222.335 82.2129 223.839 87.2264 224.069 88.9036C224.298 90.5808 223.519 96.702 222.404 96.246C221.288 95.7899 221.314 94.78 221.559 92.804C221.804 90.828 220.818 85.3224 219.79 84.4799C218.762 83.6374 218.174 85.3326 217.386 88.8105C216.597 92.2885 215.474 93.659 214.165 93.1592C212.856 92.6593 213.733 88.7949 214.487 88.1534C215.242 87.512 215.827 81.3469 214.993 80.5482C214.158 79.7495 213.869 81.9188 212.378 84.0184C211.184 85.698 208.146 86.8512 206.777 87.2178C206.287 86.0911 205.579 83.899 206.661 84.1443C208.013 84.4509 210.137 80.463 210.356 79.4969C210.575 78.5308 209.317 76.0111 208.063 77.9613C206.808 79.9115 204.007 81.5112 202.717 81.828C201.426 82.1448 200.792 79.5633 202.083 79.2465C203.374 78.9297 205.77 76.4257 205.672 74.1688C205.574 71.912 203.328 74.6531 200.334 76.209C197.34 77.7649 197.479 75.3586 197.655 74.5858C197.83 73.8129 202.501 72.0278 201.429 71.3785C200.357 70.7292 192.438 73.403 191.348 71.937C190.476 70.7642 192.412 69.3341 193.489 68.7657C195.017 68.2995 198 67.1475 197.712 66.2695C197.351 65.172 195.306 66.1302 193.883 67.0267C192.461 67.9232 188.597 67.0471 187.894 65.6687C187.19 64.2903 190.738 63.8757 193.276 63.4353C195.813 62.9949 198.807 61.439 193.889 60.7303C188.971 60.0215 188.293 57.6333 188.02 56.1493C187.747 54.6653 191.779 56.5952 193.43 57.3759C194.752 58.0005 196.276 57.0729 196.872 56.531C197.077 55.6294 197.055 53.9316 195.334 54.354C193.183 54.882 192.797 54.7944 191.882 52.5556C190.968 50.3167 193.549 49.6831 194.92 50.8064C196.016 51.7051 198.48 52.4262 199.575 52.6745C199.914 52.0742 200.243 50.2662 198.844 47.8362C197.095 44.7986 196.971 43.5516 198.138 41.9879C199.072 40.7369 199.793 43.6497 200.037 45.2625C200.807 46.0466 202.767 47.9131 204.447 49.1066C206.127 50.3 206.844 48.0925 206.993 46.8395C206.866 44.7115 206.977 40.457 208.438 40.4633C210.265 40.4711 209.512 45.5825 210.471 47.6281C211.237 49.2645 212.599 47.5011 213.183 46.4148C212.925 44.8664 212.826 41.5394 214.498 40.6182C216.587 39.4667 215.659 45.3509 215.713 47.8009C215.757 49.761 216.745 49.5245 217.233 49.1613C217.604 46.3334 218.692 40.7565 220.083 41.0719C221.474 41.3873 220.309 46.9467 219.552 49.687M231.985 61.8168C229.374 61.0893 225.09 61.1003 223.645 67.4766C223.217 72.052 222.173 74.8627 226.566 77.8901C230.958 80.9175 237.461 72.8437 236.915 69.8758C236.369 66.9079 235.182 62.0548 231.985 61.8168ZM214.399 53.5976C211.164 52.9319 204.136 52.449 201.904 55.8434C199.114 60.0865 198.07 62.8971 200.997 67.0142C203.923 71.1313 211.886 68.2643 213.422 65.9715C214.958 63.6786 218.941 56.862 214.399 53.5976Z" stroke="#435234" stroke-width="2"/>
<ellipse cx="209.661" cy="61.0556" rx="2.97185" ry="3.3681" transform="rotate(12.7742 209.661 61.0556)" fill="#435234"/>
<ellipse cx="228.326" cy="68.3347" rx="2.17936" ry="2.77373" transform="rotate(12.7742 228.326 68.3347)" fill="#435234"/>
<path d="M46.2649 616.802C45.0179 613.276 42.7198 606.238 43.5038 606.289C44.4837 606.353 46.8918 612.501 47.9757 614.974C48.8428 616.952 48.6696 616.321 50.1032 616.53C51.5369 616.739 51.3668 613.834 50.8117 612.756C50.1178 611.408 48.8394 605.247 50.0373 604.63C51.2352 604.013 51.1938 606.876 51.6564 607.774C52.119 608.673 53.3113 613.931 54.5092 613.314C55.7071 612.698 55.2634 607.054 54.3382 605.257C53.413 603.46 54.8332 602.539 55.5774 601.777C56.3216 601.015 58.4626 603.701 57.4279 605.371C56.6001 606.706 57.8897 610.437 58.638 612.136C59.3655 612.077 60.707 611.298 60.2538 608.651C59.6873 605.344 62.587 602.146 63.1859 601.838C63.7848 601.529 64.7916 603.852 63.7435 604.392C62.905 604.824 62.4436 609.103 62.3177 611.188C62.9058 612.085 64.2282 613.5 64.8129 611.987C65.5437 610.095 68.4254 605.391 70.0815 605.296C71.7375 605.201 69.6222 611.026 68.9685 613.068C68.4456 614.701 69.7183 614.892 70.4201 614.783C72.1383 613.582 75.8033 611.405 76.7178 612.298C77.8609 613.414 73.6047 616.553 71.885 617.628C70.5092 618.488 71.9375 619.937 72.8236 620.554L77.4832 619.67C77.8054 619.315 78.7383 618.797 79.8924 619.566C81.335 620.528 76.6161 622.769 74.9691 623.617C73.6514 624.295 74.5832 624.952 75.2138 625.196C77.145 625.022 80.9077 625.143 80.5081 627.016C80.0086 629.357 75.5535 628.431 74.9546 628.739C74.3556 629.048 73.3712 628.607 74.2193 630.254C75.0674 631.902 78.2699 635.178 76.8408 635.345C75.4116 635.513 72.3588 632.16 71.0749 631.874C69.791 631.588 71.4146 635.108 72.9253 635.467C74.4361 635.826 77.4978 639.932 76.8307 640.844C76.1636 641.756 73.2785 639.832 72.4393 638.938C71.6001 638.044 67.0545 635.838 65.8566 636.455C64.6587 637.072 68.3786 639.513 69.4446 640.48C70.5106 641.446 73.35 645.857 72.3745 646.17C71.399 646.483 70.8637 645.811 69.943 644.391C69.0222 642.971 65.3705 639.926 64.2408 639.939C63.1111 639.952 63.6553 641.377 65.0431 644.072C66.431 646.768 66.4488 648.274 65.3236 648.664C64.1984 649.054 62.6563 646.059 62.7971 645.229C62.9379 644.399 59.9488 640.065 58.9689 640.002C57.9889 639.938 58.9867 641.508 59.1633 643.69C59.3045 645.436 57.9572 647.847 57.2659 648.835C56.3314 648.369 54.672 647.329 55.5105 646.897C56.5586 646.358 55.7608 642.601 55.3753 641.852C54.9898 641.103 52.794 640.15 53.0432 642.106C53.2924 644.061 52.3437 646.634 51.6766 647.545C51.0095 648.457 49.1859 647.123 49.853 646.211C50.5201 645.299 50.7112 642.359 49.4139 640.944C48.1165 639.528 48.1523 642.54 47.0539 645.19C45.9555 647.839 44.7308 646.197 44.4224 645.598C44.114 644.999 46.1789 641.283 45.1263 641.447C44.0737 641.61 40.3796 647.679 38.8688 647.321C37.6602 647.034 38.1388 645.045 38.5291 644.086C39.2689 642.947 40.5814 640.566 39.9136 640.153C39.0789 639.635 38.271 641.377 37.8352 642.738C37.3994 644.099 34.4048 645.641 33.1935 645.128C31.9822 644.616 34.0651 642.406 35.4763 640.733C36.8876 639.059 37.9861 636.409 34.3969 638.636C30.8078 640.863 29.0613 639.679 28.0724 638.862C27.0835 638.045 30.7631 637.098 32.2649 636.703C33.4663 636.388 33.9514 634.951 34.0438 634.272C33.684 633.573 32.742 632.479 31.8526 633.695C30.7407 635.215 30.4413 635.369 28.6221 634.411C26.803 633.454 28.1372 631.63 29.6434 631.612C30.8485 631.598 32.8467 630.72 33.6952 630.284C33.5879 629.707 32.8135 628.351 30.5742 627.534C27.7751 626.512 27.013 625.768 26.918 624.112C26.8421 622.787 28.9037 624.289 29.944 625.206C30.8741 625.295 33.1706 625.439 34.9165 625.298C36.6623 625.156 35.9225 623.327 35.3344 622.43C34.0885 621.114 31.8353 618.284 32.79 617.489C33.9834 616.496 36.2876 620.235 38.0296 621.043C39.4232 621.689 39.3455 619.797 39.1325 618.77C38.1179 617.903 36.2348 615.791 36.8194 614.278C37.5502 612.386 40.1627 616.724 41.5372 618.289C42.6367 619.542 43.1507 618.848 43.2703 618.344C41.9655 616.301 39.6255 612.075 40.7036 611.52C41.7816 610.965 44.0618 615.221 45.0671 617.419M59.6169 618.451C57.5192 619.405 54.9115 621.821 57.4559 626.763C59.6784 629.975 60.5355 632.375 65.0498 631.945C69.5642 631.515 69.3842 622.704 67.4064 621.07C65.4286 619.437 61.8279 616.859 59.6169 618.451ZM43.8502 622.781C41.3804 624.116 36.5412 627.644 36.9435 631.074C37.4463 635.361 38.3034 637.761 42.4591 638.842C46.6147 639.922 50.2318 633.703 49.9781 631.371C49.7245 629.039 48.5914 622.424 43.8502 622.781Z" stroke="#435234" stroke-width="2"/>
<ellipse cx="44.8429" cy="630.227" rx="2.52628" ry="2.86311" transform="rotate(-27.2452 44.8429 630.227)" fill="#435234"/>
<ellipse cx="60.9726" cy="624.763" rx="1.8526" ry="2.35786" transform="rotate(-27.2452 60.9726 624.763)" fill="#435234"/>
<path d="M127.207 570.233C128.975 565.822 132.688 557.177 133.393 557.884C134.275 558.767 131.414 566.655 130.374 569.924C129.541 572.539 129.905 571.792 131.098 573.194C132.291 574.597 134.566 571.681 134.941 570.187C135.41 568.318 139.36 561.366 141.02 561.782C142.681 562.199 140.239 564.896 139.927 566.142C139.615 567.387 136.34 573.406 138.001 573.822C139.662 574.239 143.974 568.48 144.599 565.989C145.223 563.498 147.351 563.811 148.701 563.708C150.051 563.606 149.84 567.966 147.452 568.691C145.541 569.27 143.641 573.913 142.93 576.162C143.674 576.716 145.608 577.098 147.396 574.192C149.63 570.561 155.081 569.942 155.911 570.15C156.742 570.358 155.753 573.42 154.3 573.056C153.138 572.764 149.107 576.46 147.237 578.345C147.046 579.694 147.12 582.155 148.948 581.201C151.233 580.009 157.93 577.937 159.59 579.236C161.25 580.535 154.344 584.319 152.007 585.719C150.138 586.839 151.192 588.089 151.953 588.574C154.6 588.87 159.925 589.867 160.048 591.486C160.203 593.511 153.507 592.935 150.964 592.518C148.93 592.184 149.077 594.766 149.404 596.098L154.593 599.165C155.198 599.096 156.523 599.384 156.979 601.087C157.548 603.215 151.165 601.394 148.882 600.821C147.055 600.363 147.393 601.772 147.791 602.533C149.779 603.988 153.268 607.261 151.316 608.713C148.875 610.528 145.4 605.906 144.57 605.697C143.74 605.489 143.17 604.243 142.597 606.527C142.024 608.81 142.332 614.624 140.827 613.584C139.323 612.545 139.223 606.784 138.238 605.433C137.253 604.083 135.848 608.806 136.988 610.415C138.129 612.025 137.605 618.513 136.204 618.824C134.802 619.134 133.663 614.877 133.612 613.32C133.562 611.763 131.074 605.843 129.414 605.427C127.753 605.011 129.254 610.462 129.461 612.279C129.667 614.095 128.676 620.687 127.483 620.167C126.289 619.647 126.342 618.557 126.655 616.429C126.968 614.301 126.038 608.331 124.948 607.396C123.859 606.461 123.183 608.277 122.246 612.014C121.309 615.75 120.062 617.203 118.661 616.631C117.26 616.059 118.301 611.907 119.132 611.233C119.963 610.559 120.747 603.915 119.865 603.032C118.983 602.149 118.618 604.485 116.955 606.716C115.625 608.5 112.316 609.671 110.828 610.033C110.327 608.804 109.616 606.42 110.779 606.711C112.232 607.076 114.622 602.821 114.883 601.783C115.143 600.745 113.847 597.993 112.444 600.068C111.041 602.144 107.978 603.802 106.576 604.113C105.174 604.423 104.553 601.62 105.955 601.309C107.357 600.999 110.006 598.354 109.956 595.914C109.906 593.474 107.412 596.379 104.141 597.986C100.87 599.593 101.079 596.998 101.287 596.167C101.496 595.337 106.584 593.524 105.442 592.796C104.301 592.069 95.6825 594.762 94.5417 593.152C93.6291 591.864 95.7549 590.367 96.9318 589.78C98.5932 589.314 101.843 588.143 101.553 587.188C101.191 585.994 98.9582 586.978 97.4003 587.912C95.8425 588.845 91.6908 587.804 90.9652 586.298C90.2396 584.792 94.0809 584.431 96.8322 584.018C99.5835 583.605 102.855 581.998 97.561 581.112C92.2672 580.226 91.5943 577.63 91.3359 576.021C91.0776 574.411 95.3842 576.595 97.1483 577.478C98.5597 578.185 100.228 577.221 100.886 576.65C101.129 575.682 101.148 573.848 99.2788 574.262C96.9427 574.779 96.5275 574.675 95.5949 572.235C94.6624 569.794 97.4658 569.173 98.9182 570.42C100.08 571.418 102.723 572.257 103.9 572.552C104.281 571.912 104.68 569.968 103.229 567.309C101.414 563.986 101.312 562.636 102.61 560.976C103.649 559.648 104.357 562.811 104.58 564.559C105.393 565.425 107.464 567.489 109.249 568.819C111.033 570.149 111.862 567.782 112.053 566.433C111.969 564.132 112.193 559.54 113.771 559.583C115.744 559.636 114.805 565.137 115.79 567.37C116.578 569.156 118.091 567.285 118.749 566.126C118.508 564.448 118.483 560.853 120.311 559.899C122.596 558.707 121.449 565.038 121.447 567.685C121.446 569.803 122.519 569.572 123.055 569.192C123.525 566.147 124.837 560.151 126.332 560.526C127.826 560.901 126.431 566.876 125.547 569.817M138.565 583.01C135.763 582.16 131.247 582.278 129.529 589.129C128.955 594.059 127.759 597.069 132.428 600.446C137.097 603.823 144.318 595.264 143.801 592.046C143.285 588.827 142.011 583.346 138.565 583.01ZM119.886 573.913C116.409 573.115 108.831 572.421 106.337 576.031C103.219 580.545 102.023 583.555 105.082 588.073C108.142 592.591 116.812 589.69 118.527 587.252C120.241 584.814 124.71 577.55 119.886 573.913Z" stroke="#435234" stroke-width="2"/>
<ellipse cx="114.586" cy="581.851" rx="3.21021" ry="3.63824" transform="rotate(14.0776 114.586 581.851)" fill="#435234"/>
<ellipse cx="134.563" cy="590.17" rx="2.35416" ry="2.9962" transform="rotate(14.0776 134.563 590.17)" fill="#435234"/>
<path d="M171.324 252.373C175.478 236.804 180.476 207.109 173.78 192.325M119.628 277.281C116.476 280.937 112.376 284.525 107.668 287.468M107.668 287.468C95.9806 294.774 80.546 298.107 66.5636 288.654C46.9488 275.394 44.0982 256.396 48.0781 249.45C42.2895 254.456 23.5554 245.849 19.1892 232.074M107.668 287.468C108.604 289.426 112.561 292.327 120.898 288.272M81.5128 213.352C82.9369 213.581 85.9677 214.37 86.698 215.701C87.6109 217.365 88.5238 219.028 87.3006 220.349M113.317 179.015C115.128 170.879 116.194 154.363 105.966 153.396C95.7389 152.429 91.1374 157.927 90.115 160.797C88.5923 165.384 85.6544 175.149 86.0845 177.511M100.991 167.599C99.2483 170.62 95.846 177.555 96.1743 181.131M96.1743 181.131C106.41 181.301 115.691 184.486 118.289 186.892C136.28 179.348 146.216 175.529 161.838 182.26M96.1743 181.131C89.0651 181.013 81.4956 182.35 75.3859 186.412C63.4611 194.342 59.2723 201.749 58.6685 204.461C52.8098 199.307 37.5367 193.721 23.3142 212.609C18.056 219.592 17.3555 226.289 19.1892 232.074M206.678 144.444C205.58 145.335 202.761 146.377 200.27 143.416C197.156 139.713 191.808 133.125 184.682 135.521C178.929 136.081 177.05 135.813 173.186 134.687C169.321 133.561 160.19 130.174 158.363 135.679C156.536 141.184 172.32 145.335 173.64 146.558C174.961 147.782 179.803 152.267 181.124 153.49C182.445 154.713 187.533 154.518 187.533 154.518M208.634 151.163C211.085 152.342 215.612 155.991 214.111 161.143C212.61 166.296 220.823 170.086 225.117 171.337C226.269 171.859 228.423 173.418 227.823 175.479C227.073 178.055 227.137 179.751 220.827 181.267C215.267 182.602 196.156 182.808 188.952 179.751M184.48 174.591C183.904 174.33 183.55 174.712 186.746 178.326C187.222 178.864 187.978 179.337 188.952 179.751M171.194 149.2C169.209 152.814 166.46 160.845 171.338 164.055C171.866 164.402 172.41 164.698 172.967 164.945M190.336 161.205C186.209 164.854 178.857 167.563 172.967 164.945M172.967 164.945C169.462 168.73 162.329 177.491 161.838 182.26M161.838 182.26C163.633 183.033 165.504 183.946 167.47 185.009C170.239 186.505 172.296 189.049 173.78 192.325M188.952 179.751C184.647 184.307 175.586 193.2 173.78 192.325M246.778 138.238C243.222 138.925 237.88 140.049 233.223 141.222M223.67 144.642C224.159 143.752 228.31 142.46 233.223 141.222M233.223 141.222C233.317 141.964 232.457 156.053 232.016 163.005M232.016 163.005L226.048 162.384M232.016 163.005L241.784 163.056M226.571 153.872L244.753 151.902M188.095 102.696L188.337 120.095M175.131 107.863L176.475 115.242M177.819 122.621L176.475 115.242M205.054 102.046C204.106 104.605 202.715 108.311 201.392 111.74M197.697 120.586C198.066 120.188 199.672 116.197 201.392 111.74M201.392 111.74L176.475 115.242M136.565 209.545C143.485 209.139 158.08 210.335 161.105 218.371C161.911 220.513 162.202 222.479 162.149 224.245M145.38 251.243L144.68 244.052L157.412 233.762C159.24 232.455 162.001 229.108 162.149 224.245M162.149 224.245C158.295 223.129 149.419 221.451 144.749 223.668M182.983 257.446C180.901 258.516 176.436 261.688 175.235 265.81C173.734 270.963 170.227 279.164 167.647 300.493C165.067 321.822 157.447 355.657 128.84 384.776C105.875 408.152 64.7424 421.553 36.0075 414.361M17.5266 405.174C22.6364 409.584 28.9478 412.594 36.0075 414.361M19.1892 232.074C4.21127 242.064 -29.1024 274.145 -42.534 322.555M12.1212 252.95C7.8646 256.368 -0.0128457 264.284 2.53031 268.603C3.61869 270.451 5.15034 270.742 6.71612 270.265M12.2006 266.11C10.9628 267.614 8.809 269.626 6.71612 270.265M6.71612 270.265C6.71692 272.104 7.39006 274.58 9.66748 274.143M13.6836 271.573C11.9816 273.194 10.6693 273.95 9.66748 274.143M9.66748 274.143C9.14671 276.471 11.7352 280.564 17.7105 276.938C25.1798 272.406 28.4741 269.732 32.5515 265.33M56.7779 299.219C52.2494 302.931 43.7273 311.014 45.8663 313.649C46.7796 314.774 48.0445 314.844 49.3319 314.405M53.8407 311.221C52.8282 312.314 51.0599 313.817 49.3319 314.405M49.3319 314.405C48.5135 315.556 47.568 318.17 50.3334 319.422C51.5319 319.965 52.9535 319.67 54.3124 319.019M58.6831 315.706C57.7589 316.704 56.0892 318.166 54.3124 319.019M54.3124 319.019C53.0619 321.132 52.2502 325.124 59.0078 324.185C62.7587 323.665 70.1302 321.498 77.7 318.598M100.348 306.043C96.9661 310.185 87.1777 314.967 77.7 318.598M77.7 318.598C79.4533 325.675 77.3952 345.306 55.1362 367.218M-17.2541 295.261C-25.6074 305.971 -37.206 328.536 -32.3479 349.527M30.4444 387.696C21.596 391.223 -1.47539 392.154 -22.9732 367.662C-27.9412 362.002 -30.8878 355.836 -32.3479 349.527M-32.3479 349.527C-38.1644 354.924 -48.9236 366.363 -45.4278 368.947C-44.1665 369.879 -42.904 369.882 -41.7434 369.384M-37.1106 364.382C-37.9517 366.043 -39.6874 368.501 -41.7434 369.384M-41.7434 369.384C-42.0695 370.619 -42.2813 373.497 -40.5205 375.128C-39.2745 376.282 -35.9355 374.734 -33.1147 372.991M-30.0672 370.906C-30.8716 371.516 -31.9489 372.27 -33.1147 372.991M-33.1147 372.991C-34.6595 375.649 -36.8883 381.273 -33.4445 382.5C-30.0008 383.726 -24.7689 379.903 -22.5835 377.838M36.0075 414.361C29.5465 421.925 16.1714 436.307 14.3586 433.319C13.2256 431.452 13.0668 430.078 13.701 428.621M17.8009 423.422C15.7622 425.623 14.3351 427.163 13.701 428.621M13.701 428.621C12.0559 429.551 8.48855 430.827 7.38007 428.491C6.65169 426.957 6.40093 425.639 7.04241 424.089M11.2626 419.001C8.92643 421.105 7.62122 422.691 7.04241 424.089M7.04241 424.089C5.56249 424.627 2.41357 425.2 1.65726 423.191C0.711881 420.679 3.53359 416.75 5.16455 414.989M80.9249 419.73C82.7664 427.161 90.0569 438.657 104.487 425.197C122.525 408.371 125.022 395.962 135.703 397.676C144.247 399.047 148.992 400.988 149.97 404.348C150.948 407.707 141.75 411.456 133.368 414.325C124.986 417.194 110.095 438.569 105.48 440.02C100.865 441.47 82.7702 443.522 75.949 433.933M172.283 315.419C171.684 321.953 168.826 338.225 162.183 351.048M153.621 360.292C151.805 364.608 146.616 374.742 140.393 380.755" stroke="#435234" stroke-width="2"/>
<ellipse cx="103.523" cy="233.739" rx="3.00018" ry="4.80028" transform="rotate(42.8067 103.523 233.739)" fill="#435234"/>
<path d="M214.962 139.032C211.701 142.553 210.245 142.841 209.456 142.11C208.667 141.379 209.251 139.466 212.39 136.649C214.192 134.704 215.191 134.336 215.98 135.067C216.769 135.798 216.764 137.087 214.962 139.032Z" fill="#435234"/>
<path d="M206.617 130.279C202.947 134.241 202.384 135.56 201.223 134.485C200.062 133.409 200.497 131.052 204.129 127.975C206.155 125.787 207.402 125.485 208.562 126.561C209.723 127.636 208.644 128.091 206.617 130.279Z" fill="#435234"/>
<ellipse cx="72.6431" cy="203.501" rx="3.00017" ry="4.80028" transform="rotate(53.14 72.6431 203.501)" fill="#435234"/>
<path d="M74.7844 227.316C72.8106 225.546 73.9511 220.737 75.5549 218.949C77.1587 217.16 78.6185 219.068 80.5924 220.838C82.5663 222.608 84.4233 224.346 82.8194 226.135C81.2156 227.923 76.7583 229.085 74.7844 227.316Z" fill="#435234"/>
</g>
<defs>
<clipPath id="clip0_404_297">
<rect width="400" height="741" fill="white"/>
</clipPath>
</defs>
</svg>
