<svg width="153" height="268" viewBox="0 0 153 268" fill="none" xmlns="http://www.w3.org/2000/svg">
<path d="M116.329 119.932L152.003 121.483M111.675 127.687L147.35 133.891M34.1231 115.279H0M38.7762 123.034L6.20419 129.238" stroke="#FFFAF4" stroke-width="3"/>
<path d="M117.893 0C118.362 0.000180815 118.808 0.253655 119.206 0.59668C119.614 0.949236 120.038 1.45377 120.469 2.08301C121.331 3.34396 122.269 5.17552 123.209 7.49512C125.091 12.1401 127.01 18.8079 128.352 26.9414C131.034 43.1858 131.424 65.3228 124.607 88.9424C126.532 100.971 125.565 110.042 123.04 116.881C120.506 123.745 116.416 128.33 112.176 131.388C107.94 134.441 103.561 135.965 100.441 136.727C99.0957 137.055 97.9813 137.24 97.2107 137.347C97.4686 137.77 97.7587 138.37 98.075 139.114C98.7184 140.627 99.5031 142.806 100.39 145.487C102.166 150.854 104.369 158.278 106.703 166.52C111.369 183 116.563 202.774 119.925 215.96C123.029 226.053 125.407 238.999 120.872 249.448C116.301 259.982 104.811 267.78 80.6678 267.78C50.9778 267.78 37.0668 259.78 31.6824 248.262C29.0029 242.529 28.4724 235.992 29.0916 229.278C29.7108 222.564 31.4833 215.637 33.4431 209.104L33.4471 209.09L33.4529 209.075L42.1092 185.606C49.7018 162.829 56.646 148.266 64.241 137.427C46.0367 135.975 36.2818 127.716 31.5545 117.859C26.7902 107.926 27.1692 96.4482 28.9793 88.877C27.4277 73.3039 25.266 35.4968 28.99 8.1875L28.9978 8.13379L29.0164 8.08203C30.116 5.09742 31.4634 3.18912 33.073 2.32422C34.7252 1.43664 36.5217 1.71266 38.324 2.77344C40.1141 3.82714 41.9773 5.68737 43.867 8.11133C45.7621 10.5423 47.709 13.573 49.658 17.0039C57.3891 30.6138 65.2479 50.6828 70.1707 65.1445H80.2547C83.9931 45.4297 90.1753 29.2298 96.99 17.9238C100.42 12.233 104.02 7.76583 107.562 4.71582C111.098 1.67178 114.623 0 117.893 0ZM52.7361 84.2568C42.4567 84.2568 34.1229 92.5898 34.1228 102.869C34.1228 113.149 42.4567 121.481 52.7361 121.481C63.0154 121.481 71.3484 113.148 71.3484 102.869C71.3483 92.5899 63.0153 84.2571 52.7361 84.2568ZM99.2674 84.2568C88.988 84.2568 80.6542 92.5898 80.6541 102.869C80.6541 113.149 88.9879 121.481 99.2674 121.481C109.547 121.481 117.88 113.148 117.88 102.869C117.88 92.5899 109.547 84.257 99.2674 84.2568ZM116.171 10.8828C115.767 11.0173 115.369 11.3264 114.986 11.7168C114.595 12.116 114.179 12.643 113.746 13.2734C112.879 14.5354 111.913 16.2569 110.902 18.3154C108.879 22.4357 106.65 27.9542 104.648 33.9609C102.646 39.9683 100.865 46.477 99.74 52.5781C98.6169 58.67 98.1405 64.3948 98.7722 68.8174L98.7986 69L98.9383 69.1221C103.938 73.4967 109.015 76.6221 113.04 78.6543C115.052 79.6704 116.806 80.4151 118.16 80.9072C118.836 81.1531 119.417 81.3374 119.883 81.4609C120.334 81.5807 120.718 81.6543 120.982 81.6543C121.249 81.6541 121.404 81.4743 121.456 81.4043C121.52 81.3178 121.565 81.2194 121.596 81.1377C121.662 80.9681 121.719 80.7423 121.771 80.4834C121.877 79.9578 121.981 79.2015 122.081 78.2588C122.282 76.3683 122.472 73.6743 122.63 70.4473C122.945 63.9904 123.13 55.3715 122.994 46.7139C122.858 38.0599 122.403 29.3483 121.433 22.7148C120.949 19.4021 120.333 16.5786 119.553 14.5342C119.164 13.5131 118.724 12.6592 118.22 12.0322C117.715 11.405 117.112 10.9641 116.399 10.8623L116.283 10.8457L116.171 10.8828ZM35.6746 12.4082C35.0399 12.4082 34.5562 12.8296 34.201 13.3623C33.8407 13.9027 33.539 14.6608 33.2791 15.5703C32.7573 17.3967 32.3656 19.9787 32.074 23.04C31.4901 29.1716 31.2967 37.3341 31.2967 45.4805C31.2967 53.6305 31.4904 61.7795 31.6844 67.8896C31.7813 70.9446 31.8782 73.4909 31.951 75.2734C31.9873 76.1643 32.0186 76.8651 32.0398 77.3428C32.0504 77.5813 32.0585 77.7652 32.0642 77.8887C32.0671 77.9499 32.0686 77.9969 32.0701 78.0283C32.0708 78.0438 32.0717 78.0565 32.0721 78.0645C32.0722 78.068 32.0729 78.0713 32.073 78.0732V78.0752L32.5721 78.0527L32.073 78.0762L32.0955 78.5527H32.5721V78.0527L32.574 78.5527H32.5857C32.5911 78.5526 32.5975 78.5521 32.6043 78.5518C32.6179 78.5511 32.6345 78.5496 32.6541 78.5479C32.6935 78.5443 32.7459 78.5386 32.8113 78.5273C32.9421 78.5049 33.1277 78.4624 33.3767 78.3838C33.8746 78.2265 34.632 77.9213 35.7195 77.3281C37.8935 76.1423 41.4134 73.7921 46.8572 69.126C48.0628 68.0925 48.8376 66.3969 49.3015 64.3184C49.7679 62.2286 49.9354 59.6829 49.8719 56.8691C49.7447 51.2395 48.6903 44.4563 47.1736 37.9229C45.6566 31.3881 43.6713 25.0762 41.6697 20.3896C40.6702 18.0494 39.6577 16.0937 38.6873 14.7148C38.2026 14.0262 37.7152 13.4623 37.2303 13.0664C36.7503 12.6746 36.2249 12.4083 35.6746 12.4082Z" fill="#FFFAF4"/>
<ellipse cx="60.4909" cy="102.871" rx="4.65314" ry="6.20419" fill="#FFFAF4"/>
<ellipse cx="94.614" cy="102.871" rx="4.65314" ry="6.20419" fill="#FFFAF4"/>
</svg>
