<svg width="148" height="53" viewBox="0 0 148 53" fill="none" xmlns="http://www.w3.org/2000/svg">
<path d="M22.2907 24.145L29.1265 24.4423M21.399 25.6311L28.2348 26.8199M6.53859 23.2534H0M7.43022 24.7395L1.18884 25.9283" stroke="white"/>
<path d="M22.5902 0.759766C22.8239 0.759806 23.002 0.883095 23.1058 0.972656C23.2205 1.0716 23.3243 1.19889 23.4174 1.33496C23.6051 1.60952 23.7978 1.98947 23.9838 2.44824C24.3577 3.37085 24.7323 4.67847 24.9935 6.26074C25.512 9.40164 25.5876 13.6696 24.2885 18.2295C24.6475 20.5441 24.4622 22.3273 23.9554 23.7002C23.4393 25.0984 22.6018 26.04 21.7308 26.668C20.865 27.2921 19.9736 27.6017 19.3422 27.7559C19.2983 27.7666 19.2547 27.7729 19.2133 27.7822C19.3323 28.0765 19.4707 28.4625 19.6205 28.915C19.9636 29.9519 20.3878 31.3813 20.8353 32.9619C21.7306 36.1239 22.7269 39.9157 23.3715 42.4443C23.9672 44.3871 24.461 46.9844 23.5326 49.124C22.5662 51.3507 20.166 52.8799 15.4574 52.8799C9.72124 52.8799 6.83913 51.3337 5.70447 48.9062C5.14987 47.7196 5.04987 46.3873 5.17224 45.0605C5.29468 43.7334 5.64314 42.3754 6.02087 41.1162L6.03064 41.0869L7.6908 36.5869C9.025 32.5868 10.2634 29.8807 11.601 27.8262C8.40749 27.3954 6.59367 25.8236 5.68201 23.9229C4.73116 21.9402 4.79821 19.6777 5.14587 18.167C4.84818 15.1332 4.43999 7.92021 5.15466 2.67871L5.16248 2.62402L5.18103 2.57324C5.403 1.97079 5.70599 1.4893 6.14587 1.25293C6.62824 0.993804 7.12838 1.09971 7.54822 1.34668C7.95591 1.58665 8.35098 1.99 8.72498 2.46973C9.10427 2.95629 9.48752 3.55537 9.86658 4.22266C11.318 6.77772 12.7823 10.4872 13.7328 13.2422H15.0463C15.7752 9.57547 16.9419 6.54103 18.2386 4.38965C18.9103 3.27543 19.6263 2.3824 20.347 1.76172C21.061 1.147 21.8274 0.759871 22.5902 0.759766ZM10.1049 17.3096C8.13525 17.3097 6.53845 18.9063 6.53845 20.876C6.53863 22.8455 8.13536 24.4422 10.1049 24.4424C12.0745 24.4424 13.6711 22.8455 13.6713 20.876C13.6713 18.9062 12.0746 17.3096 10.1049 17.3096ZM19.0219 17.3096C17.0521 17.3096 15.4545 18.9062 15.4545 20.876C15.4546 22.8455 17.0522 24.4424 19.0219 24.4424C20.9912 24.4421 22.5881 22.8454 22.5883 20.876C22.5883 18.9064 20.9914 17.3098 19.0219 17.3096ZM22.1332 2.86523C21.9651 2.92127 21.8342 3.03558 21.7455 3.12598C21.6483 3.22505 21.5537 3.34693 21.4633 3.47852C21.2818 3.7428 21.086 4.09208 20.8881 4.49512C20.4906 5.30438 20.0572 6.37945 19.6693 7.54297C19.2812 8.70729 18.9349 9.97358 18.7152 11.165C18.4972 12.3474 18.3966 13.4953 18.5267 14.4072L18.5531 14.5908L18.6927 14.7129C19.6801 15.5768 20.6823 16.1936 21.4789 16.5957C21.877 16.7967 22.2274 16.9465 22.5033 17.0469C22.6409 17.0969 22.7647 17.1365 22.8685 17.1641C22.9581 17.1878 23.0759 17.2139 23.183 17.2139C23.4302 17.2136 23.5646 17.0472 23.597 17.0039C23.6416 16.9442 23.6668 16.8859 23.6781 16.8564C23.7029 16.7918 23.7186 16.7209 23.7299 16.665C23.7539 16.5457 23.7758 16.386 23.7953 16.2021C23.8349 15.8291 23.8714 15.3041 23.9017 14.6826C23.9626 13.4369 23.9982 11.7761 23.972 10.1084C23.9459 8.44461 23.8587 6.75479 23.6693 5.45801C23.5751 4.81359 23.4517 4.23775 23.2865 3.80469C23.2042 3.5891 23.1017 3.38187 22.9681 3.21582C22.8344 3.04958 22.6354 2.88392 22.3617 2.84473L22.2445 2.82812L22.1332 2.86523ZM6.8363 3.13672C6.51522 3.13672 6.31546 3.35274 6.21716 3.5C6.11418 3.65457 6.0428 3.84671 5.98865 4.03613C5.87824 4.42256 5.8 4.94725 5.74353 5.54004C5.62976 6.73466 5.59315 8.31513 5.59314 9.87891C5.59315 11.4461 5.63012 13.0125 5.66736 14.1855C5.68597 14.7718 5.70514 15.261 5.71912 15.6035C5.7261 15.7745 5.73163 15.91 5.73572 16.002C5.73775 16.0476 5.7395 16.0836 5.7406 16.1074C5.74112 16.1186 5.74131 16.1278 5.74158 16.1338C5.74171 16.1366 5.74239 16.1399 5.74255 16.1416V16.1436L5.76501 16.6201H6.24158V16.1201L6.24353 16.6201H6.2533C6.25719 16.62 6.26194 16.6193 6.26599 16.6191C6.27446 16.6187 6.28406 16.618 6.29333 16.6172C6.31216 16.6155 6.33335 16.6132 6.35583 16.6094C6.40094 16.6016 6.45495 16.5883 6.51794 16.5684C6.64354 16.5286 6.81316 16.4588 7.03845 16.3359C7.48843 16.0904 8.18641 15.6202 9.24158 14.7158C9.56936 14.4346 9.74553 14.0091 9.84216 13.5762C9.94119 13.1322 9.97289 12.6085 9.96033 12.0518C9.93509 10.9358 9.72724 9.60645 9.43298 8.33887C9.13848 7.07032 8.75185 5.83715 8.35681 4.91211C8.1606 4.45273 7.95374 4.0484 7.74451 3.75098C7.64039 3.60306 7.52215 3.46241 7.39001 3.35449C7.27872 3.26364 7.11966 3.16582 6.92322 3.14258L6.8363 3.13672Z" fill="#FFFAF4"/>
<ellipse cx="11.5912" cy="20.8758" rx="0.891627" ry="1.18884" fill="#FFFAF4"/>
<ellipse cx="18.1298" cy="20.8758" rx="0.891627" ry="1.18884" fill="#FFFAF4"/>
<path d="M42.744 10.0358C42.744 10.5904 42.7353 11.1711 42.718 11.7778C42.7007 12.3671 42.6833 12.9564 42.666 13.5458H42.718C42.874 13.3551 43.0387 13.1558 43.212 12.9478C43.3853 12.7224 43.5673 12.5058 43.758 12.2978C43.9487 12.0724 44.1307 11.8644 44.304 11.6738L49.556 5.92777H51.324L45.838 11.8558L51.792 19.7598H50.024L44.824 12.8178L42.744 14.9758V19.7598H41.288V-0.000235677H42.744V10.0358ZM56.8917 5.92777V19.7598H55.4357V5.92777H56.8917ZM56.1637 0.805765C56.493 0.805765 56.7443 0.909765 56.9177 1.11777C57.091 1.30843 57.1777 1.5771 57.1777 1.92376C57.1777 2.28776 57.091 2.57376 56.9177 2.78176C56.7443 2.97243 56.493 3.06777 56.1637 3.06777C55.8517 3.06777 55.609 2.97243 55.4357 2.78176C55.2623 2.57376 55.1757 2.28776 55.1757 1.92376C55.1757 1.5771 55.2623 1.30843 55.4357 1.11777C55.609 0.909765 55.8517 0.805765 56.1637 0.805765ZM64.2346 10.0358C64.2346 10.5904 64.226 11.1711 64.2086 11.7778C64.1913 12.3671 64.174 12.9564 64.1566 13.5458H64.2086C64.3646 13.3551 64.5293 13.1558 64.7026 12.9478C64.876 12.7224 65.058 12.5058 65.2486 12.2978C65.4393 12.0724 65.6213 11.8644 65.7946 11.6738L71.0466 5.92777H72.8146L67.3286 11.8558L73.2826 19.7598H71.5146L66.3146 12.8178L64.2346 14.9758V19.7598H62.7786V-0.000235677H64.2346V10.0358ZM78.3823 5.92777V19.7598H76.9263V5.92777H78.3823ZM77.6543 0.805765C77.9836 0.805765 78.2349 0.909765 78.4083 1.11777C78.5816 1.30843 78.6683 1.5771 78.6683 1.92376C78.6683 2.28776 78.5816 2.57376 78.4083 2.78176C78.2349 2.97243 77.9836 3.06777 77.6543 3.06777C77.3423 3.06777 77.0996 2.97243 76.9263 2.78176C76.7529 2.57376 76.6663 2.28776 76.6663 1.92376C76.6663 1.5771 76.7529 1.30843 76.9263 1.11777C77.0996 0.909765 77.3423 0.805765 77.6543 0.805765ZM85.4653 1.45576C85.3266 2.11443 85.1446 2.7991 84.9193 3.50977C84.7113 4.22043 84.4773 4.92243 84.2173 5.61576C83.9573 6.3091 83.6886 6.9591 83.4113 7.56577H82.3453C82.5186 7.09777 82.6746 6.5951 82.8133 6.05777C82.9693 5.5031 83.1079 4.93977 83.2293 4.36777C83.3679 3.79577 83.4806 3.2411 83.5673 2.70377C83.6713 2.16643 83.7579 1.66376 83.8273 1.19576H85.2833L85.4653 1.45576ZM97.4017 16.0938C97.4017 16.9258 97.1937 17.6364 96.7777 18.2258C96.3617 18.8151 95.755 19.2658 94.9577 19.5778C94.1604 19.8724 93.1897 20.0198 92.0457 20.0198C91.0924 20.0198 90.243 19.9331 89.4977 19.7598C88.7524 19.5864 88.1197 19.3784 87.5997 19.1358V17.7058C88.2237 18.0178 88.9257 18.2778 89.7057 18.4858C90.4857 18.6764 91.2744 18.7718 92.0717 18.7718C93.4584 18.7718 94.455 18.5464 95.0617 18.0958C95.6684 17.6278 95.9717 16.9951 95.9717 16.1978C95.9717 15.6778 95.8244 15.2531 95.5297 14.9238C95.2524 14.5771 94.8277 14.2738 94.2557 14.0138C93.701 13.7364 93.0077 13.4591 92.1757 13.1818C91.3264 12.8871 90.5724 12.5924 89.9137 12.2978C89.255 11.9858 88.7437 11.5958 88.3797 11.1278C88.0157 10.6598 87.8337 10.0184 87.8337 9.20377C87.8337 8.09443 88.2844 7.22776 89.1857 6.60376C90.087 5.97976 91.2917 5.66776 92.7997 5.66776C93.6317 5.66776 94.403 5.74576 95.1137 5.90176C95.8417 6.05776 96.5004 6.26576 97.0897 6.52577L96.5697 7.74777C96.223 7.59177 95.833 7.4531 95.3997 7.33177C94.9664 7.1931 94.5244 7.0891 94.0737 7.01977C93.623 6.95043 93.1724 6.91577 92.7217 6.91577C91.6297 6.91577 90.7804 7.10643 90.1737 7.48776C89.567 7.8691 89.2637 8.42377 89.2637 9.15177C89.2637 9.70643 89.4024 10.1484 89.6797 10.4778C89.9744 10.7898 90.399 11.0584 90.9537 11.2838C91.5257 11.5091 92.2104 11.7691 93.0077 12.0638C93.8224 12.3411 94.559 12.6358 95.2177 12.9478C95.8937 13.2598 96.4224 13.6584 96.8037 14.1438C97.2024 14.6291 97.4017 15.2791 97.4017 16.0938ZM42.77 43.7598H41.288V23.9998H42.77V43.7598ZM50.087 29.9278V43.7598H48.631V29.9278H50.087ZM49.359 24.8058C49.6883 24.8058 49.9396 24.9098 50.113 25.1178C50.2863 25.3084 50.373 25.5771 50.373 25.9238C50.373 26.2878 50.2863 26.5738 50.113 26.7818C49.9396 26.9724 49.6883 27.0678 49.359 27.0678C49.047 27.0678 48.8043 26.9724 48.631 26.7818C48.4576 26.5738 48.371 26.2878 48.371 25.9238C48.371 25.5771 48.4576 25.3084 48.631 25.1178C48.8043 24.9098 49.047 24.8058 49.359 24.8058ZM57.4299 29.4598C57.4299 29.9624 57.4213 30.4998 57.4039 31.0718C57.3866 31.6264 57.3606 32.0858 57.3259 32.4498H57.4299C57.7766 31.6524 58.3399 30.9938 59.1199 30.4738C59.9173 29.9364 60.9226 29.6678 62.1359 29.6678C63.9039 29.6678 65.2819 30.2744 66.2699 31.4878C67.2753 32.6838 67.7779 34.4604 67.7779 36.8178C67.7779 38.2738 67.5526 39.5391 67.1019 40.6138C66.6686 41.6884 66.0099 42.5291 65.1259 43.1358C64.2593 43.7251 63.1933 44.0198 61.9279 44.0198C60.7666 44.0198 59.8133 43.7771 59.0679 43.2918C58.3399 42.8064 57.8026 42.2171 57.4559 41.5238H57.3259L57.0399 43.7598H55.9479V23.9998H57.4299V29.4598ZM61.9279 30.9418C60.8706 30.9418 60.0039 31.1671 59.3279 31.6178C58.6693 32.0684 58.1839 32.7271 57.8719 33.5938C57.5773 34.4604 57.4299 35.5351 57.4299 36.8178V36.9998C57.4299 38.8718 57.7593 40.3018 58.4179 41.2898C59.0939 42.2604 60.2033 42.7458 61.7459 42.7458C63.2366 42.7458 64.3546 42.2344 65.0999 41.2118C65.8626 40.1891 66.2439 38.7244 66.2439 36.8178C66.2439 34.8591 65.8886 33.3944 65.1779 32.4238C64.4673 31.4358 63.3839 30.9418 61.9279 30.9418ZM78.5064 29.6938C78.8531 29.6938 79.1824 29.7198 79.4944 29.7718C79.8237 29.8064 80.1184 29.8584 80.3784 29.9278L80.1704 31.2798C79.8931 31.2104 79.6157 31.1584 79.3384 31.1238C79.0611 31.0718 78.7577 31.0458 78.4284 31.0458C77.8044 31.0458 77.2411 31.1671 76.7384 31.4098C76.2357 31.6524 75.8024 31.9991 75.4384 32.4498C75.0744 32.9004 74.7971 33.4378 74.6064 34.0618C74.4157 34.6858 74.3204 35.3878 74.3204 36.1678V43.7598H72.8384V29.9278H74.0864L74.2424 32.5278H74.3204C74.5457 31.9904 74.8491 31.5138 75.2304 31.0978C75.6291 30.6644 76.1057 30.3264 76.6604 30.0838C77.2151 29.8238 77.8304 29.6938 78.5064 29.6938ZM88.751 29.6938C90.311 29.6938 91.4723 30.0751 92.235 30.8378C92.9977 31.6004 93.379 32.8138 93.379 34.4778V43.7598H92.261L92.001 41.4198H91.923C91.5937 41.9398 91.2123 42.3991 90.779 42.7978C90.363 43.1791 89.8517 43.4824 89.245 43.7078C88.6557 43.9158 87.9277 44.0198 87.061 44.0198C86.1943 44.0198 85.4403 43.8724 84.799 43.5778C84.1577 43.2658 83.6637 42.8238 83.317 42.2518C82.9703 41.6798 82.797 40.9778 82.797 40.1458C82.797 38.7764 83.3603 37.7364 84.487 37.0258C85.6137 36.2978 87.2517 35.8818 89.401 35.7778L91.923 35.6738V34.6858C91.923 33.3164 91.6457 32.3544 91.091 31.7998C90.5537 31.2278 89.7477 30.9418 88.673 30.9418C87.9623 30.9418 87.2777 31.0371 86.619 31.2278C85.9777 31.4011 85.3277 31.6524 84.669 31.9818L84.201 30.8118C84.8423 30.4824 85.553 30.2138 86.333 30.0058C87.113 29.7978 87.919 29.6938 88.751 29.6938ZM89.557 36.8698C87.8063 36.9564 86.4977 37.2684 85.631 37.8058C84.7643 38.3258 84.331 39.1144 84.331 40.1718C84.331 41.0211 84.5997 41.6711 85.137 42.1218C85.6743 42.5551 86.4023 42.7718 87.321 42.7718C88.7943 42.7718 89.921 42.3644 90.701 41.5498C91.4983 40.7351 91.9057 39.5911 91.923 38.1178V36.7658L89.557 36.8698ZM100.558 29.4598C100.558 29.9624 100.55 30.4998 100.532 31.0718C100.515 31.6264 100.489 32.0858 100.454 32.4498H100.558C100.905 31.6524 101.468 30.9938 102.248 30.4738C103.046 29.9364 104.051 29.6678 105.264 29.6678C107.032 29.6678 108.41 30.2744 109.398 31.4878C110.404 32.6838 110.906 34.4604 110.906 36.8178C110.906 38.2738 110.681 39.5391 110.23 40.6138C109.797 41.6884 109.138 42.5291 108.254 43.1358C107.388 43.7251 106.322 44.0198 105.056 44.0198C103.895 44.0198 102.942 43.7771 102.196 43.2918C101.468 42.8064 100.931 42.2171 100.584 41.5238H100.454L100.168 43.7598H99.0765V23.9998H100.558V29.4598ZM105.056 30.9418C103.999 30.9418 103.132 31.1671 102.456 31.6178C101.798 32.0684 101.312 32.7271 101 33.5938C100.706 34.4604 100.558 35.5351 100.558 36.8178V36.9998C100.558 38.8718 100.888 40.3018 101.546 41.2898C102.222 42.2604 103.332 42.7458 104.874 42.7458C106.365 42.7458 107.483 42.2344 108.228 41.2118C108.991 40.1891 109.372 38.7244 109.372 36.8178C109.372 34.8591 109.017 33.3944 108.306 32.4238C107.596 31.4358 106.512 30.9418 105.056 30.9418ZM121.635 29.6938C121.982 29.6938 122.311 29.7198 122.623 29.7718C122.952 29.8064 123.247 29.8584 123.507 29.9278L123.299 31.2798C123.022 31.2104 122.744 31.1584 122.467 31.1238C122.19 31.0718 121.886 31.0458 121.557 31.0458C120.933 31.0458 120.37 31.1671 119.867 31.4098C119.364 31.6524 118.931 31.9991 118.567 32.4498C118.203 32.9004 117.926 33.4378 117.735 34.0618C117.544 34.6858 117.449 35.3878 117.449 36.1678V43.7598H115.967V29.9278H117.215L117.371 32.5278H117.449C117.674 31.9904 117.978 31.5138 118.359 31.0978C118.758 30.6644 119.234 30.3264 119.789 30.0838C120.344 29.8238 120.959 29.6938 121.635 29.6938ZM125.211 29.9278H126.797L130.073 38.5338C130.264 39.0364 130.437 39.5044 130.593 39.9378C130.749 40.3711 130.888 40.7784 131.009 41.1598C131.131 41.5238 131.235 41.8618 131.321 42.1738H131.399C131.521 41.7751 131.685 41.2638 131.893 40.6398C132.101 39.9984 132.344 39.3051 132.621 38.5598L135.845 29.9278H137.431L131.191 46.2298C130.879 47.0271 130.533 47.7118 130.151 48.2838C129.77 48.8558 129.319 49.2891 128.799 49.5838C128.279 49.8958 127.655 50.0518 126.927 50.0518C126.598 50.0518 126.295 50.0258 126.017 49.9738C125.757 49.9391 125.506 49.8871 125.263 49.8178V48.5698C125.489 48.6218 125.714 48.6651 125.939 48.6998C126.182 48.7518 126.451 48.7778 126.745 48.7778C127.231 48.7778 127.655 48.6738 128.019 48.4658C128.383 48.2751 128.704 47.9718 128.981 47.5558C129.259 47.1571 129.51 46.6544 129.735 46.0478L130.645 43.7078L125.211 29.9278Z" fill="#FFFAF4"/>
</svg>
