<svg width="231" height="201" viewBox="0 0 231 201" fill="none" xmlns="http://www.w3.org/2000/svg">
<path d="M121.593 1.51081C88.9462 1.09198 20.7678 12.8585 9.23161 63.2752C-2.30459 113.692 1.57675 125.95 4.95945 125.776M13.1805 145.605C15.9557 149.855 24.5347 160.562 36.6492 169.389M48.15 174.438C63.1197 184.258 104.269 202.743 149.108 198.125M164.045 190.788C178.703 189.315 211.247 176.428 224.156 136.67C231.966 93.7363 229.4 77.4993 223.953 72.7631M221.456 60.4812C214.102 44.556 188.289 10.6856 143.867 2.60538M23.6414 136.863C21.9423 124.529 20.1472 97.5504 26.5594 88.3083M26.5594 88.3083C32.9716 79.0663 35.6159 71.0313 36.1366 68.1691C39.8147 60.953 53.2288 43.1282 77.4603 29.5577C88.7848 24.5209 91.7202 20.5209 91.7724 19.1505C92.3972 15.7158 91.055 9.43956 80.6882 11.8118C70.3214 14.1841 53.435 24.0048 46.2876 28.6185C35.9482 35.6086 14.2801 56.9786 10.3227 86.5377C6.3653 116.097 16.7199 136.983 22.3919 143.732M26.5594 88.3083C29.6125 88.8637 37.7794 90.3492 46.0226 91.8486M32.8045 86.4874C35.7365 82.2896 43.9839 74.4459 53.5177 76.6531L59.5284 77.7465M65.539 78.8398L59.5284 77.7465M59.5284 77.7465C60.4913 75.1618 63.6766 70.2216 68.7142 71.1379C73.7517 72.0542 78.5151 72.5265 80.2672 72.648M56.7416 110.949C57.4527 112.458 59.5202 115.83 62.1014 117.246M164.832 98.6751C170.383 98.5021 183.4 100.633 191.06 110.543C200.635 122.929 205.761 125.636 206.554 133.468M206.554 133.468C210.9 122.866 217.2 107.803 221.14 107.735C227.073 107.631 221.816 120.277 219.525 126.365C217.775 131.018 218.641 127.978 211.249 149.107C202.505 171.171 174.089 182.167 160.975 184.907C171.279 180.276 199.8 147.024 202.246 143.329C203.01 142.176 204.581 138.282 206.554 133.468ZM154.004 145.199C155.548 146.466 160.166 147.739 166.286 142.702M154.732 154.202C156.154 155.052 159.874 155.847 163.371 152.225M150.882 136.352C149.928 144.852 146.925 163.309 142.553 169.137C135.372 163.1 137.506 154.617 113.307 154.355M146.716 172.26C146.491 174.585 144.707 178.755 139.378 176.839C133.653 182.303 133.08 188.704 120.799 184.696C108.517 180.688 69.0186 173.503 63.0864 167.102C58.174 162.896 60.2075 156.919 61.8383 154.455C57.467 152.478 49.7758 145.993 53.9815 135.876C58.1872 125.76 65.9698 116.57 69.3354 113.239L74.0206 93.9844C79.5955 81.4626 89.8762 61.5471 97.5115 59.1259M153.385 77.0771C148.664 76.2185 142.56 84.5702 139.645 94.0935C136.73 103.617 124.656 98.4639 116.07 96.902C110.116 95.8191 100.926 92.3732 100.718 87.013C100.511 81.6527 103.842 69.8396 103.842 69.8396C104.061 68.6361 104.318 67.2224 104.308 65.7846M153.385 77.0771C153.558 76.123 151.855 73.1323 147.817 71.9246C143.778 70.7169 140.305 73.121 139.074 74.474M153.385 77.0771C156.037 77.5596 157.398 78.6007 158.589 80.9793M160.773 101.485C161.398 98.0503 162.178 97.0096 161.346 88.5788C160.764 86.787 160.275 85.2679 159.817 83.9794M95.774 91.4361C92.2005 91.5746 85.4696 94.7659 87.134 106.423C89.2146 120.995 107.377 121.933 113.101 122.974M121.116 124.432C123.561 125.074 129.734 125.172 134.855 120.426M137.874 103.825C138.707 105.751 139.841 110.57 137.718 114.442M161.293 105.128C160.183 106.897 157.962 111.737 157.961 116.941C157.961 122.145 156.504 122.787 155.775 122.457M94.7811 145.663C82.2569 140.822 57.3957 132.712 58.1446 138.999C58.8935 145.286 62.5154 147.482 64.2327 147.794C66.8693 150.639 74.4946 156.403 83.9036 156.695C95.6649 157.06 95.6649 157.06 98.007 153.938C99.8807 151.44 95.0063 149.844 92.3349 149.358M71.4135 160.337C74.1022 161.812 80.8117 165.24 86.1406 167.155C91.4695 169.071 95.508 167.676 96.8611 166.74M104.875 168.198C108.483 170.037 116.511 173.153 119.759 170.905M104.308 65.7846C104.29 63.3472 103.504 60.8405 100.46 59.1709C99.5385 58.7909 98.5494 58.7968 97.5115 59.1259M104.308 65.7846C105.246 64.3782 108.391 62.3876 111.597 62.9707C115.604 63.6996 117.373 66.9784 117.165 68.1233M97.5115 59.1259C97.5674 58.8182 98.6558 54.2516 99.5016 50.7171M158.589 80.9793C162.753 77.5956 164.262 72.5504 165.147 70.9371C166.031 69.3239 166.916 67.7107 169.102 62.1945C171.289 56.6783 166.605 49.9126 165.356 50.2768C164.107 50.641 160.62 53.555 158.903 53.2427C157.186 52.9303 159.268 47.9865 157.759 46.5292C156.25 45.072 153.751 52.3055 151.461 51.889C149.171 51.4725 152.659 42.0533 150.942 41.7409C149.224 41.4285 146.361 47.4131 144.748 46.5282C143.135 45.6434 143.656 42.7812 143.656 42.7812C143.101 41.4975 138.088 37.6287 136.422 40.2827C134.757 42.9366 128.98 45.4342 125.962 42.5196C122.944 39.6051 124.786 37.9295 121.747 36.4305C111.859 32.2664 109.153 40.6449 107.331 40.9049C105.51 41.165 104.937 47.566 103.896 46.7853C103.063 46.1608 100.982 47.6351 100.045 48.4504C99.8886 49.1013 99.7019 49.8803 99.5016 50.7171M158.589 80.9793C159.003 81.8066 159.397 82.7957 159.817 83.9794M99.5016 50.7171C98.4165 47.1686 95.4656 41.1122 96.1945 37.1051C96.9234 33.098 94.4777 30.2875 97.7564 28.5184C101.035 26.7492 102.597 24.6677 105.043 20.973C107.489 17.2782 118.938 19.3607 121.8 19.8814C124.662 20.402 126.88 14.0636 128.878 13.4808C131.376 12.7525 148.758 14.7314 150.631 17.4376C152.504 20.1439 156.251 25.5565 156.147 26.129C156.043 26.7014 166.92 22.1746 168.221 24.7768C169.261 26.8585 167.804 33.5717 168.636 35.4973C169.469 37.4229 172.851 35.0813 175.61 36.1744C178.368 37.2675 175.817 41.5347 177.326 42.9919C178.835 44.4492 186.839 53.1199 182.841 64.6936C177.844 79.1606 164.533 84.0642 159.817 83.9794M126.479 78.6883C123.721 77.5953 116.924 80.4986 117.007 85.2448C117.09 89.991 119.54 90.8308 120.754 90.6574C123.269 90.9178 128.321 90.0231 128.404 84.361C128.488 78.6989 129.237 79.7814 126.479 78.6883ZM111.962 44.7043C108.528 44.0795 105.041 46.9936 104.416 50.4283C103.791 53.8629 103.739 57.4017 107.642 58.7031C111.545 60.0044 116.281 56.7262 116.073 51.3659C115.865 46.0056 115.397 45.3291 111.962 44.7043ZM157.758 59.5396C153.855 58.2382 149.895 60.1737 149.743 64.5869C149.604 68.6014 151.096 70.1555 155.103 70.8843C157.965 71.405 161.33 70.243 161.4 65.5246C161.452 61.9858 161.661 60.8409 157.758 59.5396ZM110.817 51.0012C109.672 50.7929 108.475 52.8225 109.516 54.9042C110.556 56.9859 111.962 51.2095 110.817 51.0012ZM155.676 64.4833C154.531 64.2751 151.98 68.5422 153.021 69.3229C154.062 70.1036 155.727 67.4497 155.727 67.4497C155.727 67.4497 156.82 64.6916 155.676 64.4833Z" stroke="#667555" stroke-width="3"/>
</svg>
