<svg width="94" height="173" viewBox="0 0 94 173" fill="none" xmlns="http://www.w3.org/2000/svg">
<path d="M34.4436 93.228C59.0599 102.768 74.8136 93.1743 81.9381 86.8414C90.2382 79.4634 102.227 44.4188 81.477 18.5968C47.8159 -14.1423 20.3028 6.608 12.3102 18.5969C2.01203 33.3524 -10.561 67.6591 21.5324 86.8414C26.0782 89.5584 30.3816 91.6537 34.4436 93.228ZM34.4436 93.228C35.5196 94.3269 36.3803 97.2623 31.2159 100.213C24.7603 103.902 21.0714 111.741 23.377 136.18C25.6825 160.619 21.5325 171.225 39.0548 168.919M39.0548 168.919C39.6696 170.302 42.2825 172.792 47.8159 171.686C54.7326 170.302 54.2714 171.686 54.2714 156.008C54.2714 140.33 50.1214 138.025 41.8214 138.025C39.0017 138.025 37.6189 140.207 37.0763 143.558M39.0548 168.919C38.1414 161.003 36.0218 150.072 37.0763 143.558M36.7492 113.586L37.0763 143.558M73.6381 93.228C77.7881 97.2472 86.0881 106.761 86.0881 112.663C90.2382 119.58 91.1604 120.963 91.6215 126.036C92.0826 131.108 92.2252 163.847 84.7048 165.23C77.1844 166.614 77.5292 150.321 76.4776 144.48M76.4776 144.48C76.8589 147.293 77.1062 150.779 77.327 155.086C78.2492 173.069 75.9437 170.302 68.5659 170.302C61.9259 170.302 63.4937 170.302 60.2659 170.302C57.0381 170.302 55.6548 133.413 65.3381 133.413C71.5584 133.413 74.3538 134.936 75.8021 140.791M76.4776 144.48C76.2894 143.092 76.0685 141.868 75.8021 140.791M75.8021 140.791V121.886M44.127 24.5911C44.7418 28.5874 44.5881 36.4878 39.0548 36.1189" stroke="#5C694D" stroke-width="2"/>
<ellipse cx="9.68334" cy="8.30001" rx="9.68334" ry="8.30001" transform="matrix(-0.767684 -0.640829 -0.640829 0.767684 75.4825 27.3186)" fill="#5C694D"/>
<ellipse cx="4.27256" cy="5.20277" rx="4.27256" ry="5.20277" transform="matrix(-0.739262 0.673418 0.673418 0.739262 63.8641 65.6301)" fill="#5C694D"/>
<ellipse cx="12.442" cy="10.9052" rx="12.442" ry="10.9052" transform="matrix(-0.0808661 -0.996725 -0.996725 0.0808661 32.1382 70.1438)" fill="#5C694D"/>
</svg>
