<svg width="28" height="35" viewBox="0 0 28 35" fill="none" xmlns="http://www.w3.org/2000/svg">
<path d="M17.6233 0.798828C18.0896 0.640744 18.4823 0.915058 18.719 1.15234C18.975 1.40905 19.2165 1.78066 19.4407 2.19629C19.8941 3.03687 20.3517 4.19687 20.7649 5.37695C21.5591 7.64523 22.2565 10.1906 22.4221 10.7197C22.6498 11.1147 22.9802 11.8784 23.3401 12.8027C23.7274 13.7976 24.1666 15.0219 24.5803 16.2754C24.9939 17.5284 25.384 18.8175 25.6711 19.9404C25.9471 21.0195 26.1394 21.9935 26.1487 22.6367L26.1897 23.1133C26.5647 27.9629 25.4174 30.6252 23.9553 32.0703C22.4585 33.5495 20.7383 33.6454 20.3528 33.6455H6.65845C6.2738 33.6455 4.55321 33.5498 3.05591 32.0703C1.59377 30.6252 0.446531 27.9632 0.821533 23.1133L0.862549 22.6367C0.871837 21.9934 1.06415 21.0196 1.34009 19.9404C1.62725 18.8175 2.01731 17.5285 2.43091 16.2754C2.84468 15.0218 3.28384 13.7976 3.67114 12.8027C4.03107 11.8782 4.36145 11.1146 4.58911 10.7197C4.75476 10.1905 5.4521 7.64524 6.24634 5.37695C6.65959 4.19677 7.11714 3.03688 7.57056 2.19629C7.79484 1.78056 8.03619 1.40903 8.29224 1.15234C8.52904 0.915034 8.92159 0.64051 9.38794 0.798828L9.50513 0.838867L9.59106 0.929688C11.5432 3.00405 12.1654 5.71014 12.5852 7.66406C12.8037 8.68106 12.9565 9.42838 13.176 9.87988C13.2448 10.0212 13.3049 10.0967 13.3479 10.1377C13.4146 10.1654 13.4656 10.1776 13.5042 10.1836C13.543 10.1779 13.5942 10.165 13.6624 10.1367C13.7054 10.0957 13.7665 10.0211 13.8352 9.87988C14.0547 9.42834 14.2075 8.68108 14.426 7.66406C14.8458 5.71006 15.4679 3.00409 17.4202 0.929688L17.5061 0.838867L17.6233 0.798828Z" fill="#FFF7ED"/>
<path d="M17.6233 0.798828L17.3825 0.0885339L17.3808 0.0891098L17.6233 0.798828ZM18.719 1.15234L19.2501 0.62278L19.25 0.62264L18.719 1.15234ZM19.4407 2.19629L20.1008 1.84025L20.1007 1.8402L19.4407 2.19629ZM20.7649 5.37695L21.4728 5.1291L21.4728 5.12909L20.7649 5.37695ZM22.4221 10.7197L21.7064 10.9438L21.7311 11.0226L21.7723 11.0943L22.4221 10.7197ZM23.3401 12.8027L24.039 12.5307L24.039 12.5306L23.3401 12.8027ZM24.5803 16.2754L25.2925 16.0403V16.0403L24.5803 16.2754ZM25.6711 19.9404L26.3978 19.7546L26.3978 19.7546L25.6711 19.9404ZM26.1487 22.6367L25.3988 22.6475L25.3991 22.6743L25.4014 22.701L26.1487 22.6367ZM26.1897 23.1133L26.9375 23.0555L26.9369 23.049L26.1897 23.1133ZM23.9553 32.0703L24.4825 32.6038L24.4826 32.6037L23.9553 32.0703ZM20.3528 33.6455V34.3955H20.3529L20.3528 33.6455ZM3.05591 32.0703L2.5287 32.6037L2.52876 32.6038L3.05591 32.0703ZM0.821533 23.1133L0.0742674 23.049L0.0737652 23.0555L0.821533 23.1133ZM0.862549 22.6367L1.60979 22.701L1.61208 22.6743L1.61247 22.6475L0.862549 22.6367ZM1.34009 19.9404L0.613469 19.7546L0.613466 19.7546L1.34009 19.9404ZM2.43091 16.2754L1.7187 16.0403L1.7187 16.0403L2.43091 16.2754ZM3.67114 12.8027L2.97224 12.5306L2.97224 12.5306L3.67114 12.8027ZM4.58911 10.7197L5.23887 11.0943L5.28017 11.0227L5.30487 10.9438L4.58911 10.7197ZM6.24634 5.37695L5.53848 5.12909L5.53848 5.1291L6.24634 5.37695ZM7.57056 2.19629L6.91048 1.84019L6.91046 1.84023L7.57056 2.19629ZM8.29224 1.15234L7.76135 0.622575L7.76124 0.622685L8.29224 1.15234ZM9.38794 0.798828L9.63043 0.0891085L9.62904 0.0886364L9.38794 0.798828ZM9.50513 0.838867L10.0499 0.323384L9.92272 0.188976L9.74761 0.129149L9.50513 0.838867ZM9.59106 0.929688L10.1372 0.415697L10.1358 0.414204L9.59106 0.929688ZM12.5852 7.66406L13.3185 7.50653V7.50652L12.5852 7.66406ZM13.176 9.87988L12.5015 10.2079L12.5017 10.2081L13.176 9.87988ZM13.3479 10.1377L12.8302 10.6804L12.9312 10.7767L13.06 10.8302L13.3479 10.1377ZM13.5042 10.1836L13.3899 10.9248L13.5011 10.942L13.6124 10.9257L13.5042 10.1836ZM13.6624 10.1367L13.9501 10.8293L14.0789 10.7758L14.1799 10.6796L13.6624 10.1367ZM13.8352 9.87988L14.5096 10.208L14.5097 10.2078L13.8352 9.87988ZM14.426 7.66406L13.6928 7.50652L14.426 7.66406ZM17.4202 0.929688L16.8754 0.414202L16.874 0.415675L17.4202 0.929688ZM17.5061 0.838867L17.2636 0.129149L17.0885 0.188976L16.9613 0.323384L17.5061 0.838867ZM17.6233 0.798828L17.8641 1.50912C17.8851 1.502 17.8979 1.50165 17.9072 1.50229C17.9184 1.50305 17.9373 1.50637 17.9657 1.51836C18.0295 1.54526 18.1077 1.6015 18.188 1.68205L18.719 1.15234L19.25 0.62264C18.9707 0.342708 18.2818 -0.216338 17.3825 0.0885358L17.6233 0.798828ZM18.719 1.15234L18.1879 1.68191C18.3671 1.86167 18.5678 2.15792 18.7806 2.55238L19.4407 2.19629L20.1007 1.8402C19.8651 1.4034 19.5828 0.956424 19.2501 0.62278L18.719 1.15234ZM19.4407 2.19629L18.7806 2.55233C19.2048 3.33886 19.6467 4.45308 20.057 5.62481L20.7649 5.37695L21.4728 5.12909C21.0566 3.94067 20.5833 2.73487 20.1008 1.84025L19.4407 2.19629ZM20.7649 5.37695L20.057 5.62481C20.8475 7.88228 21.5262 10.3683 21.7064 10.9438L22.4221 10.7197L23.1379 10.4957C22.9868 10.0129 22.2708 7.40819 21.4728 5.1291L20.7649 5.37695ZM22.4221 10.7197L21.7723 11.0943C21.9679 11.4336 22.2801 12.1472 22.6412 13.0748L23.3401 12.8027L24.039 12.5306C23.6804 11.6095 23.3317 10.7958 23.0719 10.3452L22.4221 10.7197ZM23.3401 12.8027L22.6412 13.0748C23.0231 14.056 23.4579 15.2678 23.8681 16.5105L24.5803 16.2754L25.2925 16.0403C24.8752 14.7759 24.4316 13.5392 24.039 12.5307L23.3401 12.8027ZM24.5803 16.2754L23.8681 16.5105C24.2783 17.7533 24.663 19.0251 24.9445 20.1262L25.6711 19.9404L26.3978 19.7546C26.105 18.6099 25.7095 17.3035 25.2925 16.0403L24.5803 16.2754ZM25.6711 19.9404L24.9445 20.1262C25.2202 21.2046 25.3909 22.102 25.3988 22.6475L26.1487 22.6367L26.8986 22.6259C26.8879 21.885 26.6739 20.8344 26.3978 19.7546L25.6711 19.9404ZM26.1487 22.6367L25.4014 22.701L25.4425 23.1776L26.1897 23.1133L26.9369 23.049L26.8959 22.5724L26.1487 22.6367ZM26.1897 23.1133L25.4419 23.1711C25.8067 27.8883 24.68 30.2994 23.4281 31.5369L23.9553 32.0703L24.4826 32.6037C26.1547 30.9509 27.3227 28.0375 26.9375 23.0555L26.1897 23.1133ZM23.9553 32.0703L23.4281 31.5369C22.1306 32.8191 20.643 32.8955 20.3526 32.8955L20.3528 33.6455L20.3529 34.3955C20.8337 34.3954 22.7865 34.2799 24.4825 32.6038L23.9553 32.0703ZM20.3528 33.6455V32.8955H6.65845V33.6455V34.3955H20.3528V33.6455ZM6.65845 33.6455V32.8955C6.36915 32.8955 4.88111 32.8194 3.58306 31.5368L3.05591 32.0703L2.52876 32.6038C4.22531 34.2802 6.17845 34.3955 6.65845 34.3955V33.6455ZM3.05591 32.0703L3.58312 31.5369C2.3311 30.2995 1.20454 27.8886 1.5693 23.1711L0.821533 23.1133L0.0737652 23.0555C-0.311475 28.0377 0.856449 30.951 2.5287 32.6037L3.05591 32.0703ZM0.821533 23.1133L1.56877 23.1776L1.60979 22.701L0.862549 22.6367L0.115311 22.5724L0.0742956 23.049L0.821533 23.1133ZM0.862549 22.6367L1.61247 22.6475C1.62035 22.1019 1.79096 21.2046 2.06671 20.1262L1.34009 19.9404L0.613466 19.7546C0.337346 20.8345 0.123325 21.885 0.112627 22.6259L0.862549 22.6367ZM1.34009 19.9404L2.06671 20.1262C2.34829 19.0251 2.73287 17.7534 3.14312 16.5105L2.43091 16.2754L1.7187 16.0403C1.30174 17.3036 0.906203 18.6099 0.613469 19.7546L1.34009 19.9404ZM2.43091 16.2754L3.14312 16.5105C3.55331 15.2677 3.98808 14.056 4.37005 13.0748L3.67114 12.8027L2.97224 12.5306C2.5796 13.5392 2.13606 14.7758 1.7187 16.0403L2.43091 16.2754ZM3.67114 12.8027L4.37005 13.0748C4.73125 12.147 5.04333 11.4335 5.23887 11.0943L4.58911 10.7197L3.93936 10.3451C3.67958 10.7957 3.33089 11.6094 2.97224 12.5306L3.67114 12.8027ZM4.58911 10.7197L5.30487 10.9438C5.48501 10.3682 6.16375 7.88228 6.9542 5.62481L6.24634 5.37695L5.53848 5.1291C4.74045 7.4082 4.0245 10.0128 3.87336 10.4957L4.58911 10.7197ZM6.24634 5.37695L6.9542 5.62481C7.36453 4.45295 7.80639 3.33887 8.23065 2.55235L7.57056 2.19629L6.91046 1.84023C6.42788 2.73488 5.95464 3.94058 5.53848 5.12909L6.24634 5.37695ZM7.57056 2.19629L8.23063 2.55239C8.44355 2.15771 8.64403 1.86167 8.82324 1.682L8.29224 1.15234L7.76124 0.622685C7.42836 0.956403 7.14612 1.40341 6.91048 1.84019L7.57056 2.19629ZM8.29224 1.15234L8.82313 1.68211C8.9037 1.60137 8.98189 1.54511 9.04561 1.51822C9.07398 1.50625 9.09281 1.50294 9.10395 1.50219C9.11317 1.50157 9.12587 1.5019 9.14684 1.50902L9.38794 0.798828L9.62904 0.0886364C8.72932 -0.2168 8.04031 0.343019 7.76135 0.622575L8.29224 1.15234ZM9.38794 0.798828L9.14545 1.50855L9.26264 1.54859L9.50513 0.838867L9.74761 0.129149L9.63043 0.0891098L9.38794 0.798828ZM9.50513 0.838867L8.96035 1.35435L9.04629 1.44517L9.59106 0.929688L10.1358 0.414204L10.0499 0.323384L9.50513 0.838867ZM9.59106 0.929688L9.04488 1.44368C10.8375 3.34858 11.4299 5.85723 11.8519 7.8216L12.5852 7.66406L13.3185 7.50652C12.9009 5.56306 12.2488 2.65952 10.1372 0.415699L9.59106 0.929688ZM12.5852 7.66406L11.8519 7.8216C11.9596 8.32265 12.0558 8.78033 12.1528 9.16658C12.2484 9.54759 12.3564 9.90944 12.5015 10.2079L13.176 9.87988L13.8505 9.5519C13.7761 9.39882 13.6979 9.16126 13.6077 8.80148C13.5187 8.44695 13.4293 8.02247 13.3185 7.50653L12.5852 7.66406ZM13.176 9.87988L12.5017 10.2081C12.5986 10.4073 12.7069 10.5627 12.8302 10.6804L13.3479 10.1377L13.8656 9.59498C13.903 9.63068 13.891 9.63501 13.8504 9.55165L13.176 9.87988ZM13.3479 10.1377L13.06 10.8302C13.1825 10.8811 13.2917 10.9097 13.3899 10.9248L13.5042 10.1836L13.6184 9.44235C13.6273 9.44372 13.6345 9.44537 13.6391 9.44668C13.6434 9.44789 13.6425 9.44793 13.6358 9.44515L13.3479 10.1377ZM13.5042 10.1836L13.6124 10.9257C13.7213 10.9099 13.8328 10.8781 13.9501 10.8293L13.6624 10.1367L13.3746 9.44412C13.3647 9.44821 13.3623 9.44863 13.3664 9.44744C13.3709 9.44617 13.3809 9.44363 13.3959 9.44145L13.5042 10.1836ZM13.6624 10.1367L14.1799 10.6796C14.2991 10.5659 14.4094 10.4139 14.5096 10.208L13.8352 9.87988L13.1608 9.55175C13.1419 9.59058 13.1295 9.60895 13.1264 9.61335C13.1238 9.61703 13.1294 9.60863 13.1448 9.59387L13.6624 10.1367ZM13.8352 9.87988L14.5097 10.2078C14.6548 9.9094 14.7628 9.54759 14.8584 9.16658C14.9554 8.78033 15.0516 8.32267 15.1593 7.8216L14.426 7.66406L13.6928 7.50652C13.5819 8.02247 13.4925 8.44694 13.4036 8.80147C13.3133 9.16123 13.2352 9.39882 13.1607 9.55194L13.8352 9.87988ZM14.426 7.66406L15.1593 7.8216C15.5814 5.8571 16.1735 3.34862 17.9663 1.4437L17.4202 0.929688L16.874 0.415675C14.7622 2.65955 14.1103 5.56302 13.6928 7.50652L14.426 7.66406ZM17.4202 0.929688L17.9649 1.44517L18.0509 1.35435L17.5061 0.838867L16.9613 0.323384L16.8754 0.414204L17.4202 0.929688ZM17.5061 0.838867L17.7486 1.54859L17.8658 1.50855L17.6233 0.798828L17.3808 0.0891098L17.2636 0.129149L17.5061 0.838867Z" fill="#5C694D"/>
<path d="M8.31372 14.2617C9.86882 14.2618 11.2559 15.6819 11.2561 17.5977C11.2561 19.5136 9.86892 20.9345 8.31372 20.9346C6.75848 20.9346 5.37134 19.5136 5.37134 17.5977C5.37152 15.6819 6.75858 14.2617 8.31372 14.2617Z" fill="#FFF7ED" stroke="#5C694D" stroke-width="1.5"/>
<ellipse cx="8.47456" cy="17.1077" rx="0.963205" ry="0.980717" fill="#5C694D"/>
<path d="M18.5876 14.2615C20.1427 14.2615 21.5298 15.6817 21.53 17.5974C21.53 19.5133 20.1428 20.9343 18.5876 20.9343C17.0324 20.9343 15.6453 19.5134 15.6453 17.5974C15.6454 15.6816 17.0325 14.2615 18.5876 14.2615Z" fill="#FFF7ED" stroke="#5C694D" stroke-width="1.5"/>
<ellipse cx="18.7486" cy="17.1077" rx="0.963205" ry="0.980717" fill="#5C694D"/>
</svg>
