<svg width="34" height="32" viewBox="0 0 34 32" fill="none" xmlns="http://www.w3.org/2000/svg">
<path d="M15.3872 1.5188C15.8148 0.493877 17.2663 0.493878 17.6938 1.5188L21.272 10.0989L21.4478 10.5208L21.9038 10.5579L31.1782 11.2991C32.2872 11.388 32.736 12.7726 31.8901 13.4954L24.8286 19.5305L24.479 19.8284L24.5864 20.2747L26.7456 29.304C27.0041 30.385 25.8286 31.2405 24.8794 30.6624L17.9712 26.4534C17.0925 25.9181 15.9885 25.9181 15.1099 26.4534L8.20166 30.6624C7.25245 31.2405 6.07695 30.385 6.33545 29.304L8.49463 20.2747L8.60205 19.8284L8.25244 19.5305L1.19092 13.4954C0.345061 12.7726 0.793872 11.388 1.90283 11.2991L11.1772 10.5579L11.6333 10.5208L11.8091 10.0989L15.3872 1.5188Z" fill="#FFFAF4" stroke="#59664B" stroke-width="1.5"/>
</svg>
